<svg xmlns="http://www.w3.org/2000/svg" xmlns:xlink="http://www.w3.org/1999/xlink" width="500" zoomAndPan="magnify" viewBox="0 0 375 374.999991" height="500" preserveAspectRatio="xMidYMid meet" version="1.0"><defs><clipPath id="bfe9cbb807"><path d="M 152 156.042969 L 194 156.042969 L 194 175 L 152 175 Z M 152 156.042969 " clip-rule="nonzero"/></clipPath><clipPath id="0ea337f98c"><path d="M 105.148438 172 L 240.898438 172 L 240.898438 268.542969 L 105.148438 268.542969 Z M 105.148438 172 " clip-rule="nonzero"/></clipPath></defs><path fill="#ff7cce" d="M 144.695312 221.894531 C 150.0625 221.894531 154.425781 217.53125 154.425781 212.164062 C 154.425781 206.800781 150.0625 202.433594 144.695312 202.433594 C 139.332031 202.433594 134.964844 206.800781 134.964844 212.164062 C 134.964844 217.53125 139.328125 221.894531 144.695312 221.894531 Z M 144.695312 221.894531 " fill-opacity="1" fill-rule="nonzero"/><path fill="#ff7cce" d="M 144.695312 231.011719 C 135.039062 231.011719 126.972656 237.953125 125.226562 247.109375 L 164.164062 247.109375 C 162.417969 237.953125 154.351562 231.011719 144.695312 231.011719 Z M 144.695312 231.011719 " fill-opacity="1" fill-rule="nonzero"/><g clip-path="url(#bfe9cbb807)"><path fill="#ff7cce" d="M 193.367188 164.992188 L 187.949219 164.992188 C 184.261719 164.992188 181.257812 161.988281 181.257812 158.300781 L 181.257812 156.070312 L 164.90625 156.070312 L 164.90625 158.300781 C 164.90625 161.988281 161.90625 164.992188 158.214844 164.992188 L 152.800781 164.992188 L 152.800781 174.4375 L 193.367188 174.4375 Z M 193.367188 164.992188 " fill-opacity="1" fill-rule="nonzero"/></g><g clip-path="url(#0ea337f98c)"><path fill="#ff7cce" d="M 231.214844 172.371094 L 200.800781 172.371094 L 200.800781 175.183594 C 200.800781 178.871094 197.800781 181.871094 194.109375 181.871094 L 152.058594 181.871094 C 148.371094 181.871094 145.367188 178.871094 145.367188 175.183594 L 145.367188 172.371094 L 114.953125 172.371094 C 109.503906 172.371094 105.074219 176.800781 105.074219 182.246094 L 105.074219 258.382812 C 105.074219 263.828125 109.503906 268.261719 114.953125 268.261719 L 231.214844 268.261719 C 236.660156 268.261719 241.09375 263.832031 241.09375 258.382812 L 241.09375 182.246094 C 241.09375 176.804688 236.660156 172.371094 231.214844 172.371094 Z M 181.675781 202.679688 L 216.414062 202.679688 C 218.464844 202.679688 220.128906 204.34375 220.128906 206.398438 C 220.128906 208.449219 218.464844 210.113281 216.414062 210.113281 L 181.675781 210.113281 C 179.621094 210.113281 177.960938 208.449219 177.960938 206.398438 C 177.960938 204.34375 179.621094 202.679688 181.675781 202.679688 Z M 168.226562 254.542969 L 121.164062 254.542969 C 119.109375 254.542969 117.445312 252.878906 117.445312 250.824219 C 117.445312 239.53125 124.355469 229.820312 134.171875 225.695312 C 130.140625 222.550781 127.53125 217.664062 127.53125 212.164062 C 127.53125 202.703125 135.234375 195 144.695312 195 C 154.160156 195 161.859375 202.703125 161.859375 212.164062 C 161.859375 217.664062 159.253906 222.550781 155.21875 225.695312 C 165.035156 229.820312 171.945312 239.53125 171.945312 250.824219 C 171.945312 252.878906 170.28125 254.542969 168.226562 254.542969 Z M 177.960938 224.769531 C 177.960938 222.71875 179.621094 221.054688 181.675781 221.054688 L 216.414062 221.054688 C 218.464844 221.054688 220.128906 222.71875 220.128906 224.769531 C 220.128906 226.824219 218.464844 228.488281 216.414062 228.488281 L 181.675781 228.488281 C 179.621094 228.488281 177.960938 226.824219 177.960938 224.769531 Z M 217.183594 246.863281 L 190.425781 246.863281 C 188.375 246.863281 186.710938 245.199219 186.710938 243.144531 C 186.710938 241.09375 188.375 239.429688 190.425781 239.429688 L 217.1875 239.429688 C 219.238281 239.429688 220.902344 241.09375 220.902344 243.144531 C 220.902344 245.199219 219.238281 246.863281 217.183594 246.863281 Z M 217.183594 246.863281 " fill-opacity="1" fill-rule="nonzero"/></g></svg>