<svg xmlns="http://www.w3.org/2000/svg" xmlns:xlink="http://www.w3.org/1999/xlink" width="800" zoomAndPan="magnify" viewBox="0 0 600 599.999999" height="800" preserveAspectRatio="xMidYMid meet" version="1.2"><defs><clipPath id="b00bc0f854"><path d="M 169.371094 212.816406 L 449.871094 212.816406 L 449.871094 285.566406 L 169.371094 285.566406 Z M 169.371094 212.816406 "/></clipPath><clipPath id="d1667493f2"><path d="M 90.644531 177 L 202 177 L 202 270 L 90.644531 270 Z M 90.644531 177 "/></clipPath><clipPath id="a51a798589"><path d="M 211 156 L 224.144531 156 L 224.144531 170 L 211 170 Z M 211 156 "/></clipPath></defs><g id="207fb16e31"><g clip-rule="nonzero" clip-path="url(#b00bc0f854)"><path style=" stroke:none;fill-rule:nonzero;fill:#ff9999;fill-opacity:1;" d="M 169.371094 212.816406 L 169.371094 285.199219 L 449.199219 285.199219 L 449.199219 212.816406 Z M 169.371094 212.816406 "/></g><g style="fill:#000000;fill-opacity:1;"><g transform="translate(225.270957, 257.067239)"><path style="stroke:none" d="M 0.828125 0 L 0.828125 -2.5625 L 4.625 -2.5625 L 4.625 -12.34375 L 4.375 -12.40625 C 3.832031 -12.144531 3.300781 -11.9375 2.78125 -11.78125 C 2.269531 -11.632812 1.679688 -11.519531 1.015625 -11.4375 L 1.015625 -14.09375 C 2.753906 -14.457031 4.160156 -14.992188 5.234375 -15.703125 L 7.6875 -15.703125 L 7.6875 -2.5625 L 11.078125 -2.5625 L 11.078125 0 Z M 0.828125 0 "/></g></g><g style="fill:#000000;fill-opacity:1;"><g transform="translate(248.931112, 257.067239)"><path style="stroke:none" d=""/></g></g><g style="fill:#000000;fill-opacity:1;"><g transform="translate(254.118673, 257.067239)"><path style="stroke:none" d="M 7.625 0.21875 C 6.3125 0.21875 5.175781 -0.078125 4.21875 -0.671875 C 3.269531 -1.265625 2.535156 -2.164062 2.015625 -3.375 C 1.492188 -4.582031 1.234375 -6.078125 1.234375 -7.859375 C 1.234375 -9.640625 1.546875 -11.132812 2.171875 -12.34375 C 2.796875 -13.550781 3.660156 -14.453125 4.765625 -15.046875 C 5.867188 -15.640625 7.148438 -15.9375 8.609375 -15.9375 C 10.117188 -15.9375 11.398438 -15.65625 12.453125 -15.09375 C 13.515625 -14.53125 14.265625 -13.695312 14.703125 -12.59375 L 12.421875 -11.21875 L 12.15625 -11.234375 C 11.832031 -11.941406 11.378906 -12.453125 10.796875 -12.765625 C 10.210938 -13.085938 9.484375 -13.25 8.609375 -13.25 C 7.253906 -13.25 6.21875 -12.820312 5.5 -11.96875 C 4.789062 -11.113281 4.4375 -9.742188 4.4375 -7.859375 C 4.4375 -5.953125 4.769531 -4.566406 5.4375 -3.703125 C 6.113281 -2.847656 7.101562 -2.421875 8.40625 -2.421875 C 9.539062 -2.421875 10.375 -2.675781 10.90625 -3.1875 C 11.445312 -3.695312 11.71875 -4.457031 11.71875 -5.46875 L 11.71875 -6.140625 L 8 -6.140625 L 8 -8.671875 L 14.796875 -8.671875 L 14.796875 0 L 11.84375 0 L 11.84375 -2.109375 L 11.609375 -2.140625 C 11.285156 -1.390625 10.796875 -0.804688 10.140625 -0.390625 C 9.484375 0.015625 8.644531 0.21875 7.625 0.21875 Z M 7.625 0.21875 "/></g></g><g style="fill:#000000;fill-opacity:1;"><g transform="translate(270.497605, 257.067239)"><path style="stroke:none" d="M 11.703125 -5.25 L 4.09375 -5.25 C 4.175781 -4.21875 4.46875 -3.46875 4.96875 -3 C 5.46875 -2.53125 6.15625 -2.296875 7.03125 -2.296875 C 7.707031 -2.296875 8.253906 -2.421875 8.671875 -2.671875 C 9.097656 -2.929688 9.441406 -3.316406 9.703125 -3.828125 L 9.921875 -3.828125 L 11.90625 -2.5625 C 11.519531 -1.738281 10.9375 -1.066406 10.15625 -0.546875 C 9.375 -0.0351562 8.332031 0.21875 7.03125 0.21875 C 5.800781 0.21875 4.738281 -0.0078125 3.84375 -0.46875 C 2.957031 -0.9375 2.269531 -1.628906 1.78125 -2.546875 C 1.300781 -3.472656 1.0625 -4.597656 1.0625 -5.921875 C 1.0625 -7.265625 1.316406 -8.394531 1.828125 -9.3125 C 2.335938 -10.238281 3.023438 -10.929688 3.890625 -11.390625 C 4.753906 -11.847656 5.726562 -12.078125 6.8125 -12.078125 C 8.488281 -12.078125 9.769531 -11.628906 10.65625 -10.734375 C 11.550781 -9.847656 12 -8.546875 12 -6.828125 C 12 -6.203125 11.976562 -5.71875 11.9375 -5.375 Z M 9.15625 -7.171875 C 9.125 -8.078125 8.910156 -8.734375 8.515625 -9.140625 C 8.128906 -9.554688 7.5625 -9.765625 6.8125 -9.765625 C 5.3125 -9.765625 4.425781 -8.898438 4.15625 -7.171875 Z M 9.15625 -7.171875 "/></g></g><g style="fill:#000000;fill-opacity:1;"><g transform="translate(283.375206, 257.067239)"><path style="stroke:none" d="M 1.703125 0 L 1.703125 -11.84375 L 4.5625 -11.84375 L 4.5625 -10.109375 L 4.796875 -10.0625 C 5.523438 -11.40625 6.71875 -12.078125 8.375 -12.078125 C 9.75 -12.078125 10.753906 -11.703125 11.390625 -10.953125 C 12.035156 -10.210938 12.359375 -9.128906 12.359375 -7.703125 L 12.359375 0 L 9.375 0 L 9.375 -7.34375 C 9.375 -8.125 9.21875 -8.6875 8.90625 -9.03125 C 8.59375 -9.382812 8.085938 -9.5625 7.390625 -9.5625 C 6.535156 -9.5625 5.867188 -9.285156 5.390625 -8.734375 C 4.921875 -8.179688 4.6875 -7.316406 4.6875 -6.140625 L 4.6875 0 Z M 1.703125 0 "/></g></g><g style="fill:#000000;fill-opacity:1;"><g transform="translate(297.251647, 257.067239)"><path style="stroke:none" d="M 3.03125 0.09375 C 2.644531 0.09375 2.304688 0.0195312 2.015625 -0.125 C 1.734375 -0.28125 1.515625 -0.492188 1.359375 -0.765625 C 1.203125 -1.046875 1.125 -1.359375 1.125 -1.703125 C 1.125 -2.046875 1.203125 -2.351562 1.359375 -2.625 C 1.515625 -2.894531 1.734375 -3.109375 2.015625 -3.265625 C 2.304688 -3.421875 2.644531 -3.5 3.03125 -3.5 C 3.414062 -3.5 3.753906 -3.421875 4.046875 -3.265625 C 4.335938 -3.117188 4.554688 -2.90625 4.703125 -2.625 C 4.859375 -2.351562 4.9375 -2.046875 4.9375 -1.703125 C 4.9375 -1.179688 4.765625 -0.75 4.421875 -0.40625 C 4.078125 -0.0703125 3.613281 0.09375 3.03125 0.09375 Z M 3.03125 -8.375 C 2.644531 -8.375 2.304688 -8.445312 2.015625 -8.59375 C 1.734375 -8.75 1.515625 -8.960938 1.359375 -9.234375 C 1.203125 -9.515625 1.125 -9.828125 1.125 -10.171875 C 1.125 -10.515625 1.203125 -10.820312 1.359375 -11.09375 C 1.515625 -11.363281 1.734375 -11.578125 2.015625 -11.734375 C 2.304688 -11.890625 2.644531 -11.96875 3.03125 -11.96875 C 3.414062 -11.96875 3.753906 -11.890625 4.046875 -11.734375 C 4.335938 -11.585938 4.554688 -11.375 4.703125 -11.09375 C 4.859375 -10.820312 4.9375 -10.515625 4.9375 -10.171875 C 4.9375 -9.648438 4.765625 -9.21875 4.421875 -8.875 C 4.078125 -8.539062 3.613281 -8.375 3.03125 -8.375 Z M 3.03125 -8.375 "/></g></g><g style="fill:#000000;fill-opacity:1;"><g transform="translate(303.319911, 257.067239)"><path style="stroke:none" d=""/></g></g><g style="fill:#000000;fill-opacity:1;"><g transform="translate(308.509235, 257.067239)"><path style="stroke:none" d="M 5.140625 0 L 2.046875 0 L 2.046875 -15.703125 L 5.140625 -15.703125 Z M 5.140625 0 "/></g></g><g style="fill:#000000;fill-opacity:1;"><g transform="translate(315.705222, 257.067239)"><path style="stroke:none" d="M 8.171875 -2.828125 L 8.953125 -0.625 C 8.628906 -0.351562 8.222656 -0.144531 7.734375 0 C 7.242188 0.144531 6.691406 0.21875 6.078125 0.21875 C 4.796875 0.21875 3.820312 -0.128906 3.15625 -0.828125 C 2.488281 -1.523438 2.15625 -2.539062 2.15625 -3.875 L 2.15625 -9.5 L 0.359375 -9.5 L 0.359375 -11.859375 L 2.15625 -11.859375 L 2.15625 -14.171875 L 5.140625 -14.65625 L 5.140625 -11.859375 L 8.5 -11.859375 L 8.5 -9.5 L 5.140625 -9.5 L 5.140625 -4.078125 C 5.140625 -3.492188 5.257812 -3.066406 5.5 -2.796875 C 5.738281 -2.523438 6.09375 -2.390625 6.5625 -2.390625 C 7.09375 -2.390625 7.554688 -2.535156 7.953125 -2.828125 Z M 8.171875 -2.828125 "/></g></g><g style="fill:#000000;fill-opacity:1;"><g transform="translate(324.909647, 257.067239)"><path style="stroke:none" d=""/></g></g><g style="fill:#000000;fill-opacity:1;"><g transform="translate(330.097208, 257.067239)"><path style="stroke:none" d="M 6.359375 0 L 3.25 0 L 0.4375 -11.84375 L 3.1875 -11.84375 L 4.9375 -3.828125 L 5.15625 -3.828125 L 7.40625 -11.84375 L 9.984375 -11.84375 L 12.328125 -3.828125 L 12.546875 -3.828125 L 14.21875 -11.84375 L 16.90625 -11.84375 L 14.125 0 L 11 0 L 8.75 -8.0625 L 8.53125 -8.0625 Z M 6.359375 0 "/></g></g><g style="fill:#000000;fill-opacity:1;"><g transform="translate(347.421285, 257.067239)"><path style="stroke:none" d="M 6.890625 0.21875 C 5.722656 0.21875 4.703125 -0.015625 3.828125 -0.484375 C 2.953125 -0.960938 2.269531 -1.660156 1.78125 -2.578125 C 1.300781 -3.503906 1.0625 -4.617188 1.0625 -5.921875 C 1.0625 -7.222656 1.300781 -8.332031 1.78125 -9.25 C 2.269531 -10.175781 2.953125 -10.878906 3.828125 -11.359375 C 4.703125 -11.835938 5.722656 -12.078125 6.890625 -12.078125 C 8.046875 -12.078125 9.0625 -11.835938 9.9375 -11.359375 C 10.820312 -10.878906 11.503906 -10.175781 11.984375 -9.25 C 12.472656 -8.332031 12.71875 -7.222656 12.71875 -5.921875 C 12.71875 -4.617188 12.472656 -3.503906 11.984375 -2.578125 C 11.503906 -1.660156 10.820312 -0.960938 9.9375 -0.484375 C 9.0625 -0.015625 8.046875 0.21875 6.890625 0.21875 Z M 6.890625 -2.296875 C 8.722656 -2.296875 9.640625 -3.503906 9.640625 -5.921875 C 9.640625 -7.171875 9.40625 -8.085938 8.9375 -8.671875 C 8.46875 -9.253906 7.785156 -9.546875 6.890625 -9.546875 C 5.046875 -9.546875 4.125 -8.335938 4.125 -5.921875 C 4.125 -3.503906 5.046875 -2.296875 6.890625 -2.296875 Z M 6.890625 -2.296875 "/></g></g><g style="fill:#000000;fill-opacity:1;"><g transform="translate(361.190324, 257.067239)"><path style="stroke:none" d="M 1.703125 0 L 1.703125 -11.84375 L 4.59375 -11.84375 L 4.59375 -10.09375 L 4.828125 -10.046875 C 5.109375 -10.703125 5.484375 -11.179688 5.953125 -11.484375 C 6.421875 -11.796875 6.988281 -11.953125 7.65625 -11.953125 C 8.320312 -11.953125 8.832031 -11.835938 9.1875 -11.609375 L 8.6875 -9.046875 L 8.453125 -9 C 8.265625 -9.082031 8.078125 -9.140625 7.890625 -9.171875 C 7.710938 -9.210938 7.492188 -9.234375 7.234375 -9.234375 C 6.410156 -9.234375 5.78125 -8.941406 5.34375 -8.359375 C 4.90625 -7.773438 4.6875 -6.835938 4.6875 -5.546875 L 4.6875 0 Z M 1.703125 0 "/></g></g><g style="fill:#000000;fill-opacity:1;"><g transform="translate(370.480671, 257.067239)"><path style="stroke:none" d="M 1.703125 0 L 1.703125 -16.609375 L 4.6875 -16.609375 L 4.6875 -7.390625 L 4.96875 -7.390625 L 8.40625 -11.84375 L 11.421875 -11.84375 L 11.421875 -11.609375 L 7.390625 -6.40625 L 11.875 -0.265625 L 11.875 0 L 8.734375 0 L 4.96875 -5 L 4.6875 -5 L 4.6875 0 Z M 1.703125 0 "/></g></g><g style="fill:#000000;fill-opacity:1;"><g transform="translate(382.370167, 257.067239)"><path style="stroke:none" d="M 5.546875 0.21875 C 4.734375 0.21875 3.988281 0.125 3.3125 -0.0625 C 2.644531 -0.25 2.070312 -0.507812 1.59375 -0.84375 C 1.113281 -1.175781 0.757812 -1.554688 0.53125 -1.984375 L 2.1875 -3.765625 L 2.421875 -3.765625 C 2.816406 -3.234375 3.28125 -2.835938 3.8125 -2.578125 C 4.351562 -2.316406 4.9375 -2.1875 5.5625 -2.1875 C 6.144531 -2.1875 6.582031 -2.285156 6.875 -2.484375 C 7.164062 -2.691406 7.3125 -2.992188 7.3125 -3.390625 C 7.3125 -3.679688 7.207031 -3.929688 7 -4.140625 C 6.789062 -4.347656 6.445312 -4.507812 5.96875 -4.625 L 4.40625 -5 C 3.226562 -5.28125 2.367188 -5.707031 1.828125 -6.28125 C 1.285156 -6.851562 1.015625 -7.582031 1.015625 -8.46875 C 1.015625 -9.207031 1.203125 -9.847656 1.578125 -10.390625 C 1.960938 -10.941406 2.492188 -11.359375 3.171875 -11.640625 C 3.859375 -11.929688 4.65625 -12.078125 5.5625 -12.078125 C 6.632812 -12.078125 7.519531 -11.921875 8.21875 -11.609375 C 8.914062 -11.304688 9.460938 -10.894531 9.859375 -10.375 L 8.265625 -8.65625 L 8.0625 -8.65625 C 7.726562 -9.03125 7.351562 -9.300781 6.9375 -9.46875 C 6.53125 -9.644531 6.070312 -9.734375 5.5625 -9.734375 C 4.382812 -9.734375 3.796875 -9.367188 3.796875 -8.640625 C 3.796875 -8.328125 3.90625 -8.070312 4.125 -7.875 C 4.34375 -7.6875 4.726562 -7.53125 5.28125 -7.40625 L 6.75 -7.09375 C 7.945312 -6.832031 8.820312 -6.414062 9.375 -5.84375 C 9.9375 -5.28125 10.21875 -4.519531 10.21875 -3.5625 C 10.21875 -2.800781 10.03125 -2.132812 9.65625 -1.5625 C 9.28125 -0.988281 8.742188 -0.546875 8.046875 -0.234375 C 7.347656 0.0664062 6.515625 0.21875 5.546875 0.21875 Z M 5.546875 0.21875 "/></g></g><g style="fill:#000000;fill-opacity:1;"><g transform="translate(236.8608, 247.31724)"><path style="stroke:none" d="M 3.328125 0.140625 C 2.835938 0.140625 2.390625 0.0820312 1.984375 -0.03125 C 1.585938 -0.144531 1.242188 -0.300781 0.953125 -0.5 C 0.671875 -0.707031 0.460938 -0.9375 0.328125 -1.1875 L 1.3125 -2.265625 L 1.453125 -2.265625 C 1.679688 -1.941406 1.957031 -1.703125 2.28125 -1.546875 C 2.601562 -1.390625 2.953125 -1.3125 3.328125 -1.3125 C 3.679688 -1.3125 3.945312 -1.375 4.125 -1.5 C 4.300781 -1.625 4.390625 -1.800781 4.390625 -2.03125 C 4.390625 -2.207031 4.320312 -2.359375 4.1875 -2.484375 C 4.0625 -2.609375 3.859375 -2.703125 3.578125 -2.765625 L 2.640625 -3 C 1.929688 -3.164062 1.414062 -3.421875 1.09375 -3.765625 C 0.769531 -4.109375 0.609375 -4.546875 0.609375 -5.078125 C 0.609375 -5.523438 0.71875 -5.910156 0.9375 -6.234375 C 1.164062 -6.554688 1.484375 -6.800781 1.890625 -6.96875 C 2.304688 -7.144531 2.785156 -7.234375 3.328125 -7.234375 C 3.972656 -7.234375 4.503906 -7.140625 4.921875 -6.953125 C 5.347656 -6.773438 5.675781 -6.53125 5.90625 -6.21875 L 4.953125 -5.1875 L 4.828125 -5.1875 C 4.628906 -5.414062 4.40625 -5.578125 4.15625 -5.671875 C 3.914062 -5.773438 3.640625 -5.828125 3.328125 -5.828125 C 2.628906 -5.828125 2.28125 -5.609375 2.28125 -5.171875 C 2.28125 -4.992188 2.34375 -4.84375 2.46875 -4.71875 C 2.601562 -4.601562 2.835938 -4.507812 3.171875 -4.4375 L 4.046875 -4.25 C 4.765625 -4.09375 5.289062 -3.84375 5.625 -3.5 C 5.957031 -3.164062 6.125 -2.707031 6.125 -2.125 C 6.125 -1.675781 6.007812 -1.28125 5.78125 -0.9375 C 5.5625 -0.59375 5.238281 -0.328125 4.8125 -0.140625 C 4.394531 0.046875 3.898438 0.140625 3.328125 0.140625 Z M 3.328125 0.140625 "/></g></g><g style="fill:#000000;fill-opacity:1;"><g transform="translate(243.407541, 247.31724)"><path style="stroke:none" d="M 4.90625 -1.6875 L 5.359375 -0.375 C 5.171875 -0.21875 4.929688 -0.09375 4.640625 0 C 4.347656 0.09375 4.015625 0.140625 3.640625 0.140625 C 2.867188 0.140625 2.285156 -0.0664062 1.890625 -0.484375 C 1.492188 -0.910156 1.296875 -1.519531 1.296875 -2.3125 L 1.296875 -5.6875 L 0.21875 -5.6875 L 0.21875 -7.109375 L 1.296875 -7.109375 L 1.296875 -8.5 L 3.078125 -8.78125 L 3.078125 -7.109375 L 5.09375 -7.109375 L 5.09375 -5.6875 L 3.078125 -5.6875 L 3.078125 -2.453125 C 3.078125 -2.097656 3.148438 -1.835938 3.296875 -1.671875 C 3.441406 -1.515625 3.65625 -1.4375 3.9375 -1.4375 C 4.25 -1.4375 4.523438 -1.519531 4.765625 -1.6875 Z M 4.90625 -1.6875 "/></g></g><path style=" stroke:none;fill-rule:nonzero;fill:#e96474;fill-opacity:1;" d="M 156.039062 180.222656 C 165.214844 177.015625 172.039062 179.300781 181.363281 182.03125 C 190.691406 184.761719 198.773438 192.664062 200.117188 202.335938 C 201.316406 210.925781 197.34375 219.34375 192.917969 226.789062 C 188.492188 234.234375 183.390625 241.617188 181.953125 250.167969 C 181.003906 255.824219 181.40625 262.445312 177.167969 266.292969 C 173.011719 270.058594 166.417969 269.074219 161.347656 266.691406 C 156.277344 264.3125 151.613281 260.746094 146.09375 259.835938 C 141.113281 259.015625 135.917969 260.457031 131.003906 259.296875 C 122.507812 257.289062 117.34375 248.230469 109.15625 245.1875 C 104.199219 243.34375 98.609375 243.890625 93.464844 242.890625 C 91.382812 242.488281 90.726562 239.84375 92.351562 238.472656 C 101.691406 230.597656 113.089844 225.304688 122.546875 217.488281 C 133.085938 208.769531 140.859375 197.21875 148.484375 185.839844 C 148.484375 185.839844 151.398438 181.84375 156.035156 180.222656 Z M 156.039062 180.222656 "/><g clip-rule="nonzero" clip-path="url(#d1667493f2)"><path style=" stroke:none;fill-rule:nonzero;fill:#e96474;fill-opacity:1;" d="M 156.222656 180.898438 C 161.324219 179.144531 166.492188 179.027344 171.738281 180.144531 C 174.441406 180.71875 177.09375 181.507812 179.742188 182.285156 C 182.015625 182.957031 184.214844 183.691406 186.3125 184.816406 C 190.226562 186.917969 193.679688 189.957031 196.105469 193.703125 C 198.703125 197.726562 199.902344 202.371094 199.578125 207.160156 C 198.808594 218.375 191.191406 227.476562 186.089844 236.988281 C 183.640625 241.558594 181.734375 246.351562 181.050781 251.523438 C 180.476562 255.847656 180.558594 260.921875 177.808594 264.558594 C 174.917969 268.382812 169.835938 268.609375 165.5625 267.484375 C 160.675781 266.191406 156.566406 263.070312 152.007812 261.003906 C 149.667969 259.945312 147.246094 259.179688 144.679688 258.953125 C 141.820312 258.703125 138.953125 259.039062 136.089844 259.0625 C 133.523438 259.085938 130.996094 258.792969 128.625 257.765625 C 126.660156 256.917969 124.863281 255.703125 123.1875 254.386719 C 119.777344 251.71875 116.71875 248.582031 113.011719 246.308594 C 111.011719 245.078125 108.84375 244.195312 106.546875 243.703125 C 103.878906 243.136719 101.148438 243.003906 98.441406 242.792969 C 97.019531 242.683594 95.601562 242.554688 94.195312 242.308594 C 93.253906 242.144531 92.382812 241.832031 92.175781 240.773438 C 91.976562 239.742188 92.648438 239.125 93.375 238.527344 C 94.453125 237.636719 95.558594 236.78125 96.683594 235.949219 C 101.035156 232.738281 105.644531 229.914062 110.207031 227.015625 C 114.738281 224.136719 119.230469 221.171875 123.359375 217.722656 C 127.480469 214.273438 131.203125 210.363281 134.636719 206.230469 C 138.039062 202.128906 141.171875 197.808594 144.199219 193.421875 C 145.722656 191.214844 147.21875 188.988281 148.714844 186.757812 C 148.839844 186.566406 148.960938 186.375 149.09375 186.191406 C 149.109375 186.167969 149.164062 186.089844 149.101562 186.179688 C 149.027344 186.277344 149.160156 186.105469 149.183594 186.078125 C 149.261719 185.980469 149.34375 185.882812 149.429688 185.785156 C 149.867188 185.269531 150.335938 184.78125 150.828125 184.316406 C 152.390625 182.84375 154.207031 181.628906 156.230469 180.902344 C 157.070312 180.597656 156.707031 179.238281 155.855469 179.546875 C 152.773438 180.65625 149.824219 182.800781 147.886719 185.484375 C 146.265625 187.730469 144.796875 190.09375 143.226562 192.378906 C 141.65625 194.664062 140.054688 196.933594 138.402344 199.164062 C 135.070312 203.660156 131.507812 208 127.558594 211.964844 C 123.566406 215.96875 119.152344 219.4375 114.464844 222.582031 C 109.78125 225.726562 104.925781 228.605469 100.242188 231.75 C 97.921875 233.308594 95.640625 234.9375 93.449219 236.679688 C 92.566406 237.382812 91.488281 238.054688 91.019531 239.128906 C 90.675781 239.921875 90.664062 240.824219 90.984375 241.625 C 91.886719 243.898438 94.71875 243.855469 96.769531 244.058594 C 99.632812 244.34375 102.527344 244.398438 105.363281 244.90625 C 107.886719 245.359375 110.222656 246.234375 112.40625 247.585938 C 114.324219 248.773438 116.074219 250.210938 117.789062 251.679688 C 121.15625 254.554688 124.496094 257.648438 128.667969 259.296875 C 134.039062 261.417969 139.703125 259.769531 145.253906 260.421875 C 150.746094 261.070312 155.347656 264.503906 160.175781 266.902344 C 164.269531 268.933594 169.21875 270.355469 173.746094 268.992188 C 175.910156 268.339844 177.773438 267.011719 179.101562 265.171875 C 180.410156 263.363281 181.085938 261.164062 181.496094 258.988281 C 181.933594 256.671875 182.105469 254.320312 182.398438 251.984375 C 182.738281 249.296875 183.386719 246.679688 184.332031 244.144531 C 188.296875 233.503906 196.371094 224.933594 199.695312 213.984375 C 201.230469 208.917969 201.605469 203.429688 199.902344 198.351562 C 198.453125 194.023438 195.714844 190.191406 192.28125 187.226562 C 190.523438 185.710938 188.589844 184.398438 186.527344 183.34375 C 184.339844 182.226562 182.046875 181.5 179.699219 180.8125 C 174.550781 179.296875 169.273438 177.75 163.851562 177.980469 C 161.121094 178.097656 158.441406 178.660156 155.859375 179.546875 C 155.011719 179.839844 155.378906 181.199219 156.230469 180.902344 Z M 156.222656 180.898438 "/></g><path style=" stroke:none;fill-rule:nonzero;fill:#ffa59b;fill-opacity:1;" d="M 159.828125 219.867188 C 156.550781 224.539062 151.945312 228.578125 150.664062 234.378906 C 150.074219 237.046875 150.367188 239.707031 151.539062 242.171875 C 152.660156 244.527344 154.453125 246.515625 156.324219 248.292969 C 156.386719 247.800781 156.449219 247.308594 156.511719 246.820312 C 155.125 247.511719 153.804688 248.324219 152.570312 249.265625 C 151.496094 250.085938 150.003906 251.070312 149.464844 252.363281 C 148.9375 253.625 149.734375 254.785156 151.007812 255.03125 C 151.992188 255.21875 152.984375 254.914062 153.832031 254.417969 C 155.46875 253.457031 156.800781 251.832031 157.734375 250.191406 C 158.066406 249.605469 158.453125 248.914062 158.480469 248.222656 C 158.519531 247.183594 157.664062 246.914062 156.792969 247 C 153.941406 247.289062 152.320312 249.882812 151.570312 252.414062 C 151.371094 253.089844 152.042969 253.78125 152.71875 253.570312 C 154.964844 252.867188 156.671875 251.214844 157.511719 249.015625 C 157.78125 248.304688 156.992188 247.71875 156.363281 247.859375 C 153.855469 248.433594 151.886719 250.226562 150.929688 252.601562 C 150.628906 253.347656 151.46875 253.84375 152.078125 253.757812 C 154.417969 253.421875 156.289062 251.78125 157.15625 249.609375 C 157.605469 248.492188 155.800781 248.003906 155.359375 249.113281 C 154.722656 250.703125 153.234375 251.710938 151.582031 251.949219 L 152.730469 253.101562 C 153.441406 251.332031 155.03125 250.085938 156.859375 249.667969 C 156.480469 249.285156 156.097656 248.898438 155.714844 248.515625 C 155.117188 250.078125 153.804688 251.265625 152.222656 251.757812 C 152.605469 252.144531 152.988281 252.527344 153.371094 252.914062 C 153.664062 251.914062 154.074219 250.90625 154.757812 250.105469 C 155.089844 249.71875 155.480469 249.375 155.9375 249.148438 C 156.101562 249.070312 156.269531 249.007812 156.445312 248.957031 C 156.640625 248.902344 157.054688 248.9375 157.214844 248.847656 C 156.796875 248.019531 156.601562 247.789062 156.617188 248.15625 C 156.644531 248.015625 156.644531 247.996094 156.625 248.109375 C 156.589844 248.171875 156.578125 248.292969 156.554688 248.363281 C 156.472656 248.613281 156.339844 248.851562 156.195312 249.117188 C 155.828125 249.785156 155.390625 250.421875 154.894531 251.003906 C 154.367188 251.625 153.785156 252.226562 153.097656 252.667969 C 152.777344 252.878906 152.4375 253.066406 152.0625 253.15625 C 151.871094 253.203125 151.253906 253.332031 151.140625 253.132812 C 150.933594 252.75 153.6875 250.75 153.949219 250.558594 C 155.058594 249.75 156.230469 249.046875 157.457031 248.4375 C 157.988281 248.171875 158.058594 247.359375 157.644531 246.964844 C 155.875 245.289062 154.207031 243.453125 153.152344 241.226562 C 152.078125 238.96875 151.980469 236.484375 152.660156 234.09375 C 154.144531 228.875 158.417969 225.125 161.441406 220.8125 C 162.132812 219.824219 160.515625 218.886719 159.828125 219.867188 Z M 159.828125 219.867188 "/><path style=" stroke:none;fill-rule:nonzero;fill:#ffa59b;fill-opacity:1;" d="M 187.691406 215.070312 C 187.523438 219.902344 185.402344 224.351562 182.886719 228.375 C 180.226562 232.628906 177.160156 236.597656 174.753906 241.015625 C 174.167969 242.097656 173.585938 243.199219 173.074219 244.324219 C 172.605469 245.363281 172.542969 246.289062 172.792969 247.398438 C 173.261719 249.523438 174.316406 251.511719 175.753906 253.136719 C 176.367188 253.828125 177.238281 254.1875 178.101562 253.671875 C 178.914062 253.1875 179.027344 252.152344 179.097656 251.292969 C 179.257812 249.3125 178.574219 247.277344 177.292969 245.773438 C 176.632812 245 175.703125 244.234375 174.632812 244.253906 C 173.511719 244.277344 172.871094 245.277344 172.972656 246.332031 C 173.210938 248.800781 174.621094 251.265625 176.109375 253.175781 C 176.671875 253.894531 177.625 253.214844 177.703125 252.511719 C 177.972656 250.074219 176.785156 247.847656 175.597656 245.808594 C 175.0625 244.886719 173.628906 245.5 173.894531 246.53125 C 174.269531 248 174.878906 249.386719 175.722656 250.644531 C 176.222656 251.394531 177.460938 251.144531 177.460938 250.171875 C 177.460938 248.292969 176.722656 246.523438 175.378906 245.207031 C 174.519531 244.367188 173.199219 245.691406 174.0625 246.535156 C 175.058594 247.511719 175.59375 248.773438 175.59375 250.171875 C 176.171875 250.015625 176.75 249.855469 177.328125 249.699219 C 176.570312 248.5625 176.027344 247.359375 175.691406 246.03125 C 175.121094 246.273438 174.554688 246.511719 173.984375 246.753906 C 175.015625 248.53125 176.070312 250.386719 175.835938 252.511719 C 176.363281 252.292969 176.898438 252.070312 177.425781 251.851562 C 176.289062 250.390625 175.457031 248.695312 174.984375 246.90625 C 174.9375 246.738281 174.886719 246.566406 174.859375 246.394531 L 174.820312 246.222656 C 174.859375 245.980469 174.828125 245.949219 174.722656 246.125 C 174.976562 246.125 175.242188 246.382812 175.417969 246.53125 C 176.011719 247.042969 176.472656 247.71875 176.78125 248.441406 C 177.074219 249.121094 177.230469 249.875 177.25 250.613281 C 177.257812 250.984375 177.238281 251.355469 177.171875 251.71875 C 177.148438 251.851562 177.082031 252.019531 177.070312 252.160156 C 177.125 252.042969 177.210938 252.015625 177.324219 252.085938 C 177.210938 251.964844 177.097656 251.839844 176.988281 251.714844 C 175.886719 250.445312 175.09375 248.898438 174.675781 247.269531 C 174.429688 246.308594 174.488281 245.675781 174.914062 244.789062 C 175.355469 243.878906 175.816406 242.976562 176.296875 242.085938 C 177.242188 240.34375 178.269531 238.648438 179.359375 236.992188 C 181.550781 233.664062 183.953125 230.46875 185.886719 226.972656 C 187.914062 223.304688 189.40625 219.300781 189.554688 215.070312 C 189.597656 213.863281 187.730469 213.863281 187.691406 215.070312 Z M 187.691406 215.070312 "/><path style=" stroke:none;fill-rule:nonzero;fill:#ffcfca;fill-opacity:1;" d="M 174.929688 223.507812 C 174.929688 223.507812 177.425781 225.835938 182.199219 225.339844 C 189.765625 224.554688 191.203125 219.730469 191.203125 219.730469 C 191.203125 219.730469 197.378906 221.769531 200.746094 217.347656 C 204.117188 212.929688 202.660156 207.945312 202.660156 207.945312 C 205.214844 206.011719 206.78125 202.820312 206.757812 199.605469 C 206.734375 196.386719 205.121094 193.222656 202.542969 191.320312 C 202.617188 186.296875 197.835938 181.757812 192.855469 182.113281 C 191.929688 177.894531 188.824219 174.222656 184.828125 172.625 C 180.835938 171.03125 176.070312 171.554688 172.515625 173.984375 C 171.042969 172.769531 169.9375 171.765625 166.984375 171.84375 C 162.191406 171.972656 160.25 175.308594 160.25 175.308594 C 156.265625 173.699219 151.496094 174.203125 147.933594 176.617188 C 144.367188 179.03125 142.113281 183.285156 142.101562 187.605469 C 137.15625 188.320312 133.445312 193.78125 134.582031 198.671875 C 132.460938 201.082031 131.554688 204.519531 132.214844 207.664062 C 132.871094 210.8125 135.078125 213.59375 137.980469 214.941406 C 137.980469 214.941406 137.613281 220.121094 141.84375 223.71875 C 146.070312 227.316406 151.667969 224.007812 151.667969 224.007812 C 151.667969 224.007812 156.207031 228.636719 161.65625 227.5625 C 166.363281 226.636719 168.371094 224.21875 168.371094 224.21875 C 168.371094 224.21875 171.113281 225.832031 174.929688 223.507812 Z M 174.929688 223.507812 "/><path style=" stroke:none;fill-rule:nonzero;fill:#ffa59b;fill-opacity:1;" d="M 144.730469 196.90625 C 144.613281 195.675781 144.890625 194.496094 145.753906 193.574219 C 146.773438 192.488281 148.078125 192.144531 149.527344 192.253906 C 150 192.289062 150.5 191.796875 150.457031 191.316406 C 150.34375 189.992188 150.613281 188.671875 151.542969 187.699219 C 152.550781 186.644531 153.996094 185.941406 155.480469 186.148438 C 155.980469 186.21875 156.480469 186.027344 156.628906 185.496094 C 156.75 185.054688 156.480469 184.410156 155.976562 184.339844 C 153.859375 184.042969 151.851562 184.75 150.332031 186.265625 C 149 187.59375 148.433594 189.441406 148.59375 191.320312 C 148.90625 191.007812 149.214844 190.695312 149.527344 190.382812 C 147.617188 190.238281 145.769531 190.832031 144.4375 192.25 C 143.253906 193.507812 142.703125 195.191406 142.863281 196.90625 C 142.914062 197.410156 143.257812 197.84375 143.796875 197.84375 C 144.265625 197.84375 144.777344 197.414062 144.730469 196.90625 Z M 144.730469 196.90625 "/><path style=" stroke:none;fill-rule:nonzero;fill:#ffa59b;fill-opacity:1;" d="M 146.652344 216.066406 C 147.863281 217.855469 149.425781 219.488281 151.40625 220.40625 C 153.566406 221.417969 155.980469 221.554688 158.183594 220.589844 C 158.644531 220.386719 158.75 219.707031 158.519531 219.308594 C 158.238281 218.828125 157.707031 218.769531 157.242188 218.972656 C 153.746094 220.503906 150.160156 217.925781 148.265625 215.121094 C 147.59375 214.125 145.976562 215.0625 146.652344 216.066406 Z M 146.652344 216.066406 "/><path style=" stroke:none;fill-rule:nonzero;fill:#ffa59b;fill-opacity:1;" d="M 185.34375 182.617188 C 185.628906 182.722656 185.910156 182.828125 186.1875 182.945312 C 186.347656 183.011719 185.992188 182.855469 186.273438 182.980469 C 186.328125 183.007812 186.386719 183.03125 186.445312 183.058594 C 186.589844 183.125 186.730469 183.191406 186.875 183.261719 C 187.40625 183.53125 187.925781 183.839844 188.398438 184.207031 C 188.324219 184.148438 188.359375 184.179688 188.414062 184.222656 C 188.46875 184.265625 188.523438 184.3125 188.578125 184.359375 C 188.675781 184.445312 188.769531 184.53125 188.863281 184.621094 C 189.058594 184.8125 189.246094 185.011719 189.417969 185.222656 C 189.460938 185.273438 189.539062 185.378906 189.460938 185.273438 C 189.503906 185.332031 189.542969 185.386719 189.585938 185.445312 C 189.65625 185.550781 189.726562 185.660156 189.792969 185.773438 C 189.867188 185.894531 189.933594 186.019531 190 186.148438 C 190.023438 186.203125 190.050781 186.253906 190.074219 186.304688 C 190.191406 186.558594 190.011719 186.136719 190.113281 186.398438 C 190.289062 186.851562 190.746094 187.222656 191.257812 187.050781 C 191.699219 186.910156 192.101562 186.386719 191.910156 185.898438 C 191.429688 184.664062 190.632812 183.601562 189.59375 182.785156 C 188.464844 181.894531 187.183594 181.292969 185.835938 180.808594 C 185.378906 180.640625 184.796875 180.996094 184.691406 181.460938 C 184.570312 181.988281 184.847656 182.4375 185.339844 182.617188 Z M 185.34375 182.617188 "/><path style=" stroke:none;fill-rule:nonzero;fill:#ffa59b;fill-opacity:1;" d="M 156.179688 201.324219 C 156.179688 201.324219 155.578125 199.84375 158.34375 199.019531 C 161.113281 198.195312 164.472656 198.335938 163.78125 200.703125 C 163.085938 203.0625 156.03125 203.84375 156.179688 201.324219 Z M 156.179688 201.324219 "/><path style=" stroke:none;fill-rule:nonzero;fill:#ffa59b;fill-opacity:1;" d="M 184.449219 195.375 C 184.449219 195.375 183.871094 193.886719 186.652344 193.109375 C 189.433594 192.332031 192.789062 192.53125 192.058594 194.882812 C 191.328125 197.234375 184.261719 197.894531 184.449219 195.378906 Z M 184.449219 195.375 "/><path style=" stroke:none;fill-rule:nonzero;fill:#ffffff;fill-opacity:1;" d="M 147.683594 187.546875 C 147.359375 188.078125 145.210938 189.335938 144.539062 186.101562 C 143.871094 182.871094 147.632812 177.335938 151.976562 177.324219 C 156.320312 177.308594 152.1875 180.847656 150.46875 182.566406 C 148.746094 184.285156 148.457031 186.28125 147.683594 187.546875 Z M 147.683594 187.546875 "/><path style=" stroke:none;fill-rule:nonzero;fill:#ffffff;fill-opacity:1;" d="M 182.09375 175.28125 C 181.253906 173.929688 178.523438 174.132812 177.023438 174.535156 C 176.855469 174.578125 176.679688 174.636719 176.574219 174.773438 C 176.433594 174.957031 176.46875 175.234375 176.601562 175.425781 C 176.730469 175.613281 176.941406 175.738281 177.148438 175.839844 C 178.613281 176.570312 180.382812 176.664062 181.917969 176.089844 C 182.097656 176.023438 182.304688 175.910156 182.320312 175.714844 C 182.324219 175.617188 182.28125 175.523438 182.226562 175.445312 C 181.914062 174.972656 181.253906 174.769531 180.734375 174.988281 "/><path style=" stroke:none;fill-rule:nonzero;fill:#ffffff;fill-opacity:1;" d="M 182.898438 174.808594 C 182.242188 173.789062 181.097656 173.429688 179.953125 173.324219 C 178.921875 173.230469 177.832031 173.355469 176.835938 173.617188 C 176.414062 173.726562 176.011719 173.921875 175.769531 174.300781 C 175.492188 174.742188 175.496094 175.296875 175.722656 175.757812 C 176.074219 176.472656 176.917969 176.804688 177.625 177.046875 C 179.007812 177.515625 180.59375 177.523438 181.980469 177.058594 C 182.410156 176.917969 182.839844 176.734375 183.082031 176.320312 C 183.410156 175.757812 183.207031 175.109375 182.792969 174.660156 C 182.230469 174.050781 181.269531 173.789062 180.484375 174.085938 C 180.03125 174.253906 179.671875 174.726562 179.835938 175.238281 C 179.980469 175.6875 180.492188 176.078125 180.980469 175.894531 C 181.03125 175.875 181.078125 175.863281 181.128906 175.84375 C 181.195312 175.816406 181.265625 175.855469 181.105469 175.84375 C 181.140625 175.84375 181.1875 175.832031 181.21875 175.84375 C 181.347656 175.886719 181.066406 175.792969 181.199219 175.835938 C 181.273438 175.859375 181.453125 175.945312 181.300781 175.855469 C 181.347656 175.882812 181.390625 175.90625 181.433594 175.933594 C 181.277344 175.835938 181.464844 175.949219 181.449219 175.960938 L 181.476562 175.988281 L 181.425781 175.921875 C 181.355469 175.480469 181.425781 175.410156 181.652344 175.183594 C 181.625 175.210938 181.480469 175.269531 181.667969 175.1875 C 181.609375 175.214844 181.542969 175.234375 181.484375 175.253906 C 181.25 175.332031 181.011719 175.394531 180.773438 175.441406 C 180.707031 175.453125 180.644531 175.46875 180.578125 175.476562 C 180.417969 175.507812 180.699219 175.464844 180.535156 175.484375 C 180.421875 175.5 180.304688 175.507812 180.191406 175.515625 C 179.929688 175.53125 179.667969 175.53125 179.40625 175.511719 C 179.339844 175.507812 179.277344 175.503906 179.210938 175.496094 C 179.210938 175.496094 179.050781 175.476562 179.140625 175.488281 C 179.242188 175.503906 179.039062 175.472656 179.019531 175.46875 C 178.972656 175.460938 178.925781 175.453125 178.875 175.441406 C 178.621094 175.390625 178.367188 175.324219 178.117188 175.238281 C 178.054688 175.21875 177.996094 175.195312 177.933594 175.171875 C 177.921875 175.167969 177.769531 175.109375 177.882812 175.15625 C 177.78125 175.113281 177.679688 175.0625 177.578125 175.011719 C 177.488281 174.964844 177.394531 174.921875 177.3125 174.855469 C 177.4375 174.957031 177.328125 174.855469 177.308594 174.832031 C 177.359375 174.890625 177.394531 174.929688 177.40625 175.011719 C 177.425781 175.140625 177.253906 175.515625 177.101562 175.492188 C 177.160156 175.5 177.316406 175.425781 177.382812 175.410156 C 177.546875 175.367188 177.714844 175.332031 177.882812 175.300781 C 177.957031 175.285156 178.039062 175.273438 178.117188 175.261719 C 178.203125 175.246094 178.375 175.226562 178.179688 175.246094 C 178.375 175.222656 178.570312 175.203125 178.761719 175.191406 C 179.128906 175.167969 179.503906 175.164062 179.871094 175.195312 C 179.921875 175.199219 179.96875 175.203125 180.019531 175.207031 C 180.25 175.226562 179.886719 175.179688 180.019531 175.207031 C 180.121094 175.230469 180.226562 175.242188 180.328125 175.265625 C 180.417969 175.285156 180.503906 175.308594 180.59375 175.335938 C 180.636719 175.347656 180.675781 175.359375 180.71875 175.375 C 180.75 175.386719 180.929688 175.4375 180.789062 175.398438 C 180.675781 175.367188 180.765625 175.386719 180.796875 175.402344 C 180.84375 175.425781 180.890625 175.445312 180.9375 175.472656 C 180.957031 175.484375 181.175781 175.605469 181.167969 175.621094 C 181.164062 175.632812 180.996094 175.460938 181.121094 175.585938 C 181.148438 175.613281 181.179688 175.640625 181.207031 175.667969 C 181.199219 175.660156 181.285156 175.753906 181.285156 175.753906 C 181.273438 175.761719 181.152344 175.5625 181.28125 175.753906 C 181.542969 176.164062 182.117188 176.375 182.554688 176.09375 C 182.964844 175.828125 183.171875 175.25 182.890625 174.808594 Z M 182.898438 174.808594 "/><path style=" stroke:none;fill-rule:nonzero;fill:#ffbdc5;fill-opacity:1;" d="M 197.601562 204.609375 C 197.144531 205.191406 196.511719 206.769531 198.703125 207.367188 C 200.894531 207.964844 203.71875 205.617188 204.6875 201.941406 C 205.652344 198.261719 203.683594 197.527344 202.175781 197.683594 C 200.671875 197.839844 199.445312 202.25 197.601562 204.609375 Z M 197.601562 204.609375 "/><path style=" stroke:none;fill-rule:nonzero;fill:#ffa59b;fill-opacity:1;" d="M 168.15625 178.085938 C 168.355469 178.128906 168.550781 178.183594 168.746094 178.253906 C 168.792969 178.269531 168.839844 178.289062 168.886719 178.308594 C 169.046875 178.367188 168.6875 178.214844 168.851562 178.292969 C 168.9375 178.332031 169.023438 178.371094 169.105469 178.414062 C 169.277344 178.503906 169.445312 178.609375 169.605469 178.71875 C 169.648438 178.746094 169.6875 178.777344 169.730469 178.808594 C 169.886719 178.914062 169.554688 178.664062 169.703125 178.785156 C 169.78125 178.851562 169.859375 178.914062 169.9375 178.984375 C 170.082031 179.117188 170.214844 179.257812 170.34375 179.40625 C 170.378906 179.445312 170.410156 179.484375 170.441406 179.523438 C 170.535156 179.644531 170.433594 179.53125 170.40625 179.476562 C 170.453125 179.5625 170.527344 179.644531 170.582031 179.726562 C 170.691406 179.898438 170.792969 180.078125 170.878906 180.261719 C 170.902344 180.308594 170.917969 180.359375 170.945312 180.402344 L 170.890625 180.273438 C 170.902344 180.304688 170.914062 180.335938 170.929688 180.367188 C 170.964844 180.460938 170.996094 180.558594 171.027344 180.65625 C 171.175781 181.125 171.683594 181.472656 172.175781 181.3125 C 172.667969 181.152344 172.984375 180.660156 172.828125 180.15625 C 172.230469 178.25 170.609375 176.695312 168.652344 176.277344 C 168.175781 176.171875 167.621094 176.417969 167.503906 176.929688 C 167.398438 177.402344 167.644531 177.972656 168.15625 178.082031 Z M 168.15625 178.085938 "/><path style=" stroke:none;fill-rule:nonzero;fill:#ffa59b;fill-opacity:1;" d="M 172.449219 182.101562 C 172.503906 182.023438 172.558594 181.949219 172.617188 181.871094 L 172.46875 182.0625 C 172.710938 181.75 172.988281 181.472656 173.300781 181.230469 C 173.238281 181.28125 173.171875 181.332031 173.109375 181.378906 C 173.421875 181.140625 173.761719 180.941406 174.121094 180.789062 L 173.898438 180.882812 C 174.085938 180.804688 174.277344 180.742188 174.472656 180.6875 C 174.941406 180.5625 175.277344 180.015625 175.125 179.535156 C 174.96875 179.054688 174.480469 178.742188 173.976562 178.878906 C 172.6875 179.230469 171.585938 180.054688 170.839844 181.15625 C 170.707031 181.351562 170.683594 181.660156 170.742188 181.878906 C 170.804688 182.097656 170.96875 182.332031 171.171875 182.441406 C 171.644531 182.691406 172.15625 182.539062 172.445312 182.105469 Z M 172.449219 182.101562 "/><path style=" stroke:none;fill-rule:nonzero;fill:#ffbdc5;fill-opacity:1;" d="M 142.972656 223.691406 C 141.574219 223.105469 137.871094 219.820312 140.96875 215.59375 C 143.429688 212.230469 152.28125 214.734375 153.359375 216.367188 C 153.359375 216.367188 155.949219 216.351562 158.203125 218.371094 C 158.203125 218.371094 162.242188 214.566406 166.933594 215.742188 C 171.625 216.917969 172.085938 218.742188 173.507812 218.816406 C 174.929688 218.894531 175.824219 216.199219 179.378906 216.125 C 182.929688 216.050781 184.285156 218.941406 184.285156 218.941406 C 184.285156 218.941406 188.53125 217.453125 189.109375 214.949219 C 189.683594 212.449219 193.511719 211.085938 195.730469 212.753906 C 197.949219 214.425781 198.300781 218.113281 195.648438 219.398438 C 192.992188 220.6875 191.289062 219.574219 191.097656 219.890625 C 190.902344 220.207031 188.851562 224.109375 184.484375 225.070312 C 178.558594 226.378906 175.875 223.71875 175.875 223.71875 C 175.875 223.71875 172.359375 225.507812 168.734375 224.179688 C 168.734375 224.179688 168.210938 224.292969 166.878906 225.113281 C 163.96875 226.898438 159.394531 227.726562 156.304688 226.253906 C 153.222656 224.789062 152.679688 223.820312 151.957031 223.378906 C 151.726562 223.238281 151.425781 223.078125 151.199219 223.21875 C 149.996094 223.953125 147.480469 225.578125 142.976562 223.691406 Z M 142.972656 223.691406 "/><path style=" stroke:none;fill-rule:nonzero;fill:#ffa59b;fill-opacity:1;" d="M 137.210938 209.746094 C 138.257812 211.039062 139.496094 212.0625 141.042969 212.675781 C 142.59375 213.289062 144.386719 213.34375 146.039062 212.949219 C 147.207031 212.667969 146.714844 210.859375 145.546875 211.140625 C 144.160156 211.472656 142.851562 211.378906 141.539062 210.867188 C 141.476562 210.84375 141.425781 210.820312 141.519531 210.859375 C 141.46875 210.835938 141.417969 210.8125 141.367188 210.792969 C 141.261719 210.742188 141.15625 210.691406 141.054688 210.636719 C 140.746094 210.476562 140.449219 210.296875 140.171875 210.089844 C 139.550781 209.621094 139.023438 209.023438 138.53125 208.417969 C 138.214844 208.027344 137.542969 208.085938 137.210938 208.417969 C 136.824219 208.808594 136.894531 209.351562 137.210938 209.746094 Z M 137.210938 209.746094 "/><path style=" stroke:none;fill-rule:nonzero;fill:#ffa59b;fill-opacity:1;" d="M 197.695312 196.800781 C 198.664062 200.046875 197.125 203.738281 194.15625 205.339844 C 193.101562 205.910156 194.039062 207.527344 195.097656 206.957031 C 198.78125 204.972656 200.691406 200.320312 199.492188 196.300781 C 199.152344 195.148438 197.351562 195.640625 197.695312 196.800781 Z M 197.695312 196.800781 "/><path style=" stroke:none;fill-rule:nonzero;fill:#ffd97b;fill-opacity:1;" d="M 197.667969 165.71875 C 197.78125 166.535156 197.882812 167.308594 197.988281 168.199219 C 198.09375 169.078125 198.191406 169.957031 198.277344 170.835938 C 198.328125 171.324219 198.671875 171.796875 199.210938 171.773438 C 199.671875 171.75 200.195312 171.359375 200.144531 170.835938 C 199.953125 168.957031 199.726562 167.085938 199.464844 165.21875 C 199.398438 164.730469 198.753906 164.421875 198.320312 164.566406 C 197.789062 164.738281 197.59375 165.195312 197.667969 165.71875 Z M 197.667969 165.71875 "/><path style=" stroke:none;fill-rule:nonzero;fill:#ffd97b;fill-opacity:1;" d="M 196.496094 169.546875 C 196.9375 169.457031 197.382812 169.371094 197.828125 169.300781 C 198.300781 169.222656 198.503906 169.195312 198.96875 169.144531 C 199.84375 169.050781 200.722656 169 201.601562 168.988281 C 202.089844 168.984375 202.558594 168.5625 202.535156 168.050781 C 202.511719 167.546875 202.125 167.109375 201.601562 167.113281 C 199.71875 167.132812 197.839844 167.351562 196 167.742188 C 195.519531 167.84375 195.199219 168.433594 195.347656 168.894531 C 195.511719 169.402344 195.984375 169.65625 196.496094 169.546875 Z M 196.496094 169.546875 "/><path style=" stroke:none;fill-rule:nonzero;fill:#ffa59b;fill-opacity:1;" d="M 201.183594 190.867188 C 200.902344 191.792969 201.652344 192.753906 202.625 192.738281 C 203.664062 192.722656 204.417969 191.691406 205.066406 191.003906 C 206.582031 189.390625 207.988281 187.667969 209.28125 185.871094 C 211.851562 182.296875 213.929688 178.382812 215.496094 174.265625 C 216.394531 171.90625 217.105469 169.476562 217.636719 167.007812 C 217.890625 165.832031 216.089844 165.328125 215.839844 166.511719 C 214.835938 171.167969 213.179688 175.65625 210.886719 179.828125 C 209.753906 181.890625 208.476562 183.871094 207.0625 185.75 C 206.34375 186.710938 205.578125 187.640625 204.785156 188.542969 C 204.386719 188.992188 203.984375 189.429688 203.570312 189.863281 C 203.394531 190.050781 203.21875 190.234375 203.039062 190.417969 C 202.929688 190.53125 202.816406 190.644531 202.703125 190.753906 C 202.382812 190.914062 202.476562 191.117188 202.984375 191.363281 C 203.335938 190.207031 201.539062 189.714844 201.183594 190.867188 Z M 201.183594 190.867188 "/><path style=" stroke:none;fill-rule:nonzero;fill:#ffa59b;fill-opacity:1;" d="M 214.714844 162.921875 C 215.78125 163.410156 216.957031 163.644531 218.128906 163.601562 C 218.507812 163.585938 218.976562 163.464844 219.046875 163.09375 C 219.078125 162.917969 219.003906 162.742188 218.917969 162.589844 C 218.082031 161.070312 216.097656 160.625 214.371094 160.710938 C 214.085938 160.726562 213.785156 160.753906 213.535156 160.898438 C 213.046875 161.175781 212.882812 161.789062 212.761719 162.335938 C 212.519531 163.445312 212.292969 164.679688 212.867188 165.65625 C 213.363281 166.503906 214.324219 166.933594 215.230469 167.300781 C 216.632812 167.875 218.179688 168.4375 219.628906 167.992188 C 221.460938 167.421875 222.457031 165.441406 222.933594 163.570312 C 223.125 162.824219 223.265625 162.035156 223.066406 161.289062 C 222.871094 160.546875 222.25 159.867188 221.480469 159.835938 C 221.347656 159.832031 221.191406 159.839844 221.097656 159.742188 C 221.003906 159.640625 221.023438 159.480469 221.027344 159.34375 C 221.050781 158.75 220.695312 158.15625 220.160156 157.902344 C 219.625 157.644531 218.941406 157.746094 218.5 158.140625 C 218.375 157.496094 217.734375 157.027344 217.082031 157.007812 C 216.429688 156.984375 215.804688 157.359375 215.417969 157.886719 C 214.777344 158.765625 214.824219 160.132812 215.628906 160.867188 "/><g clip-rule="nonzero" clip-path="url(#a51a798589)"><path style=" stroke:none;fill-rule:nonzero;fill:#ffa59b;fill-opacity:1;" d="M 214.246094 163.730469 C 215.570312 164.316406 217.3125 164.832031 218.769531 164.453125 C 219.472656 164.265625 220.019531 163.679688 219.980469 162.917969 C 219.941406 162.238281 219.4375 161.574219 218.949219 161.140625 C 217.976562 160.265625 216.707031 159.898438 215.429688 159.792969 C 214.839844 159.742188 214.183594 159.71875 213.609375 159.871094 C 212.851562 160.070312 212.359375 160.625 212.082031 161.335938 C 211.597656 162.578125 211.328125 164.3125 211.8125 165.589844 C 212.359375 167.015625 213.660156 167.660156 214.984375 168.203125 C 216.460938 168.808594 218.082031 169.347656 219.6875 168.945312 C 220.945312 168.628906 221.941406 167.742188 222.640625 166.675781 C 223.464844 165.417969 224.035156 163.742188 224.09375 162.238281 C 224.128906 161.433594 223.933594 160.640625 223.453125 159.992188 C 223.203125 159.660156 222.898438 159.375 222.53125 159.179688 C 222.375 159.097656 222.199219 159.023438 222.03125 158.980469 C 221.902344 158.949219 221.769531 158.925781 221.636719 158.914062 C 221.457031 158.886719 221.433594 158.890625 221.570312 158.933594 L 221.90625 159.269531 L 221.84375 159.152344 L 221.972656 159.625 C 221.921875 159.136719 221.933594 158.699219 221.722656 158.242188 C 221.507812 157.78125 221.144531 157.382812 220.703125 157.132812 C 219.746094 156.59375 218.667969 156.824219 217.84375 157.480469 C 218.363281 157.617188 218.882812 157.753906 219.402344 157.894531 C 218.871094 155.867188 216.40625 155.613281 215.03125 156.921875 C 213.757812 158.132812 213.726562 160.296875 214.972656 161.53125 C 215.828125 162.382812 217.144531 161.054688 216.292969 160.207031 C 215.835938 159.753906 215.78125 158.980469 216.164062 158.457031 C 216.492188 158.007812 217.40625 157.632812 217.605469 158.390625 C 217.800781 159.136719 218.636719 159.226562 219.164062 158.804688 C 219.398438 158.621094 219.78125 158.679688 219.960938 158.902344 C 220.121094 159.097656 220.085938 159.253906 220.097656 159.488281 C 220.113281 159.820312 220.203125 160.164062 220.445312 160.40625 C 220.824219 160.789062 221.320312 160.628906 221.726562 160.875 C 222.082031 161.09375 222.21875 161.5625 222.234375 161.957031 C 222.277344 162.925781 221.914062 164.035156 221.5 164.902344 C 221.101562 165.730469 220.566406 166.53125 219.730469 166.953125 C 218.679688 167.480469 217.457031 167.132812 216.417969 166.761719 C 215.566406 166.457031 214.414062 166.117188 213.816406 165.386719 C 213.167969 164.589844 213.488281 163.34375 213.703125 162.4375 C 213.785156 162.101562 213.828125 161.734375 214.207031 161.664062 C 214.652344 161.578125 215.195312 161.632812 215.640625 161.6875 C 216.507812 161.800781 217.488281 162.121094 218.007812 162.875 L 218.046875 162.9375 C 218.152344 163.199219 218.238281 163.101562 218.296875 162.648438 C 218.253906 162.621094 218.1875 162.683594 218.136719 162.667969 C 217.875 162.578125 217.449219 162.667969 217.160156 162.640625 C 216.492188 162.574219 215.808594 162.386719 215.191406 162.117188 C 214.730469 161.914062 214.191406 161.980469 213.914062 162.453125 C 213.683594 162.851562 213.785156 163.53125 214.25 163.734375 Z M 214.246094 163.730469 "/></g><path style=" stroke:none;fill-rule:nonzero;fill:#e96474;fill-opacity:1;" d="M 218.191406 160.246094 C 218.195312 160.214844 218.195312 160.1875 218.199219 160.160156 C 218.199219 160.140625 218.21875 159.996094 218.203125 160.125 C 218.1875 160.238281 218.203125 160.132812 218.207031 160.109375 C 218.210938 160.074219 218.21875 160.039062 218.226562 160.003906 C 218.246094 159.882812 218.277344 159.761719 218.3125 159.644531 C 218.347656 159.519531 218.394531 159.398438 218.441406 159.277344 C 218.472656 159.191406 218.378906 159.410156 218.421875 159.324219 C 218.433594 159.292969 218.449219 159.257812 218.464844 159.226562 C 218.492188 159.167969 218.519531 159.109375 218.550781 159.050781 C 218.609375 158.945312 218.671875 158.839844 218.738281 158.734375 C 218.773438 158.683594 218.808594 158.628906 218.847656 158.574219 C 218.859375 158.554688 218.921875 158.476562 218.855469 158.558594 C 218.785156 158.648438 218.863281 158.546875 218.882812 158.527344 C 219.046875 158.328125 219.230469 158.144531 219.429688 157.980469 C 219.714844 157.746094 219.691406 157.226562 219.429688 156.984375 C 219.128906 156.707031 218.742188 156.734375 218.441406 156.984375 C 217.46875 157.789062 216.898438 158.992188 216.792969 160.246094 C 216.757812 160.613281 217.136719 160.964844 217.492188 160.949219 C 217.894531 160.929688 218.15625 160.636719 218.191406 160.246094 Z M 218.191406 160.246094 "/><path style=" stroke:none;fill-rule:nonzero;fill:#e96474;fill-opacity:1;" d="M 220.589844 162.039062 C 220.625 161.9375 220.660156 161.839844 220.703125 161.742188 L 220.632812 161.910156 C 220.789062 161.542969 220.992188 161.195312 221.238281 160.878906 L 221.128906 161.019531 C 221.367188 160.714844 221.640625 160.4375 221.949219 160.199219 L 221.808594 160.308594 C 221.835938 160.289062 221.863281 160.265625 221.890625 160.246094 C 222.042969 160.132812 222.160156 160.011719 222.214844 159.824219 C 222.257812 159.65625 222.238281 159.433594 222.144531 159.28125 C 222.046875 159.132812 221.902344 159 221.726562 158.960938 C 221.546875 158.917969 221.335938 158.917969 221.1875 159.03125 C 220.710938 159.378906 220.316406 159.777344 219.964844 160.253906 C 219.648438 160.679688 219.414062 161.164062 219.238281 161.667969 C 219.121094 162.015625 219.378906 162.449219 219.730469 162.53125 C 220.121094 162.621094 220.460938 162.414062 220.589844 162.039062 Z M 220.589844 162.039062 "/><path style=" stroke:none;fill-rule:nonzero;fill:#e96474;fill-opacity:1;" d="M 213.535156 161.460938 C 214.15625 160.957031 215.210938 160.820312 216.023438 160.8125 C 216.980469 160.804688 217.941406 161.09375 218.65625 161.753906 C 218.953125 162.027344 219.378906 162.464844 219.308594 162.910156 C 219.25 163.292969 218.804688 163.523438 218.460938 163.570312 C 217.902344 163.648438 217.320312 163.425781 216.804688 163.226562 C 216.230469 163.007812 215.671875 162.761719 215.0625 162.648438 C 214.691406 162.582031 214.308594 162.753906 214.203125 163.140625 C 214.109375 163.484375 214.316406 163.9375 214.691406 164.007812 C 215.90625 164.230469 216.964844 164.980469 218.226562 164.984375 C 219.382812 164.992188 220.585938 164.242188 220.699219 163.003906 C 220.8125 161.789062 219.804688 160.738281 218.847656 160.15625 C 217.929688 159.597656 216.851562 159.363281 215.785156 159.414062 C 214.640625 159.464844 213.453125 159.730469 212.546875 160.46875 C 212.25 160.707031 212.300781 161.214844 212.546875 161.460938 C 212.835938 161.753906 213.242188 161.703125 213.535156 161.460938 Z M 213.535156 161.460938 "/><path style=" stroke:none;fill-rule:nonzero;fill:#e96474;fill-opacity:1;" d="M 219.105469 164.238281 C 219.363281 164.488281 219.632812 164.714844 219.96875 164.855469 C 220.34375 165.015625 220.742188 165.027344 221.144531 164.957031 C 221.796875 164.839844 222.347656 164.402344 222.804688 163.945312 C 223.066406 163.6875 223.082031 163.207031 222.804688 162.949219 C 222.527344 162.695312 222.09375 162.671875 221.816406 162.949219 C 221.730469 163.039062 221.640625 163.125 221.546875 163.203125 C 221.515625 163.230469 221.445312 163.316406 221.40625 163.324219 C 221.484375 163.261719 221.496094 163.253906 221.4375 163.296875 C 221.414062 163.316406 221.386719 163.332031 221.363281 163.351562 C 221.273438 163.414062 221.179688 163.460938 221.085938 163.515625 C 221.015625 163.546875 221.03125 163.542969 221.125 163.5 C 221.097656 163.511719 221.070312 163.523438 221.039062 163.53125 C 220.980469 163.550781 220.921875 163.570312 220.863281 163.585938 C 220.832031 163.59375 220.800781 163.597656 220.769531 163.601562 C 220.878906 163.589844 220.894531 163.585938 220.820312 163.59375 C 220.757812 163.597656 220.695312 163.59375 220.636719 163.597656 C 220.488281 163.601562 220.785156 163.636719 220.640625 163.601562 C 220.625 163.597656 220.460938 163.5625 220.464844 163.554688 C 220.5625 163.597656 220.574219 163.601562 220.503906 163.570312 C 220.476562 163.554688 220.449219 163.539062 220.421875 163.523438 C 220.398438 163.507812 220.371094 163.488281 220.34375 163.472656 C 220.285156 163.429688 220.292969 163.4375 220.375 163.496094 C 220.332031 163.488281 220.261719 163.402344 220.230469 163.375 C 220.1875 163.332031 220.140625 163.289062 220.09375 163.242188 C 219.828125 162.988281 219.363281 162.960938 219.105469 163.242188 C 218.855469 163.519531 218.824219 163.964844 219.105469 164.238281 Z M 219.105469 164.238281 "/><path style=" stroke:none;fill-rule:nonzero;fill:#000000;fill-opacity:1;" d="M 167.921875 190.136719 C 167.371094 189.917969 166.734375 190.292969 166.457031 190.816406 C 166.179688 191.339844 166.175781 191.960938 166.195312 192.550781 C 166.214844 193.039062 166.25 193.550781 166.496094 193.972656 C 166.742188 194.390625 167.261719 194.691406 167.71875 194.527344 C 168.363281 194.300781 168.441406 193.429688 168.40625 192.742188 C 168.386719 192.398438 168.367188 192.054688 168.347656 191.710938 C 168.328125 191.300781 168.300781 190.867188 168.085938 190.519531 C 167.867188 190.167969 167.398438 189.941406 167.035156 190.132812 "/><path style=" stroke:none;fill-rule:nonzero;fill:#000000;fill-opacity:1;" d="M 168.300781 189.28125 C 167.640625 189.046875 167.019531 189.140625 166.429688 189.507812 C 165.933594 189.8125 165.597656 190.339844 165.433594 190.886719 C 165.269531 191.433594 165.25 192.050781 165.269531 192.648438 C 165.292969 193.285156 165.390625 193.898438 165.710938 194.457031 C 166.34375 195.578125 167.96875 195.90625 168.820312 194.84375 C 169.488281 194.015625 169.339844 192.855469 169.289062 191.867188 C 169.25 191.175781 169.210938 190.425781 168.761719 189.859375 C 168.285156 189.261719 167.421875 188.917969 166.695312 189.261719 C 166.257812 189.46875 165.957031 189.996094 166.171875 190.476562 C 166.367188 190.914062 166.910156 191.226562 167.378906 191 C 167.457031 190.964844 167.488281 190.984375 167.308594 191 C 167.351562 190.996094 167.421875 191.007812 167.300781 190.988281 C 167.148438 190.96875 167.285156 190.996094 167.324219 191 C 167.417969 191.003906 167.242188 190.988281 167.238281 190.972656 C 167.242188 190.984375 167.34375 191.007812 167.347656 191.027344 L 167.300781 190.996094 C 167.234375 190.957031 167.234375 190.960938 167.300781 191.007812 C 167.320312 191.042969 167.347656 191.101562 167.308594 191.007812 C 167.242188 190.867188 167.335938 191.058594 167.339844 191.070312 C 167.339844 191.058594 167.261719 190.878906 167.324219 191.0625 C 167.335938 191.097656 167.347656 191.136719 167.363281 191.171875 C 167.421875 191.292969 167.34375 191.015625 167.359375 191.148438 C 167.363281 191.1875 167.375 191.226562 167.378906 191.265625 C 167.414062 191.472656 167.421875 191.683594 167.433594 191.890625 C 167.453125 192.28125 167.488281 192.675781 167.488281 193.066406 C 167.488281 193.097656 167.488281 193.125 167.488281 193.15625 C 167.496094 193.277344 167.507812 192.957031 167.488281 193.078125 C 167.480469 193.148438 167.480469 193.21875 167.472656 193.285156 C 167.464844 193.351562 167.453125 193.417969 167.441406 193.484375 C 167.433594 193.511719 167.429688 193.539062 167.421875 193.570312 C 167.390625 193.746094 167.484375 193.4375 167.4375 193.523438 C 167.425781 193.546875 167.359375 193.671875 167.363281 193.699219 C 167.347656 193.613281 167.480469 193.539062 167.40625 193.628906 C 167.394531 193.640625 167.339844 193.699219 167.339844 193.707031 C 167.339844 193.710938 167.488281 193.566406 167.421875 193.628906 C 167.386719 193.660156 167.289062 193.703125 167.421875 193.644531 C 167.574219 193.570312 167.449219 193.632812 167.433594 193.632812 C 167.246094 193.652344 167.597656 193.632812 167.472656 193.632812 C 167.4375 193.632812 167.296875 193.644531 167.441406 193.640625 C 167.589844 193.632812 167.472656 193.628906 167.445312 193.632812 C 167.328125 193.636719 167.445312 193.542969 167.496094 193.648438 C 167.492188 193.640625 167.421875 193.613281 167.410156 193.609375 C 167.296875 193.574219 167.539062 193.714844 167.449219 193.636719 C 167.425781 193.617188 167.398438 193.597656 167.371094 193.582031 C 167.226562 193.476562 167.394531 193.617188 167.394531 193.617188 C 167.359375 193.605469 167.316406 193.523438 167.296875 193.492188 C 167.285156 193.476562 167.246094 193.433594 167.246094 193.410156 L 167.289062 193.488281 L 167.261719 193.417969 C 167.246094 193.367188 167.222656 193.316406 167.207031 193.273438 C 167.203125 193.253906 167.164062 193.128906 167.199219 193.246094 C 167.234375 193.371094 167.191406 193.210938 167.1875 193.179688 C 167.179688 193.140625 167.175781 193.105469 167.167969 193.066406 C 167.15625 192.964844 167.144531 192.859375 167.136719 192.757812 C 167.125 192.566406 167.117188 192.375 167.117188 192.183594 C 167.117188 192.148438 167.117188 192.109375 167.117188 192.074219 C 167.113281 191.890625 167.113281 192.070312 167.113281 192.097656 C 167.105469 192.003906 167.125 191.898438 167.136719 191.800781 C 167.148438 191.691406 167.164062 191.582031 167.191406 191.476562 C 167.195312 191.445312 167.199219 191.394531 167.214844 191.367188 C 167.121094 191.523438 167.207031 191.417969 167.230469 191.359375 C 167.242188 191.324219 167.261719 191.292969 167.273438 191.257812 C 167.359375 191.054688 167.199219 191.34375 167.261719 191.265625 C 167.289062 191.230469 167.308594 191.195312 167.335938 191.164062 C 167.402344 191.085938 167.453125 191.101562 167.316406 191.171875 C 167.378906 191.136719 167.449219 191.0625 167.511719 191.019531 C 167.605469 190.949219 167.546875 191.054688 167.460938 191.046875 C 167.484375 191.046875 167.546875 191.007812 167.570312 191 C 167.726562 190.929688 167.515625 191.03125 167.5 191.011719 C 167.507812 191.019531 167.636719 191 167.648438 190.996094 C 167.734375 190.972656 167.558594 191.003906 167.542969 190.992188 C 167.574219 190.996094 167.601562 191 167.628906 191.007812 C 167.699219 191.023438 167.667969 191.011719 167.542969 190.980469 C 168 191.140625 168.578125 191.003906 168.773438 190.507812 C 168.945312 190.070312 168.792969 189.445312 168.304688 189.273438 Z M 168.300781 189.28125 "/><path style=" stroke:none;fill-rule:nonzero;fill:#000000;fill-opacity:1;" d="M 185.703125 185.011719 C 185.15625 184.796875 184.515625 185.171875 184.238281 185.695312 C 183.960938 186.214844 183.957031 186.835938 183.976562 187.425781 C 183.996094 187.917969 184.03125 188.425781 184.277344 188.847656 C 184.523438 189.269531 185.042969 189.570312 185.503906 189.40625 C 186.144531 189.175781 186.222656 188.308594 186.1875 187.621094 C 186.167969 187.277344 186.148438 186.929688 186.132812 186.585938 C 186.109375 186.175781 186.082031 185.742188 185.867188 185.394531 C 185.648438 185.046875 185.179688 184.816406 184.816406 185.011719 "/><path style=" stroke:none;fill-rule:nonzero;fill:#000000;fill-opacity:1;" d="M 186.082031 184.160156 C 185.421875 183.925781 184.800781 184.015625 184.210938 184.382812 C 183.714844 184.691406 183.378906 185.214844 183.214844 185.765625 C 183.042969 186.339844 183.03125 186.929688 183.054688 187.527344 C 183.074219 188.164062 183.171875 188.777344 183.492188 189.335938 C 184.125 190.453125 185.75 190.78125 186.601562 189.722656 C 187.269531 188.890625 187.121094 187.734375 187.070312 186.746094 C 187.035156 186.050781 186.992188 185.304688 186.542969 184.738281 C 186.066406 184.136719 185.203125 183.796875 184.476562 184.140625 C 184.039062 184.347656 183.742188 184.871094 183.957031 185.351562 C 184.148438 185.792969 184.691406 186.101562 185.164062 185.878906 C 185.238281 185.84375 185.269531 185.863281 185.089844 185.878906 C 185.132812 185.875 185.203125 185.882812 185.082031 185.867188 C 184.933594 185.847656 185.066406 185.875 185.105469 185.875 C 185.199219 185.878906 185.023438 185.863281 185.019531 185.851562 C 185.023438 185.859375 185.128906 185.886719 185.128906 185.902344 L 185.082031 185.875 C 185.015625 185.832031 185.015625 185.835938 185.082031 185.886719 C 185.101562 185.921875 185.128906 185.976562 185.089844 185.886719 C 185.023438 185.746094 185.121094 185.933594 185.121094 185.949219 C 185.121094 185.933594 185.042969 185.753906 185.105469 185.941406 C 185.121094 185.972656 185.128906 186.015625 185.144531 186.046875 C 185.203125 186.167969 185.125 185.890625 185.140625 186.027344 C 185.148438 186.0625 185.15625 186.101562 185.164062 186.140625 C 185.195312 186.347656 185.203125 186.558594 185.214844 186.769531 C 185.234375 187.160156 185.269531 187.550781 185.273438 187.945312 C 185.273438 187.972656 185.273438 188.003906 185.273438 188.03125 C 185.277344 188.15625 185.289062 187.832031 185.273438 187.957031 C 185.261719 188.023438 185.261719 188.09375 185.253906 188.160156 C 185.246094 188.230469 185.238281 188.296875 185.222656 188.363281 C 185.21875 188.390625 185.210938 188.417969 185.203125 188.445312 C 185.171875 188.625 185.265625 188.316406 185.21875 188.402344 C 185.207031 188.421875 185.140625 188.550781 185.144531 188.574219 C 185.128906 188.488281 185.261719 188.414062 185.1875 188.503906 C 185.175781 188.515625 185.121094 188.578125 185.121094 188.585938 C 185.121094 188.589844 185.273438 188.445312 185.203125 188.507812 C 185.167969 188.535156 185.074219 188.582031 185.203125 188.519531 C 185.355469 188.449219 185.230469 188.507812 185.214844 188.511719 C 185.027344 188.527344 185.378906 188.511719 185.253906 188.507812 C 185.21875 188.507812 185.078125 188.523438 185.226562 188.515625 C 185.371094 188.511719 185.253906 188.507812 185.226562 188.507812 C 185.109375 188.515625 185.226562 188.417969 185.28125 188.527344 C 185.273438 188.515625 185.203125 188.492188 185.191406 188.488281 C 185.078125 188.449219 185.320312 188.59375 185.230469 188.515625 C 185.207031 188.496094 185.179688 188.476562 185.152344 188.457031 C 185.007812 188.351562 185.175781 188.492188 185.175781 188.496094 C 185.140625 188.480469 185.097656 188.398438 185.078125 188.367188 C 185.066406 188.351562 185.027344 188.308594 185.027344 188.289062 L 185.074219 188.363281 L 185.042969 188.292969 C 185.027344 188.246094 185.003906 188.195312 184.988281 188.148438 C 184.984375 188.132812 184.949219 188.007812 184.980469 188.125 C 185.015625 188.246094 184.976562 188.089844 184.96875 188.058594 C 184.960938 188.019531 184.957031 187.980469 184.949219 187.941406 C 184.9375 187.839844 184.925781 187.734375 184.917969 187.632812 C 184.90625 187.441406 184.898438 187.253906 184.898438 187.0625 C 184.898438 187.023438 184.898438 186.988281 184.898438 186.949219 C 184.898438 186.769531 184.894531 186.945312 184.894531 186.976562 C 184.886719 186.878906 184.90625 186.773438 184.917969 186.679688 C 184.929688 186.566406 184.949219 186.460938 184.972656 186.351562 C 184.976562 186.324219 184.980469 186.269531 184.996094 186.246094 C 184.902344 186.402344 184.988281 186.296875 185.011719 186.234375 C 185.023438 186.203125 185.042969 186.167969 185.054688 186.132812 C 185.140625 185.929688 184.980469 186.222656 185.042969 186.140625 C 185.070312 186.109375 185.09375 186.074219 185.121094 186.042969 C 185.183594 185.964844 185.238281 185.976562 185.097656 186.046875 C 185.164062 186.011719 185.230469 185.941406 185.292969 185.894531 C 185.386719 185.824219 185.328125 185.929688 185.242188 185.921875 C 185.265625 185.925781 185.328125 185.886719 185.351562 185.878906 C 185.507812 185.808594 185.296875 185.90625 185.28125 185.890625 C 185.289062 185.898438 185.417969 185.875 185.429688 185.871094 C 185.515625 185.851562 185.339844 185.878906 185.324219 185.871094 C 185.355469 185.871094 185.382812 185.878906 185.410156 185.882812 C 185.480469 185.898438 185.453125 185.890625 185.324219 185.855469 C 185.78125 186.019531 186.359375 185.878906 186.554688 185.386719 C 186.730469 184.949219 186.578125 184.324219 186.085938 184.148438 Z M 186.082031 184.160156 "/><path style=" stroke:none;fill-rule:nonzero;fill:#000000;fill-opacity:1;" d="M 172.980469 195.816406 C 176.996094 196.816406 181.363281 195.640625 184.339844 192.75 C 185.207031 191.910156 183.886719 190.585938 183.019531 191.421875 C 180.523438 193.84375 176.839844 194.84375 173.472656 194.007812 C 172.308594 193.714844 171.8125 195.523438 172.980469 195.8125 Z M 172.980469 195.816406 "/><path style=" stroke:none;fill-rule:nonzero;fill:#ffa59b;fill-opacity:1;" d="M 126.589844 226.035156 C 127.875 224.253906 129.683594 223.660156 130.933594 223.691406 C 132.550781 223.734375 133.886719 224.746094 134.125 225.980469 C 134.175781 226.242188 134.191406 226.523438 134.351562 226.734375 C 134.488281 226.917969 134.710938 227.015625 134.921875 227.109375 C 135.328125 227.292969 135.734375 227.511719 136.011719 227.859375 C 136.292969 228.207031 136.414062 228.71875 136.199219 229.109375 C 135.984375 229.5 135.375 229.648438 135.074219 229.320312 C 135.441406 229.800781 135.472656 230.519531 135.144531 231.027344 C 134.820312 231.539062 134.160156 231.8125 133.570312 231.675781 C 133.84375 232.175781 133.699219 232.863281 133.246094 233.203125 C 132.796875 233.542969 132.097656 233.492188 131.699219 233.085938 C 131.808594 233.550781 131.339844 233.988281 130.867188 234.027344 C 130.398438 234.066406 129.949219 233.832031 129.539062 233.597656 C 127.851562 232.625 126.128906 231.320312 125.714844 229.410156 C 125.300781 227.511719 126.515625 225.394531 128.359375 224.8125 "/><path style=" stroke:none;fill-rule:nonzero;fill:#ffa59b;fill-opacity:1;" d="M 127.398438 226.507812 C 128.460938 225.074219 130.542969 224.046875 132.21875 224.96875 C 132.574219 225.164062 132.894531 225.433594 133.082031 225.800781 C 133.308594 226.25 133.261719 226.769531 133.546875 227.207031 C 133.914062 227.769531 134.527344 227.871094 135.042969 228.230469 C 135.125 228.289062 135.207031 228.34375 135.269531 228.425781 C 135.300781 228.464844 135.351562 228.632812 135.375 228.644531 C 135.484375 228.691406 135.222656 228.578125 135.476562 228.558594 C 135.519531 228.554688 135.96875 228.859375 135.734375 228.652344 C 134.984375 227.996094 133.636719 228.855469 134.269531 229.789062 C 134.523438 230.167969 134.445312 230.875 133.820312 230.769531 C 132.992188 230.632812 132.402344 231.378906 132.765625 232.148438 C 132.890625 232.410156 132.546875 232.585938 132.359375 232.421875 C 131.824219 231.941406 130.671875 232.210938 130.769531 233.085938 C 130.804688 233.410156 130.808594 233.0625 130.824219 233.066406 C 130.792969 233.0625 130.742188 233.105469 130.695312 233.089844 C 130.445312 233.003906 130.238281 232.914062 130.007812 232.785156 C 129.546875 232.519531 129.09375 232.234375 128.660156 231.917969 C 127.90625 231.367188 127.179688 230.660156 126.804688 229.785156 C 126.132812 228.226562 127 226.257812 128.609375 225.710938 C 129.738281 225.324219 129.253906 223.515625 128.113281 223.902344 C 125.183594 224.902344 123.832031 228.402344 125.386719 231.105469 C 126.152344 232.441406 127.429688 233.417969 128.726562 234.199219 C 129.464844 234.644531 130.296875 235.113281 131.1875 234.917969 C 132.007812 234.734375 132.734375 233.96875 132.636719 233.085938 C 132.105469 233.304688 131.574219 233.527344 131.042969 233.746094 C 131.816406 234.4375 132.960938 234.589844 133.816406 233.9375 C 134.675781 233.277344 134.820312 232.144531 134.375 231.203125 C 134.027344 231.664062 133.675781 232.121094 133.324219 232.578125 C 134.324219 232.75 135.320312 232.4375 135.90625 231.5625 C 136.445312 230.753906 136.421875 229.644531 135.882812 228.84375 C 135.394531 229.222656 134.902344 229.601562 134.417969 229.980469 C 135.113281 230.589844 136.148438 230.582031 136.789062 229.871094 C 137.417969 229.179688 137.335938 228.113281 136.820312 227.386719 C 136.53125 226.980469 136.132812 226.675781 135.695312 226.445312 C 135.523438 226.355469 135.328125 226.246094 135.144531 226.179688 C 134.992188 226.078125 134.984375 226.085938 135.117188 226.203125 C 135.089844 226.097656 135.070312 225.996094 135.054688 225.890625 C 134.90625 225.160156 134.570312 224.507812 134.027344 223.992188 C 132.871094 222.890625 131.222656 222.566406 129.695312 222.886719 C 128.082031 223.222656 126.757812 224.257812 125.789062 225.5625 C 125.488281 225.96875 125.722656 226.609375 126.125 226.84375 C 126.601562 227.125 127.097656 226.914062 127.402344 226.507812 Z M 127.398438 226.507812 "/><path style=" stroke:none;fill-rule:nonzero;fill:#e96474;fill-opacity:1;" d="M 131.925781 225.832031 C 132.636719 226.5625 133.628906 226.984375 134.644531 227 C 135.011719 227.007812 135.359375 226.671875 135.34375 226.296875 C 135.328125 225.910156 135.035156 225.601562 134.644531 225.59375 C 134.523438 225.59375 134.40625 225.582031 134.285156 225.570312 L 134.472656 225.59375 C 134.183594 225.554688 133.90625 225.480469 133.640625 225.367188 L 133.808594 225.4375 C 133.550781 225.328125 133.316406 225.1875 133.09375 225.019531 L 133.238281 225.128906 C 133.125 225.039062 133.015625 224.941406 132.914062 224.839844 C 132.660156 224.574219 132.179688 224.5625 131.925781 224.839844 C 131.667969 225.121094 131.652344 225.550781 131.925781 225.832031 Z M 131.925781 225.832031 "/><path style=" stroke:none;fill-rule:nonzero;fill:#ffa59b;fill-opacity:1;" d="M 139.390625 202.886719 C 135.414062 205.019531 132.4375 208.582031 130.148438 212.421875 C 128.117188 215.832031 126.335938 219.402344 126.472656 223.476562 C 126.535156 225.328125 126.976562 227.433594 128.492188 228.652344 C 129.417969 229.398438 130.746094 228.082031 129.808594 227.324219 C 128.695312 226.425781 128.398438 224.941406 128.339844 223.574219 C 128.273438 222.019531 128.492188 220.441406 128.964844 218.957031 C 129.542969 217.160156 130.558594 215.429688 131.503906 213.800781 C 132.542969 212.011719 133.707031 210.289062 135.082031 208.742188 C 136.59375 207.039062 138.324219 205.582031 140.332031 204.503906 C 141.390625 203.933594 140.449219 202.316406 139.390625 202.882812 Z M 139.390625 202.886719 "/><path style=" stroke:none;fill-rule:nonzero;fill:#5e4d5c;fill-opacity:1;" d="M 137.625 216.3125 C 138.71875 217.875 140.511719 218.722656 142.242188 219.367188 C 144.847656 220.335938 147.617188 220.835938 150.359375 221.210938 C 156.78125 222.085938 163.054688 220.792969 169.417969 220.085938 C 172.734375 219.71875 176.0625 219.546875 179.378906 219.132812 C 184 218.550781 188.828125 217.957031 193.21875 216.328125 C 196.980469 214.929688 200.726562 212.660156 203.535156 209.746094 C 204.375 208.878906 203.054688 207.550781 202.21875 208.417969 C 200.046875 210.667969 197.269531 212.46875 194.460938 213.785156 C 190.265625 215.761719 185.453125 216.425781 180.902344 217.054688 C 178.050781 217.449219 175.191406 217.75 172.320312 217.949219 C 166.289062 218.355469 160.335938 219.808594 154.269531 219.65625 C 150.980469 219.574219 147.640625 219.035156 144.480469 218.125 C 142.746094 217.625 140.34375 216.945312 139.234375 215.367188 C 138.546875 214.386719 136.929688 215.324219 137.625 216.3125 Z M 137.625 216.3125 "/><path style=" stroke:none;fill-rule:nonzero;fill:#ffa59b;fill-opacity:1;" d="M 176.078125 211.800781 C 178.660156 211.8125 181.160156 210.238281 182.179688 207.835938 L 180.90625 208.171875 C 183.332031 209.722656 186.582031 209.707031 188.984375 208.113281 C 189.980469 207.449219 189.046875 205.824219 188.042969 206.492188 C 186.164062 207.738281 183.746094 207.765625 181.84375 206.550781 C 181.457031 206.304688 180.761719 206.433594 180.570312 206.890625 C 179.796875 208.710938 178.066406 209.933594 176.078125 209.925781 C 174.878906 209.917969 174.875 211.792969 176.078125 211.800781 Z M 176.078125 211.800781 "/><path style=" stroke:none;fill-rule:nonzero;fill:#ffd97b;fill-opacity:1;" d="M 212.640625 203.617188 C 213.277344 203.65625 213.910156 203.613281 214.546875 203.5625 C 214.824219 203.539062 215.101562 203.511719 215.382812 203.488281 C 215.488281 203.476562 215.601562 203.472656 215.710938 203.457031 C 215.75 203.453125 216.027344 203.457031 215.847656 203.429688 C 215.710938 203.351562 215.570312 203.269531 215.433594 203.1875 C 215.96875 203.605469 216.628906 203.582031 217.058594 203.007812 C 217.394531 202.5625 217.378906 201.921875 217.480469 201.4375 C 217.792969 199.996094 217.6875 198.511719 217.871094 197.054688 L 216.007812 197.054688 C 216.058594 198.800781 216.164062 200.5625 216.417969 202.292969 C 216.511719 202.945312 216.847656 203.703125 217.679688 203.476562 C 218.117188 203.359375 218.378906 202.945312 218.390625 202.507812 C 218.40625 201.878906 217.992188 201.460938 217.382812 201.398438 C 217.042969 201.363281 216.757812 201.609375 216.578125 201.863281 C 216.085938 202.539062 216.746094 203.28125 217.375 203.488281 C 217.820312 203.636719 218.316406 203.664062 218.78125 203.6875 C 219.507812 203.730469 220.238281 203.722656 220.964844 203.6875 C 220.882812 203.070312 220.800781 202.457031 220.714844 201.84375 C 219.5625 202.1875 218.371094 202.472656 217.238281 202.878906 C 216.464844 203.15625 216.394531 204.261719 216.230469 204.960938 C 216 205.941406 215.746094 206.953125 215.699219 207.964844 L 217.53125 207.714844 C 217.332031 206.28125 217.230469 204.835938 217.203125 203.386719 C 217.195312 202.945312 216.914062 202.632812 216.519531 202.484375 C 215.902344 202.253906 215.234375 202.183594 214.585938 202.109375 C 214.132812 202.058594 213.4375 202.023438 213.109375 201.871094 C 212.652344 201.660156 212.105469 201.742188 211.835938 202.207031 C 211.601562 202.613281 211.710938 203.28125 212.171875 203.492188 C 213.386719 204.050781 214.78125 203.828125 216.023438 204.292969 C 215.796875 203.992188 215.566406 203.691406 215.339844 203.390625 C 215.371094 205.007812 215.511719 206.613281 215.734375 208.210938 C 215.886719 209.300781 217.519531 208.964844 217.566406 207.964844 C 217.621094 206.796875 218.046875 205.300781 218.382812 204.035156 C 218.167969 204.25 217.949219 204.46875 217.734375 204.6875 C 218.890625 204.34375 220.054688 203.996094 221.214844 203.652344 C 222.191406 203.359375 222.046875 201.757812 220.964844 201.808594 C 220.492188 201.832031 220.023438 201.839844 219.550781 201.835938 C 219.179688 201.832031 218.8125 201.820312 218.441406 201.789062 C 218.226562 201.769531 218.300781 201.789062 218.097656 201.742188 C 218.054688 201.730469 217.984375 201.703125 217.941406 201.703125 C 217.808594 201.707031 217.964844 201.703125 218.035156 201.769531 C 218.117188 201.90625 218.195312 202.042969 218.277344 202.183594 L 218.257812 202.121094 C 218.226562 202.363281 218.195312 202.601562 218.164062 202.84375 L 218.1875 202.8125 C 217.921875 202.964844 217.652344 203.121094 217.382812 203.273438 L 217.425781 203.28125 C 217.15625 203.125 216.890625 202.96875 216.621094 202.816406 L 216.652344 202.867188 C 216.613281 202.710938 216.570312 202.554688 216.527344 202.394531 C 216.550781 202.292969 216.585938 202.195312 216.632812 202.101562 C 216.820312 201.957031 217.007812 201.8125 217.191406 201.667969 L 217.183594 201.667969 C 217.484375 201.753906 217.789062 201.832031 218.089844 201.910156 C 218.472656 202.257812 218.292969 202.394531 218.261719 202.09375 C 218.257812 202.023438 218.238281 201.953125 218.226562 201.882812 C 218.203125 201.714844 218.234375 201.925781 218.21875 201.804688 C 218.160156 201.359375 218.117188 200.90625 218.078125 200.460938 C 217.976562 199.328125 217.90625 198.191406 217.871094 197.054688 C 217.855469 196.546875 217.453125 196.117188 216.9375 196.117188 C 216.382812 196.117188 216.070312 196.550781 216.007812 197.054688 C 215.886719 197.988281 215.890625 198.925781 215.824219 199.859375 C 215.792969 200.296875 215.734375 200.71875 215.636719 201.144531 C 215.59375 201.335938 215.550781 201.511719 215.527344 201.703125 C 215.484375 202.097656 215.433594 201.902344 215.691406 201.753906 C 215.933594 201.722656 216.171875 201.691406 216.410156 201.660156 L 216.378906 201.652344 C 216.515625 201.730469 216.652344 201.8125 216.792969 201.894531 C 216.21875 201.449219 215.585938 201.59375 214.914062 201.652344 C 214.160156 201.722656 213.398438 201.789062 212.640625 201.742188 C 211.4375 201.671875 211.445312 203.546875 212.640625 203.617188 Z M 212.640625 203.617188 "/><path style=" stroke:none;fill-rule:nonzero;fill:#5e4d5c;fill-opacity:1;" d="M 173.015625 217.585938 C 171.679688 217.804688 170.609375 218.761719 169.875 219.855469 C 169.492188 220.425781 169.203125 221.050781 168.929688 221.679688 C 168.648438 222.328125 168.308594 223.007812 168.328125 223.734375 C 168.34375 224.476562 168.695312 225.226562 169.367188 225.582031 C 170.085938 225.957031 170.894531 225.796875 171.597656 225.472656 C 172.824219 224.90625 173.632812 223.71875 174.109375 222.492188 C 174.394531 221.761719 174.570312 220.988281 174.691406 220.214844 C 174.824219 219.410156 174.847656 218.570312 174.386719 217.855469 C 173.925781 217.144531 172.609375 217.355469 172.648438 218.332031 C 172.707031 219.738281 172.742188 221.148438 172.824219 222.554688 C 172.90625 223.878906 173.320312 225.3125 174.667969 225.84375 C 175.253906 226.078125 175.929688 226.035156 176.488281 225.738281 C 177.089844 225.417969 177.414062 224.792969 177.511719 224.140625 C 177.703125 222.832031 177.542969 221.449219 177.0625 220.214844 C 176.582031 218.984375 175.621094 217.441406 174.070312 217.578125 C 173.570312 217.625 173.136719 217.976562 173.136719 218.515625 C 173.136719 218.988281 173.566406 219.5 174.070312 219.453125 C 174.136719 219.445312 174.207031 219.441406 174.277344 219.445312 C 174.195312 219.429688 174.210938 219.4375 174.324219 219.460938 C 174.203125 219.414062 174.441406 219.523438 174.464844 219.539062 C 174.558594 219.597656 174.746094 219.789062 174.8125 219.882812 C 175.128906 220.304688 175.324219 220.824219 175.472656 221.328125 C 175.632812 221.875 175.71875 222.425781 175.726562 222.996094 C 175.730469 223.234375 175.722656 223.582031 175.695312 223.757812 C 175.679688 223.851562 175.628906 224.039062 175.613281 224.082031 C 175.628906 224.042969 175.492188 224.152344 175.617188 224.089844 C 175.703125 224.046875 175.316406 224.152344 175.496094 224.125 C 175.382812 224.117188 175.367188 224.117188 175.449219 224.128906 C 175.398438 224.121094 175.351562 224.109375 175.304688 224.089844 C 175.257812 224.074219 175.117188 223.964844 175.054688 223.882812 C 174.773438 223.503906 174.714844 223.007812 174.6875 222.488281 C 174.609375 221.101562 174.570312 219.71875 174.511719 218.332031 C 173.933594 218.488281 173.355469 218.644531 172.777344 218.804688 C 172.921875 219.027344 172.925781 219.132812 172.917969 219.390625 C 172.910156 219.695312 172.867188 219.890625 172.804688 220.203125 C 172.683594 220.816406 172.542969 221.4375 172.304688 222.011719 C 172.066406 222.589844 171.769531 223.027344 171.335938 223.417969 C 171.066406 223.664062 170.597656 223.945312 170.304688 223.9375 C 170.15625 223.933594 170.1875 223.871094 170.261719 223.953125 C 170.226562 223.917969 170.195312 223.773438 170.199219 223.839844 C 170.179688 223.601562 170.238281 223.398438 170.320312 223.160156 C 170.535156 222.558594 170.816406 221.964844 171.121094 221.410156 C 171.667969 220.40625 172.398438 219.582031 173.507812 219.394531 C 174.007812 219.3125 174.285156 218.691406 174.160156 218.238281 C 174.015625 217.710938 173.511719 217.5 173.011719 217.585938 Z M 173.015625 217.585938 "/></g></svg>