<svg xmlns="http://www.w3.org/2000/svg" xmlns:xlink="http://www.w3.org/1999/xlink" width="800" zoomAndPan="magnify" viewBox="0 0 600 599.999999" height="800" preserveAspectRatio="xMidYMid meet" version="1.2"><defs><clipPath id="5c4b06aee0"><path d="M 187.558594 247.496094 L 468 247.496094 L 468 320 L 187.558594 320 Z M 187.558594 247.496094 "/></clipPath><clipPath id="3ab6fcf480"><path d="M 158 212 L 225 212 L 225 281 L 158 281 Z M 158 212 "/></clipPath><clipPath id="c9d65de8d3"><path d="M 113.410156 227.484375 L 224.234375 150.390625 L 288.476562 242.746094 L 177.652344 319.835938 Z M 113.410156 227.484375 "/></clipPath><clipPath id="5047656488"><path d="M 113.410156 227.484375 L 224.234375 150.390625 L 288.476562 242.746094 L 177.652344 319.835938 Z M 113.410156 227.484375 "/></clipPath><clipPath id="0d3024e48e"><path d="M 210 208 L 265 208 L 265 263 L 210 263 Z M 210 208 "/></clipPath><clipPath id="5547bf1256"><path d="M 113.410156 227.484375 L 224.234375 150.390625 L 288.476562 242.746094 L 177.652344 319.835938 Z M 113.410156 227.484375 "/></clipPath><clipPath id="587120cde1"><path d="M 113.410156 227.484375 L 224.234375 150.390625 L 288.476562 242.746094 L 177.652344 319.835938 Z M 113.410156 227.484375 "/></clipPath><clipPath id="0f134f9d7d"><path d="M 212 209 L 264 209 L 264 262 L 212 262 Z M 212 209 "/></clipPath><clipPath id="50a0f89a1d"><path d="M 113.410156 227.484375 L 224.234375 150.390625 L 288.476562 242.746094 L 177.652344 319.835938 Z M 113.410156 227.484375 "/></clipPath><clipPath id="f0d6d2ceb7"><path d="M 113.410156 227.484375 L 224.234375 150.390625 L 288.476562 242.746094 L 177.652344 319.835938 Z M 113.410156 227.484375 "/></clipPath><clipPath id="3f68384ef8"><path d="M 183 163 L 250 163 L 250 231 L 183 231 Z M 183 163 "/></clipPath><clipPath id="f897e3a4f7"><path d="M 113.410156 227.484375 L 224.234375 150.390625 L 288.476562 242.746094 L 177.652344 319.835938 Z M 113.410156 227.484375 "/></clipPath><clipPath id="6399487952"><path d="M 113.410156 227.484375 L 224.234375 150.390625 L 288.476562 242.746094 L 177.652344 319.835938 Z M 113.410156 227.484375 "/></clipPath><clipPath id="a4d1f9218e"><path d="M 169.992188 188.660156 L 224.453125 150.777344 L 263.636719 207.109375 L 209.179688 244.992188 Z M 169.992188 188.660156 "/></clipPath><clipPath id="1315ce2fdd"><path d="M 185 165 L 248 165 L 248 230 L 185 230 Z M 185 165 "/></clipPath><clipPath id="da515bfab2"><path d="M 113.410156 227.484375 L 224.234375 150.390625 L 288.476562 242.746094 L 177.652344 319.835938 Z M 113.410156 227.484375 "/></clipPath><clipPath id="6499f02464"><path d="M 113.410156 227.484375 L 224.234375 150.390625 L 288.476562 242.746094 L 177.652344 319.835938 Z M 113.410156 227.484375 "/></clipPath><clipPath id="28a99a0d17"><path d="M 160 266 L 205 266 L 205 312 L 160 312 Z M 160 266 "/></clipPath><clipPath id="2e891d7abc"><path d="M 113.410156 227.484375 L 224.234375 150.390625 L 288.476562 242.746094 L 177.652344 319.835938 Z M 113.410156 227.484375 "/></clipPath><clipPath id="2eb28a9242"><path d="M 113.410156 227.484375 L 224.234375 150.390625 L 288.476562 242.746094 L 177.652344 319.835938 Z M 113.410156 227.484375 "/></clipPath><clipPath id="e6ac0a829e"><path d="M 151.339844 282.011719 L 187.089844 257.144531 L 213.109375 294.550781 L 177.359375 319.417969 Z M 151.339844 282.011719 "/></clipPath><clipPath id="249b02a3cd"><path d="M 161 267 L 203 267 L 203 310 L 161 310 Z M 161 267 "/></clipPath><clipPath id="a4b05957d9"><path d="M 113.410156 227.484375 L 224.234375 150.390625 L 288.476562 242.746094 L 177.652344 319.835938 Z M 113.410156 227.484375 "/></clipPath><clipPath id="2899c7576e"><path d="M 113.410156 227.484375 L 224.234375 150.390625 L 288.476562 242.746094 L 177.652344 319.835938 Z M 113.410156 227.484375 "/></clipPath></defs><g id="09a248a26a"><g clip-rule="nonzero" clip-path="url(#5c4b06aee0)"><path style=" stroke:none;fill-rule:nonzero;fill:#ff9999;fill-opacity:1;" d="M 187.558594 247.496094 L 187.558594 319.878906 L 467.382812 319.878906 L 467.382812 247.496094 Z M 187.558594 247.496094 "/></g><g style="fill:#000000;fill-opacity:1;"><g transform="translate(232.217394, 291.747255)"><path style="stroke:none" d="M 0.765625 -1.25 C 0.765625 -2.113281 0.859375 -2.84375 1.046875 -3.4375 C 1.234375 -4.03125 1.539062 -4.570312 1.96875 -5.0625 C 2.40625 -5.550781 3.015625 -6.082031 3.796875 -6.65625 L 5.890625 -8.171875 C 6.460938 -8.578125 6.910156 -8.925781 7.234375 -9.21875 C 7.554688 -9.519531 7.796875 -9.835938 7.953125 -10.171875 C 8.117188 -10.503906 8.203125 -10.878906 8.203125 -11.296875 C 8.203125 -11.929688 8.003906 -12.421875 7.609375 -12.765625 C 7.222656 -13.117188 6.644531 -13.296875 5.875 -13.296875 C 5.132812 -13.296875 4.472656 -13.117188 3.890625 -12.765625 C 3.304688 -12.410156 2.828125 -11.925781 2.453125 -11.3125 L 2.25 -11.265625 L 0.53125 -13.171875 C 1.09375 -14.003906 1.820312 -14.671875 2.71875 -15.171875 C 3.625 -15.679688 4.71875 -15.9375 6 -15.9375 C 7.164062 -15.9375 8.144531 -15.738281 8.9375 -15.34375 C 9.726562 -14.957031 10.316406 -14.429688 10.703125 -13.765625 C 11.085938 -13.097656 11.28125 -12.332031 11.28125 -11.46875 C 11.28125 -10.71875 11.125 -10.035156 10.8125 -9.421875 C 10.5 -8.804688 10.066406 -8.234375 9.515625 -7.703125 C 8.960938 -7.179688 8.257812 -6.625 7.40625 -6.03125 L 5.546875 -4.734375 C 4.984375 -4.328125 4.59375 -3.96875 4.375 -3.65625 C 4.15625 -3.34375 4.046875 -2.988281 4.046875 -2.59375 L 11.125 -2.59375 L 11.125 0 L 0.765625 0 Z M 0.765625 -1.25 "/></g></g><g style="fill:#000000;fill-opacity:1;"><g transform="translate(261.30333, 291.747255)"><path style="stroke:none" d=""/></g></g><g style="fill:#000000;fill-opacity:1;"><g transform="translate(266.490891, 291.747255)"><path style="stroke:none" d="M 7.625 0.21875 C 6.3125 0.21875 5.175781 -0.078125 4.21875 -0.671875 C 3.269531 -1.265625 2.535156 -2.164062 2.015625 -3.375 C 1.492188 -4.582031 1.234375 -6.078125 1.234375 -7.859375 C 1.234375 -9.640625 1.546875 -11.132812 2.171875 -12.34375 C 2.796875 -13.550781 3.660156 -14.453125 4.765625 -15.046875 C 5.867188 -15.640625 7.148438 -15.9375 8.609375 -15.9375 C 10.117188 -15.9375 11.398438 -15.65625 12.453125 -15.09375 C 13.515625 -14.53125 14.265625 -13.695312 14.703125 -12.59375 L 12.421875 -11.21875 L 12.15625 -11.234375 C 11.832031 -11.941406 11.378906 -12.453125 10.796875 -12.765625 C 10.210938 -13.085938 9.484375 -13.25 8.609375 -13.25 C 7.253906 -13.25 6.21875 -12.820312 5.5 -11.96875 C 4.789062 -11.113281 4.4375 -9.742188 4.4375 -7.859375 C 4.4375 -5.953125 4.769531 -4.566406 5.4375 -3.703125 C 6.113281 -2.847656 7.101562 -2.421875 8.40625 -2.421875 C 9.539062 -2.421875 10.375 -2.675781 10.90625 -3.1875 C 11.445312 -3.695312 11.71875 -4.457031 11.71875 -5.46875 L 11.71875 -6.140625 L 8 -6.140625 L 8 -8.671875 L 14.796875 -8.671875 L 14.796875 0 L 11.84375 0 L 11.84375 -2.109375 L 11.609375 -2.140625 C 11.285156 -1.390625 10.796875 -0.804688 10.140625 -0.390625 C 9.484375 0.015625 8.644531 0.21875 7.625 0.21875 Z M 7.625 0.21875 "/></g></g><g style="fill:#000000;fill-opacity:1;"><g transform="translate(282.869823, 291.747255)"><path style="stroke:none" d="M 11.703125 -5.25 L 4.09375 -5.25 C 4.175781 -4.21875 4.46875 -3.46875 4.96875 -3 C 5.46875 -2.53125 6.15625 -2.296875 7.03125 -2.296875 C 7.707031 -2.296875 8.253906 -2.421875 8.671875 -2.671875 C 9.097656 -2.929688 9.441406 -3.316406 9.703125 -3.828125 L 9.921875 -3.828125 L 11.90625 -2.5625 C 11.519531 -1.738281 10.9375 -1.066406 10.15625 -0.546875 C 9.375 -0.0351562 8.332031 0.21875 7.03125 0.21875 C 5.800781 0.21875 4.738281 -0.0078125 3.84375 -0.46875 C 2.957031 -0.9375 2.269531 -1.628906 1.78125 -2.546875 C 1.300781 -3.472656 1.0625 -4.597656 1.0625 -5.921875 C 1.0625 -7.265625 1.316406 -8.394531 1.828125 -9.3125 C 2.335938 -10.238281 3.023438 -10.929688 3.890625 -11.390625 C 4.753906 -11.847656 5.726562 -12.078125 6.8125 -12.078125 C 8.488281 -12.078125 9.769531 -11.628906 10.65625 -10.734375 C 11.550781 -9.847656 12 -8.546875 12 -6.828125 C 12 -6.203125 11.976562 -5.71875 11.9375 -5.375 Z M 9.15625 -7.171875 C 9.125 -8.078125 8.910156 -8.734375 8.515625 -9.140625 C 8.128906 -9.554688 7.5625 -9.765625 6.8125 -9.765625 C 5.3125 -9.765625 4.425781 -8.898438 4.15625 -7.171875 Z M 9.15625 -7.171875 "/></g></g><g style="fill:#000000;fill-opacity:1;"><g transform="translate(295.747424, 291.747255)"><path style="stroke:none" d="M 1.703125 0 L 1.703125 -11.84375 L 4.5625 -11.84375 L 4.5625 -10.109375 L 4.796875 -10.0625 C 5.523438 -11.40625 6.71875 -12.078125 8.375 -12.078125 C 9.75 -12.078125 10.753906 -11.703125 11.390625 -10.953125 C 12.035156 -10.210938 12.359375 -9.128906 12.359375 -7.703125 L 12.359375 0 L 9.375 0 L 9.375 -7.34375 C 9.375 -8.125 9.21875 -8.6875 8.90625 -9.03125 C 8.59375 -9.382812 8.085938 -9.5625 7.390625 -9.5625 C 6.535156 -9.5625 5.867188 -9.285156 5.390625 -8.734375 C 4.921875 -8.179688 4.6875 -7.316406 4.6875 -6.140625 L 4.6875 0 Z M 1.703125 0 "/></g></g><g style="fill:#000000;fill-opacity:1;"><g transform="translate(309.623865, 291.747255)"><path style="stroke:none" d="M 3.03125 0.09375 C 2.644531 0.09375 2.304688 0.0195312 2.015625 -0.125 C 1.734375 -0.28125 1.515625 -0.492188 1.359375 -0.765625 C 1.203125 -1.046875 1.125 -1.359375 1.125 -1.703125 C 1.125 -2.046875 1.203125 -2.351562 1.359375 -2.625 C 1.515625 -2.894531 1.734375 -3.109375 2.015625 -3.265625 C 2.304688 -3.421875 2.644531 -3.5 3.03125 -3.5 C 3.414062 -3.5 3.753906 -3.421875 4.046875 -3.265625 C 4.335938 -3.117188 4.554688 -2.90625 4.703125 -2.625 C 4.859375 -2.351562 4.9375 -2.046875 4.9375 -1.703125 C 4.9375 -1.179688 4.765625 -0.75 4.421875 -0.40625 C 4.078125 -0.0703125 3.613281 0.09375 3.03125 0.09375 Z M 3.03125 -8.375 C 2.644531 -8.375 2.304688 -8.445312 2.015625 -8.59375 C 1.734375 -8.75 1.515625 -8.960938 1.359375 -9.234375 C 1.203125 -9.515625 1.125 -9.828125 1.125 -10.171875 C 1.125 -10.515625 1.203125 -10.820312 1.359375 -11.09375 C 1.515625 -11.363281 1.734375 -11.578125 2.015625 -11.734375 C 2.304688 -11.890625 2.644531 -11.96875 3.03125 -11.96875 C 3.414062 -11.96875 3.753906 -11.890625 4.046875 -11.734375 C 4.335938 -11.585938 4.554688 -11.375 4.703125 -11.09375 C 4.859375 -10.820312 4.9375 -10.515625 4.9375 -10.171875 C 4.9375 -9.648438 4.765625 -9.21875 4.421875 -8.875 C 4.078125 -8.539062 3.613281 -8.375 3.03125 -8.375 Z M 3.03125 -8.375 "/></g></g><g style="fill:#000000;fill-opacity:1;"><g transform="translate(315.692129, 291.747255)"><path style="stroke:none" d=""/></g></g><g style="fill:#000000;fill-opacity:1;"><g transform="translate(320.881453, 291.747255)"><path style="stroke:none" d="M 5.140625 0 L 2.046875 0 L 2.046875 -15.703125 L 5.140625 -15.703125 Z M 5.140625 0 "/></g></g><g style="fill:#000000;fill-opacity:1;"><g transform="translate(328.07744, 291.747255)"><path style="stroke:none" d="M 8.171875 -2.828125 L 8.953125 -0.625 C 8.628906 -0.351562 8.222656 -0.144531 7.734375 0 C 7.242188 0.144531 6.691406 0.21875 6.078125 0.21875 C 4.796875 0.21875 3.820312 -0.128906 3.15625 -0.828125 C 2.488281 -1.523438 2.15625 -2.539062 2.15625 -3.875 L 2.15625 -9.5 L 0.359375 -9.5 L 0.359375 -11.859375 L 2.15625 -11.859375 L 2.15625 -14.171875 L 5.140625 -14.65625 L 5.140625 -11.859375 L 8.5 -11.859375 L 8.5 -9.5 L 5.140625 -9.5 L 5.140625 -4.078125 C 5.140625 -3.492188 5.257812 -3.066406 5.5 -2.796875 C 5.738281 -2.523438 6.09375 -2.390625 6.5625 -2.390625 C 7.09375 -2.390625 7.554688 -2.535156 7.953125 -2.828125 Z M 8.171875 -2.828125 "/></g></g><g style="fill:#000000;fill-opacity:1;"><g transform="translate(337.281865, 291.747255)"><path style="stroke:none" d="M 0.515625 -10.203125 C 1.171875 -10.566406 1.722656 -10.984375 2.171875 -11.453125 C 2.617188 -11.921875 2.875 -12.398438 2.9375 -12.890625 C 2.382812 -12.910156 1.953125 -13.078125 1.640625 -13.390625 C 1.328125 -13.710938 1.171875 -14.125 1.171875 -14.625 C 1.171875 -14.957031 1.242188 -15.253906 1.390625 -15.515625 C 1.546875 -15.785156 1.757812 -15.992188 2.03125 -16.140625 C 2.3125 -16.296875 2.640625 -16.375 3.015625 -16.375 C 3.585938 -16.375 4.046875 -16.171875 4.390625 -15.765625 C 4.742188 -15.367188 4.921875 -14.816406 4.921875 -14.109375 C 4.921875 -12.910156 4.601562 -11.882812 3.96875 -11.03125 C 3.332031 -10.175781 2.472656 -9.441406 1.390625 -8.828125 Z M 0.515625 -10.203125 "/></g></g><g style="fill:#000000;fill-opacity:1;"><g transform="translate(343.253461, 291.747255)"><path style="stroke:none" d="M 5.546875 0.21875 C 4.734375 0.21875 3.988281 0.125 3.3125 -0.0625 C 2.644531 -0.25 2.070312 -0.507812 1.59375 -0.84375 C 1.113281 -1.175781 0.757812 -1.554688 0.53125 -1.984375 L 2.1875 -3.765625 L 2.421875 -3.765625 C 2.816406 -3.234375 3.28125 -2.835938 3.8125 -2.578125 C 4.351562 -2.316406 4.9375 -2.1875 5.5625 -2.1875 C 6.144531 -2.1875 6.582031 -2.285156 6.875 -2.484375 C 7.164062 -2.691406 7.3125 -2.992188 7.3125 -3.390625 C 7.3125 -3.679688 7.207031 -3.929688 7 -4.140625 C 6.789062 -4.347656 6.445312 -4.507812 5.96875 -4.625 L 4.40625 -5 C 3.226562 -5.28125 2.367188 -5.707031 1.828125 -6.28125 C 1.285156 -6.851562 1.015625 -7.582031 1.015625 -8.46875 C 1.015625 -9.207031 1.203125 -9.847656 1.578125 -10.390625 C 1.960938 -10.941406 2.492188 -11.359375 3.171875 -11.640625 C 3.859375 -11.929688 4.65625 -12.078125 5.5625 -12.078125 C 6.632812 -12.078125 7.519531 -11.921875 8.21875 -11.609375 C 8.914062 -11.304688 9.460938 -10.894531 9.859375 -10.375 L 8.265625 -8.65625 L 8.0625 -8.65625 C 7.726562 -9.03125 7.351562 -9.300781 6.9375 -9.46875 C 6.53125 -9.644531 6.070312 -9.734375 5.5625 -9.734375 C 4.382812 -9.734375 3.796875 -9.367188 3.796875 -8.640625 C 3.796875 -8.328125 3.90625 -8.070312 4.125 -7.875 C 4.34375 -7.6875 4.726562 -7.53125 5.28125 -7.40625 L 6.75 -7.09375 C 7.945312 -6.832031 8.820312 -6.414062 9.375 -5.84375 C 9.9375 -5.28125 10.21875 -4.519531 10.21875 -3.5625 C 10.21875 -2.800781 10.03125 -2.132812 9.65625 -1.5625 C 9.28125 -0.988281 8.742188 -0.546875 8.046875 -0.234375 C 7.347656 0.0664062 6.515625 0.21875 5.546875 0.21875 Z M 5.546875 0.21875 "/></g></g><g style="fill:#000000;fill-opacity:1;"><g transform="translate(354.176331, 291.747255)"><path style="stroke:none" d=""/></g></g><g style="fill:#000000;fill-opacity:1;"><g transform="translate(359.363892, 291.747255)"><path style="stroke:none" d="M 2.078125 0 L 2.078125 -9.5 L 0.390625 -9.5 L 0.390625 -11.859375 L 2.078125 -11.859375 C 1.953125 -12.359375 1.890625 -12.828125 1.890625 -13.265625 C 1.890625 -14.015625 2.0625 -14.65625 2.40625 -15.1875 C 2.75 -15.726562 3.242188 -16.132812 3.890625 -16.40625 C 4.535156 -16.6875 5.300781 -16.828125 6.1875 -16.828125 C 7.5 -16.828125 8.476562 -16.601562 9.125 -16.15625 L 8.421875 -13.96875 L 8.203125 -13.921875 C 7.753906 -14.234375 7.179688 -14.390625 6.484375 -14.390625 C 5.953125 -14.390625 5.550781 -14.257812 5.28125 -14 C 5.007812 -13.738281 4.875 -13.382812 4.875 -12.9375 C 4.875 -12.738281 4.882812 -12.554688 4.90625 -12.390625 C 4.9375 -12.234375 4.984375 -12.054688 5.046875 -11.859375 L 8.4375 -11.859375 L 8.4375 -9.5 L 5.046875 -9.5 L 5.046875 0 Z M 2.078125 0 "/></g></g><g style="fill:#000000;fill-opacity:1;"><g transform="translate(367.913154, 291.747255)"><path style="stroke:none" d="M 4.625 0.21875 C 3.863281 0.21875 3.203125 0.0820312 2.640625 -0.1875 C 2.085938 -0.46875 1.660156 -0.878906 1.359375 -1.421875 C 1.054688 -1.960938 0.90625 -2.613281 0.90625 -3.375 C 0.90625 -4.070312 1.054688 -4.660156 1.359375 -5.140625 C 1.660156 -5.617188 2.125 -6.007812 2.75 -6.3125 C 3.382812 -6.613281 4.207031 -6.847656 5.21875 -7.015625 C 5.925781 -7.128906 6.460938 -7.253906 6.828125 -7.390625 C 7.203125 -7.523438 7.453125 -7.675781 7.578125 -7.84375 C 7.710938 -8.019531 7.78125 -8.242188 7.78125 -8.515625 C 7.78125 -8.890625 7.644531 -9.175781 7.375 -9.375 C 7.113281 -9.570312 6.675781 -9.671875 6.0625 -9.671875 C 5.40625 -9.671875 4.773438 -9.523438 4.171875 -9.234375 C 3.578125 -8.941406 3.0625 -8.554688 2.625 -8.078125 L 2.421875 -8.078125 L 1.171875 -9.953125 C 1.773438 -10.617188 2.507812 -11.140625 3.375 -11.515625 C 4.238281 -11.890625 5.179688 -12.078125 6.203125 -12.078125 C 7.773438 -12.078125 8.910156 -11.742188 9.609375 -11.078125 C 10.316406 -10.410156 10.671875 -9.460938 10.671875 -8.234375 L 10.671875 -3.09375 C 10.671875 -2.5625 10.898438 -2.296875 11.359375 -2.296875 C 11.546875 -2.296875 11.722656 -2.328125 11.890625 -2.390625 L 12.046875 -2.359375 L 12.25 -0.28125 C 12.09375 -0.175781 11.863281 -0.0859375 11.5625 -0.015625 C 11.269531 0.0546875 10.953125 0.09375 10.609375 0.09375 C 9.898438 0.09375 9.34375 -0.0390625 8.9375 -0.3125 C 8.539062 -0.59375 8.257812 -1.019531 8.09375 -1.59375 L 7.859375 -1.625 C 7.285156 -0.394531 6.207031 0.21875 4.625 0.21875 Z M 5.5625 -2 C 6.25 -2 6.796875 -2.226562 7.203125 -2.6875 C 7.617188 -3.15625 7.828125 -3.800781 7.828125 -4.625 L 7.828125 -5.828125 L 7.625 -5.859375 C 7.445312 -5.722656 7.210938 -5.601562 6.921875 -5.5 C 6.628906 -5.40625 6.210938 -5.3125 5.671875 -5.21875 C 5.023438 -5.113281 4.5625 -4.929688 4.28125 -4.671875 C 4 -4.410156 3.859375 -4.039062 3.859375 -3.5625 C 3.859375 -3.050781 4.007812 -2.660156 4.3125 -2.390625 C 4.613281 -2.128906 5.03125 -2 5.5625 -2 Z M 5.5625 -2 "/></g></g><g style="fill:#000000;fill-opacity:1;"><g transform="translate(380.404105, 291.747255)"><path style="stroke:none" d="M 5.546875 0.21875 C 4.734375 0.21875 3.988281 0.125 3.3125 -0.0625 C 2.644531 -0.25 2.070312 -0.507812 1.59375 -0.84375 C 1.113281 -1.175781 0.757812 -1.554688 0.53125 -1.984375 L 2.1875 -3.765625 L 2.421875 -3.765625 C 2.816406 -3.234375 3.28125 -2.835938 3.8125 -2.578125 C 4.351562 -2.316406 4.9375 -2.1875 5.5625 -2.1875 C 6.144531 -2.1875 6.582031 -2.285156 6.875 -2.484375 C 7.164062 -2.691406 7.3125 -2.992188 7.3125 -3.390625 C 7.3125 -3.679688 7.207031 -3.929688 7 -4.140625 C 6.789062 -4.347656 6.445312 -4.507812 5.96875 -4.625 L 4.40625 -5 C 3.226562 -5.28125 2.367188 -5.707031 1.828125 -6.28125 C 1.285156 -6.851562 1.015625 -7.582031 1.015625 -8.46875 C 1.015625 -9.207031 1.203125 -9.847656 1.578125 -10.390625 C 1.960938 -10.941406 2.492188 -11.359375 3.171875 -11.640625 C 3.859375 -11.929688 4.65625 -12.078125 5.5625 -12.078125 C 6.632812 -12.078125 7.519531 -11.921875 8.21875 -11.609375 C 8.914062 -11.304688 9.460938 -10.894531 9.859375 -10.375 L 8.265625 -8.65625 L 8.0625 -8.65625 C 7.726562 -9.03125 7.351562 -9.300781 6.9375 -9.46875 C 6.53125 -9.644531 6.070312 -9.734375 5.5625 -9.734375 C 4.382812 -9.734375 3.796875 -9.367188 3.796875 -8.640625 C 3.796875 -8.328125 3.90625 -8.070312 4.125 -7.875 C 4.34375 -7.6875 4.726562 -7.53125 5.28125 -7.40625 L 6.75 -7.09375 C 7.945312 -6.832031 8.820312 -6.414062 9.375 -5.84375 C 9.9375 -5.28125 10.21875 -4.519531 10.21875 -3.5625 C 10.21875 -2.800781 10.03125 -2.132812 9.65625 -1.5625 C 9.28125 -0.988281 8.742188 -0.546875 8.046875 -0.234375 C 7.347656 0.0664062 6.515625 0.21875 5.546875 0.21875 Z M 5.546875 0.21875 "/></g></g><g style="fill:#000000;fill-opacity:1;"><g transform="translate(391.326976, 291.747255)"><path style="stroke:none" d="M 8.171875 -2.828125 L 8.953125 -0.625 C 8.628906 -0.351562 8.222656 -0.144531 7.734375 0 C 7.242188 0.144531 6.691406 0.21875 6.078125 0.21875 C 4.796875 0.21875 3.820312 -0.128906 3.15625 -0.828125 C 2.488281 -1.523438 2.15625 -2.539062 2.15625 -3.875 L 2.15625 -9.5 L 0.359375 -9.5 L 0.359375 -11.859375 L 2.15625 -11.859375 L 2.15625 -14.171875 L 5.140625 -14.65625 L 5.140625 -11.859375 L 8.5 -11.859375 L 8.5 -9.5 L 5.140625 -9.5 L 5.140625 -4.078125 C 5.140625 -3.492188 5.257812 -3.066406 5.5 -2.796875 C 5.738281 -2.523438 6.09375 -2.390625 6.5625 -2.390625 C 7.09375 -2.390625 7.554688 -2.535156 7.953125 -2.828125 Z M 8.171875 -2.828125 "/></g></g><g style="fill:#000000;fill-opacity:1;"><g transform="translate(400.531401, 291.747255)"><path style="stroke:none" d="M 11.703125 -5.25 L 4.09375 -5.25 C 4.175781 -4.21875 4.46875 -3.46875 4.96875 -3 C 5.46875 -2.53125 6.15625 -2.296875 7.03125 -2.296875 C 7.707031 -2.296875 8.253906 -2.421875 8.671875 -2.671875 C 9.097656 -2.929688 9.441406 -3.316406 9.703125 -3.828125 L 9.921875 -3.828125 L 11.90625 -2.5625 C 11.519531 -1.738281 10.9375 -1.066406 10.15625 -0.546875 C 9.375 -0.0351562 8.332031 0.21875 7.03125 0.21875 C 5.800781 0.21875 4.738281 -0.0078125 3.84375 -0.46875 C 2.957031 -0.9375 2.269531 -1.628906 1.78125 -2.546875 C 1.300781 -3.472656 1.0625 -4.597656 1.0625 -5.921875 C 1.0625 -7.265625 1.316406 -8.394531 1.828125 -9.3125 C 2.335938 -10.238281 3.023438 -10.929688 3.890625 -11.390625 C 4.753906 -11.847656 5.726562 -12.078125 6.8125 -12.078125 C 8.488281 -12.078125 9.769531 -11.628906 10.65625 -10.734375 C 11.550781 -9.847656 12 -8.546875 12 -6.828125 C 12 -6.203125 11.976562 -5.71875 11.9375 -5.375 Z M 9.15625 -7.171875 C 9.125 -8.078125 8.910156 -8.734375 8.515625 -9.140625 C 8.128906 -9.554688 7.5625 -9.765625 6.8125 -9.765625 C 5.3125 -9.765625 4.425781 -8.898438 4.15625 -7.171875 Z M 9.15625 -7.171875 "/></g></g><g style="fill:#000000;fill-opacity:1;"><g transform="translate(413.409002, 291.747255)"><path style="stroke:none" d="M 1.703125 0 L 1.703125 -11.84375 L 4.59375 -11.84375 L 4.59375 -10.09375 L 4.828125 -10.046875 C 5.109375 -10.703125 5.484375 -11.179688 5.953125 -11.484375 C 6.421875 -11.796875 6.988281 -11.953125 7.65625 -11.953125 C 8.320312 -11.953125 8.832031 -11.835938 9.1875 -11.609375 L 8.6875 -9.046875 L 8.453125 -9 C 8.265625 -9.082031 8.078125 -9.140625 7.890625 -9.171875 C 7.710938 -9.210938 7.492188 -9.234375 7.234375 -9.234375 C 6.410156 -9.234375 5.78125 -8.941406 5.34375 -8.359375 C 4.90625 -7.773438 4.6875 -6.835938 4.6875 -5.546875 L 4.6875 0 Z M 1.703125 0 "/></g></g><g style="fill:#000000;fill-opacity:1;"><g transform="translate(244.475206, 281.997255)"><path style="stroke:none" d="M 1.03125 0 L 1.03125 -7.109375 L 2.734375 -7.109375 L 2.734375 -6.0625 L 2.875 -6.03125 C 3.3125 -6.832031 4.023438 -7.234375 5.015625 -7.234375 C 5.835938 -7.234375 6.441406 -7.007812 6.828125 -6.5625 C 7.210938 -6.113281 7.40625 -5.460938 7.40625 -4.609375 L 7.40625 0 L 5.625 0 L 5.625 -4.390625 C 5.625 -4.867188 5.53125 -5.210938 5.34375 -5.421875 C 5.15625 -5.628906 4.851562 -5.734375 4.4375 -5.734375 C 3.914062 -5.734375 3.515625 -5.566406 3.234375 -5.234375 C 2.953125 -4.898438 2.8125 -4.378906 2.8125 -3.671875 L 2.8125 0 Z M 1.03125 0 "/></g></g><g style="fill:#000000;fill-opacity:1;"><g transform="translate(252.792199, 281.997255)"><path style="stroke:none" d="M 3.515625 0.140625 C 2.953125 0.140625 2.453125 0.00390625 2.015625 -0.265625 C 1.585938 -0.546875 1.25 -0.960938 1 -1.515625 C 0.757812 -2.066406 0.640625 -2.742188 0.640625 -3.546875 C 0.640625 -4.359375 0.765625 -5.039062 1.015625 -5.59375 C 1.265625 -6.144531 1.609375 -6.554688 2.046875 -6.828125 C 2.492188 -7.097656 3.007812 -7.234375 3.59375 -7.234375 C 4.039062 -7.234375 4.425781 -7.15625 4.75 -7 C 5.070312 -6.851562 5.34375 -6.617188 5.5625 -6.296875 L 5.703125 -6.328125 L 5.703125 -9.953125 L 7.484375 -9.953125 L 7.484375 0 L 5.703125 0 L 5.703125 -0.921875 L 5.5625 -0.953125 C 5.375 -0.609375 5.109375 -0.335938 4.765625 -0.140625 C 4.421875 0.046875 4.003906 0.140625 3.515625 0.140625 Z M 4.09375 -1.375 C 4.59375 -1.375 4.988281 -1.550781 5.28125 -1.90625 C 5.570312 -2.269531 5.71875 -2.816406 5.71875 -3.546875 C 5.71875 -4.273438 5.570312 -4.816406 5.28125 -5.171875 C 4.988281 -5.535156 4.59375 -5.71875 4.09375 -5.71875 C 3.5625 -5.71875 3.15625 -5.539062 2.875 -5.1875 C 2.601562 -4.84375 2.46875 -4.296875 2.46875 -3.546875 C 2.46875 -2.796875 2.601562 -2.242188 2.875 -1.890625 C 3.15625 -1.546875 3.5625 -1.375 4.09375 -1.375 Z M 4.09375 -1.375 "/></g></g><g clip-rule="nonzero" clip-path="url(#3ab6fcf480)"><g clip-rule="nonzero" clip-path="url(#c9d65de8d3)"><g clip-rule="nonzero" clip-path="url(#5047656488)"><path style=" stroke:none;fill-rule:nonzero;fill:#ffde59;fill-opacity:1;" d="M 201.089844 260.960938 C 193.242188 266.421875 182.421875 264.46875 176.960938 256.621094 C 171.507812 248.777344 173.453125 237.96875 181.300781 232.507812 C 189.148438 227.050781 199.964844 228.984375 205.421875 236.824219 C 210.878906 244.675781 208.9375 255.503906 201.089844 260.960938 Z M 212.851562 234.253906 C 212.5 233.644531 212.125 233.046875 211.707031 232.449219 C 211.304688 231.871094 210.875 231.308594 210.417969 230.761719 L 213.5625 222.476562 C 213.753906 222.011719 213.597656 221.460938 213.210938 221.125 C 212.101562 220.171875 211.011719 219.351562 209.921875 218.609375 C 209.492188 218.3125 208.984375 218.351562 208.527344 218.632812 L 201.371094 223.910156 C 200.097656 223.359375 198.769531 222.882812 197.390625 222.527344 L 195.03125 213.917969 C 194.890625 213.445312 194.480469 213.070312 193.949219 213.03125 C 192.714844 212.933594 191.417969 212.902344 189.816406 212.972656 C 189.300781 212.980469 188.859375 213.332031 188.699219 213.824219 L 186.019531 222.289062 C 184.597656 222.585938 183.226562 222.992188 181.9375 223.515625 L 175.054688 217.960938 C 174.667969 217.644531 174.089844 217.609375 173.65625 217.871094 L 173.300781 218.082031 C 172.347656 218.65625 171.421875 219.300781 170.550781 219.996094 L 170.246094 220.246094 C 169.835938 220.566406 169.695312 221.105469 169.839844 221.585938 L 172.640625 229.980469 C 171.71875 231 170.847656 232.152344 170.070312 233.382812 L 161.21875 232.941406 C 160.699219 232.917969 160.207031 233.21875 160.019531 233.699219 C 159.421875 235.160156 158.96875 236.40625 158.636719 237.59375 C 158.511719 238.089844 158.695312 238.621094 159.113281 238.902344 L 166.367188 244.109375 C 166.210938 245.53125 166.179688 246.953125 166.265625 248.332031 L 158.835938 253.195312 C 158.46875 253.472656 158.191406 254 158.308594 254.511719 C 158.625 255.792969 159.011719 257.101562 159.523438 258.472656 C 159.703125 258.949219 160.167969 259.285156 160.667969 259.269531 L 169.542969 259.195312 C 169.882812 259.824219 170.261719 260.421875 170.664062 261 C 171.078125 261.597656 171.507812 262.160156 171.972656 262.691406 L 168.816406 270.980469 C 168.640625 271.46875 168.78125 272 169.171875 272.34375 C 170.277344 273.300781 171.363281 274.109375 172.457031 274.851562 C 172.890625 275.132812 173.527344 275.117188 173.875 274.816406 L 181.027344 269.550781 C 182.285156 270.105469 183.625 270.570312 185.015625 270.917969 L 187.371094 279.527344 C 187.496094 280.023438 187.933594 280.378906 188.4375 280.4375 C 189.695312 280.515625 191.046875 280.542969 192.566406 280.492188 C 193.101562 280.457031 193.535156 280.125 193.691406 279.625 L 196.359375 271.171875 C 197.800781 270.871094 199.171875 270.464844 200.441406 269.945312 L 207.34375 275.5 C 207.753906 275.816406 208.292969 275.855469 208.742188 275.585938 L 209.210938 275.304688 C 209.640625 275.050781 210.070312 274.78125 210.5 274.484375 C 210.921875 274.191406 211.332031 273.875 211.738281 273.546875 L 212.152344 273.214844 C 212.546875 272.898438 212.726562 272.359375 212.558594 271.871094 L 209.738281 263.480469 C 210.679688 262.460938 211.539062 261.316406 212.308594 260.078125 L 221.171875 260.511719 C 221.691406 260.53125 222.171875 260.238281 222.363281 259.765625 C 222.953125 258.347656 223.410156 257.0625 223.75 255.871094 C 223.898438 255.363281 223.691406 254.847656 223.289062 254.542969 L 216.039062 249.335938 C 216.1875 247.921875 216.214844 246.503906 216.132812 245.128906 L 223.566406 240.253906 C 224.023438 239.972656 224.191406 239.445312 224.070312 238.945312 C 223.765625 237.660156 223.371094 236.371094 222.863281 234.996094 C 222.675781 234.511719 222.226562 234.195312 221.707031 234.1875 L 212.851562 234.253906 "/></g></g></g><g clip-rule="nonzero" clip-path="url(#0d3024e48e)"><g clip-rule="nonzero" clip-path="url(#5547bf1256)"><g clip-rule="nonzero" clip-path="url(#587120cde1)"><path style=" stroke:none;fill-rule:nonzero;fill:#333333;fill-opacity:1;" d="M 230.925781 225.789062 C 225.550781 229.527344 224.199219 236.921875 227.9375 242.296875 C 231.675781 247.671875 239.085938 248.984375 244.460938 245.246094 C 249.808594 241.527344 251.148438 234.128906 247.410156 228.753906 C 243.671875 223.378906 236.273438 222.070312 230.925781 225.789062 Z M 253.378906 258.070312 C 253.003906 258.332031 252.613281 258.578125 252.304688 258.761719 L 251.9375 258.984375 C 251.058594 259.507812 249.953125 259.4375 249.171875 258.792969 L 244.515625 255.0625 C 243.960938 255.246094 243.40625 255.414062 242.8125 255.574219 L 241.007812 261.265625 C 240.855469 261.765625 240.535156 262.21875 240.085938 262.53125 C 239.710938 262.792969 239.253906 262.933594 238.796875 262.96875 C 237.621094 263.011719 236.53125 262.988281 235.453125 262.910156 C 234.429688 262.824219 233.558594 262.105469 233.289062 261.128906 L 231.734375 255.324219 C 231.148438 255.167969 230.597656 254.964844 230.046875 254.757812 L 225.269531 258.292969 C 225.21875 258.328125 225.195312 258.347656 225.144531 258.382812 C 224.371094 258.921875 223.257812 258.921875 222.449219 258.371094 C 221.570312 257.777344 220.6875 257.117188 219.78125 256.351562 C 219.007812 255.6875 218.742188 254.609375 219.078125 253.660156 L 221.207031 248.054688 C 221.03125 247.832031 220.859375 247.582031 220.691406 247.339844 C 220.523438 247.097656 220.355469 246.855469 220.210938 246.59375 L 214.230469 246.640625 C 213.214844 246.667969 212.292969 246.039062 211.941406 245.078125 C 211.515625 243.9375 211.195312 242.886719 210.949219 241.839844 C 210.734375 240.941406 211.121094 239.929688 211.894531 239.335938 C 211.921875 239.316406 211.972656 239.28125 211.972656 239.28125 L 216.988281 235.988281 C 216.988281 235.402344 217.007812 234.792969 217.050781 234.214844 L 212.140625 230.722656 C 211.320312 230.132812 210.957031 229.074219 211.230469 228.089844 C 211.511719 227.101562 211.851562 226.101562 212.34375 224.9375 C 212.523438 224.503906 212.824219 224.140625 213.199219 223.878906 C 213.648438 223.566406 214.175781 223.414062 214.707031 223.453125 L 220.671875 223.742188 C 221.019531 223.230469 221.378906 222.761719 221.738281 222.316406 L 219.863281 216.65625 C 219.53125 215.6875 219.855469 214.625 220.648438 214.003906 L 220.871094 213.820312 C 221.238281 213.519531 221.605469 213.25 222.007812 212.972656 C 222.382812 212.714844 222.789062 212.441406 223.1875 212.210938 L 223.433594 212.070312 C 224.296875 211.539062 225.398438 211.605469 226.183594 212.257812 L 230.851562 215.980469 C 231.390625 215.796875 231.953125 215.625 232.542969 215.484375 L 234.351562 209.765625 C 234.496094 209.277344 234.832031 208.832031 235.273438 208.523438 C 235.65625 208.257812 236.109375 208.101562 236.5625 208.09375 C 237.855469 208.03125 238.90625 208.054688 239.929688 208.128906 C 240.925781 208.226562 241.800781 208.929688 242.058594 209.914062 L 243.648438 215.714844 C 244.203125 215.875 244.769531 216.078125 245.308594 216.289062 C 245.308594 216.289062 250.148438 212.726562 250.164062 212.714844 C 250.1875 212.699219 250.199219 212.6875 250.214844 212.679688 C 251.078125 212.136719 252.109375 212.128906 252.914062 212.671875 C 253.785156 213.257812 254.660156 213.925781 255.585938 214.699219 C 256.359375 215.386719 256.628906 216.46875 256.25 217.414062 L 254.140625 222.992188 C 254.324219 223.226562 254.492188 223.46875 254.660156 223.710938 C 254.828125 223.953125 255 224.203125 255.148438 224.441406 L 261.144531 224.398438 C 262.144531 224.398438 263.0625 225.023438 263.421875 225.964844 C 263.847656 227.109375 264.160156 228.171875 264.414062 229.203125 C 264.636719 230.164062 264.261719 231.171875 263.460938 231.726562 C 263.4375 231.746094 263.390625 231.777344 263.359375 231.796875 L 258.363281 235.058594 C 258.378906 235.640625 258.367188 236.234375 258.328125 236.824219 L 263.21875 240.332031 C 264.027344 240.910156 264.402344 241.976562 264.140625 242.9375 C 263.863281 243.945312 263.484375 244.980469 263.015625 246.125 C 262.839844 246.527344 262.546875 246.886719 262.152344 247.164062 C 261.722656 247.460938 261.199219 247.613281 260.671875 247.601562 L 254.683594 247.316406 C 254.351562 247.796875 253.980469 248.277344 253.628906 248.722656 L 255.496094 254.398438 C 255.816406 255.335938 255.523438 256.402344 254.722656 257.046875 L 254.375 257.320312 C 254.089844 257.550781 253.738281 257.820312 253.378906 258.070312 "/></g></g></g><g clip-rule="nonzero" clip-path="url(#0f134f9d7d)"><g clip-rule="nonzero" clip-path="url(#50a0f89a1d)"><g clip-rule="nonzero" clip-path="url(#f0d6d2ceb7)"><path style=" stroke:none;fill-rule:nonzero;fill:#abd91a;fill-opacity:1;" d="M 245.304688 246.460938 C 239.253906 250.671875 230.941406 249.167969 226.742188 243.128906 C 222.542969 237.089844 224.027344 228.78125 230.078125 224.570312 C 236.097656 220.382812 244.421875 221.871094 248.625 227.910156 C 252.824219 233.945312 251.328125 242.273438 245.304688 246.460938 Z M 254.34375 225.921875 C 254.058594 225.457031 253.777344 224.996094 253.460938 224.542969 C 253.144531 224.089844 252.8125 223.664062 252.480469 223.242188 L 254.886719 216.863281 C 255.03125 216.507812 254.917969 216.089844 254.632812 215.828125 C 253.75 215.101562 252.933594 214.460938 252.097656 213.890625 C 251.757812 213.671875 251.351562 213.703125 251 213.921875 L 245.492188 217.972656 C 244.542969 217.535156 243.503906 217.191406 242.445312 216.921875 L 240.636719 210.292969 C 240.523438 209.914062 240.199219 209.640625 239.785156 209.605469 C 238.863281 209.53125 237.851562 209.511719 236.621094 209.558594 C 236.222656 209.578125 235.882812 209.835938 235.769531 210.207031 L 233.703125 216.71875 C 232.601562 216.957031 231.554688 217.261719 230.574219 217.667969 L 225.253906 213.402344 C 224.953125 213.152344 224.527344 213.125 224.191406 213.339844 L 223.921875 213.484375 C 223.191406 213.933594 222.46875 214.4375 221.800781 214.964844 L 221.566406 215.164062 C 221.25 215.402344 221.128906 215.8125 221.253906 216.183594 L 223.414062 222.648438 C 222.695312 223.425781 222.03125 224.308594 221.429688 225.253906 L 214.625 224.914062 C 214.214844 224.914062 213.851562 225.140625 213.710938 225.496094 C 213.242188 226.628906 212.902344 227.585938 212.636719 228.488281 C 212.546875 228.878906 212.675781 229.285156 213.007812 229.511719 L 218.585938 233.519531 C 218.46875 234.605469 218.445312 235.6875 218.5 236.75 L 212.785156 240.503906 C 212.519531 240.710938 212.292969 241.125 212.390625 241.507812 C 212.617188 242.503906 212.933594 243.492188 213.328125 244.5625 C 213.464844 244.925781 213.8125 245.179688 214.207031 245.160156 L 221.035156 245.117188 C 221.292969 245.589844 221.589844 246.042969 221.90625 246.496094 C 222.21875 246.945312 222.542969 247.382812 222.898438 247.792969 L 220.476562 254.171875 C 220.332031 254.550781 220.449219 254.960938 220.742188 255.222656 C 221.601562 255.953125 222.417969 256.59375 223.273438 257.15625 C 223.597656 257.378906 224.09375 257.351562 224.347656 257.128906 L 229.851562 253.074219 C 230.832031 253.496094 231.855469 253.851562 232.921875 254.128906 L 234.734375 260.746094 C 234.835938 261.140625 235.175781 261.410156 235.5625 261.445312 C 236.523438 261.519531 237.574219 261.527344 238.742188 261.484375 C 239.128906 261.476562 239.46875 261.21875 239.601562 260.820312 L 241.65625 254.316406 C 242.753906 254.082031 243.804688 253.777344 244.792969 253.378906 L 250.101562 257.65625 C 250.398438 257.890625 250.832031 257.925781 251.167969 257.71875 L 251.539062 257.511719 C 251.867188 257.289062 252.203125 257.097656 252.539062 256.863281 C 252.847656 256.648438 253.167969 256.382812 253.464844 256.171875 L 253.792969 255.890625 C 254.105469 255.648438 254.222656 255.230469 254.101562 254.875 L 251.953125 248.398438 C 252.65625 247.621094 253.316406 246.734375 253.921875 245.789062 L 260.746094 246.113281 C 261.136719 246.136719 261.5 245.914062 261.652344 245.546875 C 262.105469 244.464844 262.457031 243.480469 262.710938 242.5625 C 262.828125 242.171875 262.683594 241.773438 262.363281 241.527344 L 256.78125 237.53125 C 256.890625 236.4375 256.929688 235.34375 256.847656 234.296875 L 262.5625 230.542969 C 262.917969 230.328125 263.0625 229.925781 262.980469 229.539062 C 262.734375 228.550781 262.445312 227.546875 262.046875 226.488281 C 261.902344 226.125 261.550781 225.882812 261.15625 225.875 L 254.34375 225.921875 "/></g></g></g><g clip-rule="nonzero" clip-path="url(#3f68384ef8)"><g clip-rule="nonzero" clip-path="url(#f897e3a4f7)"><g clip-rule="nonzero" clip-path="url(#6399487952)"><g clip-rule="nonzero" clip-path="url(#a4d1f9218e)"><path style=" stroke:none;fill-rule:nonzero;fill:#333333;fill-opacity:1;" d="M 208.546875 185.195312 C 201.972656 189.765625 200.34375 198.84375 204.921875 205.421875 C 209.5 212.003906 218.578125 213.636719 225.148438 209.066406 C 231.746094 204.476562 233.371094 195.398438 228.792969 188.820312 C 224.214844 182.238281 215.140625 180.605469 208.546875 185.195312 Z M 236.09375 224.800781 C 235.644531 225.113281 235.191406 225.398438 234.785156 225.636719 L 234.367188 225.890625 C 233.269531 226.550781 231.90625 226.460938 230.949219 225.671875 L 225.242188 221.089844 C 224.570312 221.324219 223.886719 221.539062 223.15625 221.71875 L 220.9375 228.710938 C 220.757812 229.308594 220.34375 229.886719 219.804688 230.261719 C 219.34375 230.582031 218.789062 230.765625 218.230469 230.785156 C 216.78125 230.84375 215.4375 230.832031 214.109375 230.730469 C 212.867188 230.621094 211.792969 229.746094 211.5 228.527344 L 209.542969 221.421875 C 208.851562 221.203125 208.175781 220.972656 207.496094 220.714844 L 201.632812 225.0625 C 201.582031 225.097656 201.535156 225.128906 201.484375 225.164062 C 200.53125 225.824219 199.164062 225.824219 198.171875 225.152344 C 197.074219 224.429688 196.011719 223.613281 194.882812 222.660156 C 193.953125 221.855469 193.613281 220.535156 194.039062 219.371094 L 196.648438 212.503906 C 196.4375 212.230469 196.222656 211.921875 196.011719 211.621094 C 195.808594 211.324219 195.601562 211.027344 195.394531 210.707031 L 188.074219 210.769531 C 186.847656 210.78125 185.714844 210.011719 185.269531 208.839844 C 184.765625 207.449219 184.363281 206.15625 184.0625 204.867188 C 183.800781 203.769531 184.253906 202.523438 185.226562 201.792969 C 185.253906 201.773438 185.324219 201.722656 185.324219 201.722656 L 191.472656 197.679688 C 191.476562 196.964844 191.488281 196.242188 191.527344 195.519531 L 185.511719 191.222656 C 184.503906 190.515625 184.058594 189.210938 184.394531 188.011719 C 184.734375 186.792969 185.171875 185.5625 185.777344 184.128906 C 185.988281 183.613281 186.355469 183.15625 186.816406 182.835938 C 187.351562 182.460938 188.015625 182.285156 188.660156 182.304688 L 195.988281 182.664062 C 196.414062 182.042969 196.859375 181.457031 197.300781 180.921875 L 194.992188 173.980469 C 194.589844 172.785156 194.980469 171.480469 195.976562 170.703125 L 196.238281 170.492188 C 196.667969 170.152344 197.140625 169.78125 197.601562 169.460938 C 198.074219 169.132812 198.570312 168.832031 199.066406 168.523438 L 199.378906 168.335938 C 200.417969 167.695312 201.773438 167.789062 202.753906 168.582031 L 208.460938 173.160156 C 209.132812 172.925781 209.835938 172.707031 210.550781 172.535156 L 212.769531 165.515625 C 212.957031 164.933594 213.347656 164.378906 213.898438 163.996094 C 214.371094 163.664062 214.917969 163.484375 215.492188 163.460938 C 217.066406 163.402344 218.363281 163.425781 219.597656 163.523438 C 220.839844 163.625 221.90625 164.496094 222.226562 165.699219 L 224.15625 172.820312 C 224.859375 173.027344 225.539062 173.261719 226.203125 173.523438 C 226.203125 173.523438 232.164062 169.140625 232.179688 169.132812 C 232.191406 169.125 232.214844 169.105469 232.242188 169.089844 C 233.28125 168.421875 234.558594 168.417969 235.542969 169.097656 C 236.621094 169.785156 237.679688 170.613281 238.820312 171.585938 C 239.765625 172.414062 240.105469 173.734375 239.65625 174.890625 L 237.0625 181.722656 C 237.28125 182.035156 237.484375 182.332031 237.691406 182.628906 C 237.902344 182.929688 238.117188 183.238281 238.3125 183.519531 L 245.632812 183.484375 C 246.886719 183.480469 247.996094 184.246094 248.433594 185.40625 C 248.945312 186.8125 249.351562 188.085938 249.644531 189.382812 C 249.941406 190.558594 249.476562 191.78125 248.5 192.460938 C 248.449219 192.496094 248.421875 192.511719 248.375 192.546875 L 242.222656 196.554688 C 242.242188 197.277344 242.222656 197.988281 242.175781 198.722656 L 248.183594 203.019531 C 249.199219 203.730469 249.644531 205.039062 249.320312 206.226562 C 248.960938 207.46875 248.519531 208.730469 247.9375 210.121094 C 247.726562 210.625 247.351562 211.078125 246.890625 211.398438 C 246.355469 211.773438 245.710938 211.96875 245.066406 211.945312 L 237.71875 211.589844 C 237.308594 212.199219 236.855469 212.777344 236.402344 213.328125 L 238.710938 220.273438 C 239.125 221.429688 238.734375 222.75 237.769531 223.523438 L 237.332031 223.863281 C 236.976562 224.15625 236.554688 224.480469 236.09375 224.800781 "/></g></g></g></g><g clip-rule="nonzero" clip-path="url(#1315ce2fdd)"><g clip-rule="nonzero" clip-path="url(#da515bfab2)"><g clip-rule="nonzero" clip-path="url(#6499f02464)"><path style=" stroke:none;fill-rule:nonzero;fill:#6db6e7;fill-opacity:1;" d="M 226.1875 210.558594 C 218.792969 215.707031 208.585938 213.863281 203.4375 206.457031 C 198.289062 199.054688 200.109375 188.847656 207.507812 183.699219 C 214.929688 178.539062 225.132812 180.382812 230.28125 187.78125 C 235.433594 195.1875 233.613281 205.398438 226.1875 210.558594 Z M 237.289062 185.351562 C 236.957031 184.765625 236.597656 184.207031 236.214844 183.65625 C 235.828125 183.101562 235.425781 182.566406 234.992188 182.050781 L 237.976562 174.234375 C 238.140625 173.789062 238.011719 173.277344 237.644531 172.964844 C 236.570312 172.0625 235.5625 171.28125 234.539062 170.574219 C 234.117188 170.320312 233.636719 170.347656 233.207031 170.613281 L 226.457031 175.59375 C 225.261719 175.050781 223.996094 174.621094 222.691406 174.289062 L 220.480469 166.171875 C 220.351562 165.699219 219.941406 165.367188 219.464844 165.324219 C 218.289062 165.234375 217.0625 165.210938 215.550781 165.269531 C 215.0625 165.289062 214.632812 165.613281 214.507812 166.0625 L 211.96875 174.066406 C 210.628906 174.351562 209.347656 174.722656 208.128906 175.210938 L 201.628906 169.972656 C 201.257812 169.679688 200.726562 169.640625 200.300781 169.902344 L 199.996094 170.082031 C 199.078125 170.628906 198.183594 171.253906 197.375 171.90625 L 197.085938 172.136719 C 196.707031 172.4375 196.574219 172.9375 196.703125 173.398438 L 199.355469 181.316406 C 198.472656 182.285156 197.667969 183.367188 196.933594 184.523438 L 188.574219 184.105469 C 188.074219 184.085938 187.628906 184.371094 187.445312 184.820312 C 186.855469 186.222656 186.457031 187.378906 186.144531 188.503906 C 186.019531 188.964844 186.183594 189.464844 186.570312 189.761719 L 193.425781 194.644531 C 193.277344 195.988281 193.242188 197.320312 193.339844 198.628906 L 186.308594 203.238281 C 185.996094 203.484375 185.714844 203.988281 185.820312 204.460938 C 186.109375 205.679688 186.496094 206.894531 186.976562 208.210938 C 187.144531 208.65625 187.578125 208.960938 188.058594 208.957031 L 196.425781 208.878906 C 196.742188 209.472656 197.101562 210.042969 197.484375 210.59375 C 197.867188 211.144531 198.273438 211.675781 198.71875 212.179688 L 195.746094 220.007812 C 195.574219 220.457031 195.710938 220.96875 196.070312 221.28125 C 197.132812 222.183594 198.136719 222.96875 199.175781 223.65625 C 199.578125 223.921875 200.195312 223.898438 200.496094 223.632812 L 207.253906 218.636719 C 208.449219 219.175781 209.71875 219.625 211.03125 219.957031 L 213.226562 228.078125 C 213.367188 228.546875 213.777344 228.871094 214.257812 228.917969 C 215.433594 229.011719 216.707031 229.03125 218.15625 228.976562 C 218.648438 228.941406 219.066406 228.636719 219.222656 228.167969 L 221.738281 220.160156 C 223.078125 219.902344 224.371094 219.519531 225.582031 219.019531 L 232.085938 224.265625 C 232.480469 224.558594 232.992188 224.601562 233.410156 224.351562 L 233.851562 224.085938 C 234.257812 223.835938 234.675781 223.589844 235.0625 223.320312 C 235.460938 223.042969 235.84375 222.734375 236.230469 222.433594 L 236.621094 222.117188 C 237.003906 221.8125 237.164062 221.300781 237.011719 220.839844 L 234.359375 212.914062 C 235.230469 211.964844 236.042969 210.882812 236.761719 209.710938 L 245.15625 210.125 C 245.632812 210.148438 246.070312 209.867188 246.265625 209.425781 C 246.816406 208.085938 247.238281 206.886719 247.578125 205.742188 C 247.699219 205.273438 247.535156 204.777344 247.136719 204.492188 L 240.296875 199.597656 C 240.4375 198.257812 240.464844 196.90625 240.375 195.601562 L 247.398438 191.011719 C 247.835938 190.753906 247.980469 190.253906 247.890625 189.769531 C 247.589844 188.570312 247.207031 187.351562 246.738281 186.039062 C 246.574219 185.585938 246.140625 185.285156 245.664062 185.285156 L 237.289062 185.351562 "/></g></g></g><g clip-rule="nonzero" clip-path="url(#28a99a0d17)"><g clip-rule="nonzero" clip-path="url(#2e891d7abc)"><g clip-rule="nonzero" clip-path="url(#2eb28a9242)"><g clip-rule="nonzero" clip-path="url(#e6ac0a829e)"><path style=" stroke:none;fill-rule:nonzero;fill:#333333;fill-opacity:1;" d="M 176.890625 280.773438 C 172.515625 283.8125 171.441406 289.839844 174.472656 294.199219 C 177.507812 298.5625 183.527344 299.640625 187.898438 296.597656 C 192.261719 293.5625 193.339844 287.550781 190.304688 283.1875 C 187.273438 278.828125 181.25 277.738281 176.890625 280.773438 Z M 195.160156 307.039062 C 194.859375 307.246094 194.542969 307.433594 194.28125 307.59375 L 193.992188 307.761719 C 193.289062 308.183594 192.363281 308.136719 191.738281 307.609375 L 187.960938 304.578125 C 187.511719 304.734375 187.039062 304.875 186.570312 304.980469 L 185.09375 309.632812 C 184.96875 310.035156 184.703125 310.40625 184.34375 310.65625 C 184.042969 310.863281 183.683594 310.984375 183.300781 310.996094 C 182.332031 311.050781 181.457031 311.03125 180.570312 310.964844 C 179.738281 310.882812 179.042969 310.316406 178.824219 309.515625 L 177.546875 304.796875 C 177.078125 304.664062 176.625 304.496094 176.199219 304.335938 L 172.285156 307.214844 C 172.261719 307.230469 172.234375 307.25 172.199219 307.273438 C 171.5625 307.714844 170.671875 307.71875 170.003906 307.289062 C 169.289062 306.796875 168.574219 306.246094 167.835938 305.617188 C 167.210938 305.085938 167 304.203125 167.28125 303.429688 L 169.003906 298.890625 C 168.847656 298.695312 168.714844 298.503906 168.574219 298.304688 C 168.4375 298.105469 168.296875 297.90625 168.175781 297.703125 L 163.3125 297.726562 C 162.503906 297.734375 161.75 297.238281 161.464844 296.457031 C 161.128906 295.539062 160.859375 294.675781 160.660156 293.832031 C 160.496094 293.089844 160.792969 292.261719 161.425781 291.789062 C 161.441406 291.78125 161.492188 291.746094 161.503906 291.738281 L 165.578125 289.066406 C 165.558594 288.589844 165.578125 288.109375 165.601562 287.628906 L 161.617188 284.78125 C 160.953125 284.308594 160.652344 283.449219 160.878906 282.652344 C 161.113281 281.84375 161.402344 281.03125 161.796875 280.082031 C 161.941406 279.730469 162.179688 279.429688 162.480469 279.222656 C 162.839844 278.972656 163.277344 278.855469 163.707031 278.882812 L 168.566406 279.101562 C 168.851562 278.703125 169.132812 278.3125 169.433594 277.945312 L 167.902344 273.339844 C 167.625 272.574219 167.902344 271.6875 168.546875 271.183594 L 168.730469 271.039062 C 169.015625 270.808594 169.324219 270.566406 169.636719 270.347656 C 169.953125 270.132812 170.277344 269.929688 170.59375 269.742188 L 170.800781 269.617188 C 171.5 269.1875 172.410156 269.242188 173.054688 269.773438 L 176.832031 272.800781 C 177.28125 272.644531 177.730469 272.523438 178.222656 272.398438 L 179.695312 267.742188 C 179.8125 267.355469 180.089844 266.972656 180.4375 266.730469 C 180.734375 266.523438 181.109375 266.394531 181.492188 266.382812 C 182.539062 266.335938 183.40625 266.355469 184.210938 266.421875 C 185.050781 266.480469 185.75 267.058594 185.949219 267.878906 L 187.234375 272.582031 C 187.6875 272.726562 188.15625 272.871094 188.585938 273.0625 C 188.585938 273.0625 192.535156 270.152344 192.558594 270.132812 C 192.558594 270.132812 192.574219 270.125 192.585938 270.117188 C 193.292969 269.675781 194.128906 269.671875 194.769531 270.117188 C 195.488281 270.589844 196.199219 271.125 196.960938 271.765625 C 197.578125 272.3125 197.796875 273.1875 197.503906 273.941406 L 195.785156 278.496094 C 195.933594 278.683594 196.070312 278.882812 196.207031 279.082031 C 196.347656 279.28125 196.484375 279.476562 196.609375 279.6875 L 201.472656 279.644531 C 202.292969 279.652344 203.027344 280.171875 203.332031 280.925781 C 203.675781 281.84375 203.917969 282.710938 204.121094 283.558594 C 204.3125 284.339844 204.027344 285.132812 203.382812 285.582031 C 203.332031 285.617188 203.304688 285.636719 203.265625 285.664062 L 199.207031 288.328125 C 199.222656 288.777344 199.199219 289.277344 199.179688 289.75 L 203.148438 292.601562 C 203.828125 293.078125 204.132812 293.914062 203.917969 294.722656 C 203.675781 295.550781 203.371094 296.390625 202.984375 297.308594 C 202.863281 297.640625 202.625 297.9375 202.304688 298.164062 C 201.953125 298.40625 201.511719 298.523438 201.089844 298.503906 L 196.21875 298.269531 C 195.945312 298.679688 195.660156 299.066406 195.359375 299.433594 L 196.890625 304.039062 C 197.148438 304.808594 196.882812 305.679688 196.246094 306.195312 L 195.972656 306.417969 C 195.746094 306.597656 195.460938 306.828125 195.160156 307.039062 "/></g></g></g></g><g clip-rule="nonzero" clip-path="url(#249b02a3cd)"><g clip-rule="nonzero" clip-path="url(#a4b05957d9)"><g clip-rule="nonzero" clip-path="url(#2899c7576e)"><path style=" stroke:none;fill-rule:nonzero;fill:#ed1d49;fill-opacity:1;" d="M 188.589844 297.59375 C 183.679688 301.007812 176.90625 299.78125 173.496094 294.878906 C 170.082031 289.972656 171.292969 283.199219 176.203125 279.785156 C 181.101562 276.378906 187.882812 277.589844 191.296875 282.5 C 194.703125 287.398438 193.488281 294.183594 188.589844 297.59375 Z M 195.941406 280.886719 C 195.710938 280.503906 195.472656 280.136719 195.21875 279.769531 C 194.960938 279.402344 194.695312 279.046875 194.425781 278.710938 L 196.390625 273.511719 C 196.5 273.234375 196.40625 272.890625 196.164062 272.675781 C 195.464844 272.070312 194.796875 271.5625 194.101562 271.097656 C 193.84375 270.917969 193.53125 270.941406 193.242188 271.117188 L 188.757812 274.425781 C 187.960938 274.074219 187.125 273.785156 186.261719 273.554688 L 184.789062 268.191406 C 184.714844 267.867188 184.441406 267.636719 184.117188 267.625 C 183.351562 267.554688 182.539062 267.535156 181.542969 267.574219 C 181.214844 267.582031 180.925781 267.808594 180.84375 268.113281 L 179.148438 273.414062 C 178.265625 273.605469 177.414062 273.84375 176.605469 274.179688 L 172.292969 270.699219 C 172.046875 270.507812 171.699219 270.484375 171.417969 270.644531 L 171.222656 270.757812 C 170.609375 271.128906 170.019531 271.539062 169.472656 271.976562 L 169.28125 272.128906 C 169.050781 272.328125 168.9375 272.671875 169.03125 272.96875 L 170.796875 278.222656 C 170.199219 278.863281 169.679688 279.578125 169.191406 280.34375 L 163.644531 280.074219 C 163.316406 280.058594 163.019531 280.242188 162.898438 280.546875 C 162.527344 281.457031 162.25 282.230469 162.035156 282.984375 C 161.945312 283.285156 162.054688 283.628906 162.320312 283.824219 L 166.863281 287.046875 C 166.777344 287.9375 166.761719 288.820312 166.796875 289.699219 L 162.148438 292.746094 C 161.925781 292.90625 161.75 293.242188 161.816406 293.554688 C 162.011719 294.367188 162.269531 295.160156 162.582031 296.035156 C 162.699219 296.335938 163.003906 296.53125 163.296875 296.53125 L 168.867188 296.484375 C 169.066406 296.875 169.304688 297.25 169.5625 297.617188 C 169.816406 297.984375 170.078125 298.332031 170.382812 298.664062 L 168.394531 303.855469 C 168.304688 304.148438 168.375 304.496094 168.613281 304.707031 C 169.320312 305.296875 169.980469 305.820312 170.671875 306.28125 C 170.949219 306.460938 171.347656 306.449219 171.550781 306.265625 L 176.023438 302.960938 C 176.839844 303.304688 177.667969 303.59375 178.53125 303.824219 L 179.980469 309.214844 C 180.066406 309.523438 180.351562 309.742188 180.664062 309.769531 C 181.449219 309.832031 182.292969 309.847656 183.25 309.804688 C 183.578125 309.796875 183.851562 309.578125 183.953125 309.269531 L 185.640625 303.957031 C 186.515625 303.78125 187.367188 303.542969 188.183594 303.21875 L 192.484375 306.683594 C 192.734375 306.882812 193.097656 306.902344 193.359375 306.746094 L 193.664062 306.566406 C 193.9375 306.398438 194.191406 306.234375 194.46875 306.042969 C 194.730469 305.859375 194.988281 305.671875 195.226562 305.480469 L 195.496094 305.257812 C 195.75 305.058594 195.847656 304.722656 195.746094 304.414062 L 193.992188 299.179688 C 194.582031 298.523438 195.101562 297.808594 195.585938 297.042969 L 201.152344 297.308594 C 201.460938 297.328125 201.738281 297.144531 201.894531 296.832031 C 202.253906 295.960938 202.535156 295.164062 202.75 294.40625 C 202.847656 294.09375 202.726562 293.761719 202.453125 293.582031 L 197.929688 290.328125 C 198.015625 289.441406 198.035156 288.558594 197.980469 287.6875 L 202.648438 284.636719 C 202.910156 284.480469 203.042969 284.136719 202.957031 283.824219 C 202.777344 283.007812 202.515625 282.207031 202.195312 281.347656 C 202.082031 281.050781 201.796875 280.851562 201.484375 280.835938 L 195.941406 280.886719 "/></g></g></g></g></svg>