<svg xmlns="http://www.w3.org/2000/svg" xmlns:xlink="http://www.w3.org/1999/xlink" width="800" zoomAndPan="magnify" viewBox="0 0 600 599.999999" height="800" preserveAspectRatio="xMidYMid meet" version="1.2"><defs><clipPath id="b2f1f79e9f"><path d="M 159.9375 214.875 L 440 214.875 L 440 284.625 L 159.9375 284.625 Z M 159.9375 214.875 "/></clipPath><clipPath id="5eadb168b4"><path d="M 147.390625 242.175781 L 156.820312 242.175781 L 156.820312 245.585938 L 147.390625 245.585938 Z M 147.390625 242.175781 "/></clipPath><clipPath id="3d02fdd022"><path d="M 159.71875 242.121094 L 169.148438 242.121094 L 169.148438 245.585938 L 159.71875 245.585938 Z M 159.71875 242.121094 "/></clipPath><clipPath id="393cb1ca93"><path d="M 112.726562 147.335938 L 140.910156 147.335938 L 140.910156 169.914062 L 112.726562 169.914062 Z M 112.726562 147.335938 "/></clipPath><clipPath id="e5b072c1a9"><path d="M 134 147.335938 L 145 147.335938 L 145 168 L 134 168 Z M 134 147.335938 "/></clipPath><clipPath id="0d149f2a4b"><path d="M 177 147.335938 L 205.660156 147.335938 L 205.660156 170 L 177 170 Z M 177 147.335938 "/></clipPath><clipPath id="5e51c390ad"><path d="M 174 147.335938 L 185 147.335938 L 185 168 L 174 168 Z M 174 147.335938 "/></clipPath></defs><g id="39fe0dde8d"><g clip-rule="nonzero" clip-path="url(#b2f1f79e9f)"><path style=" stroke:none;fill-rule:nonzero;fill:#ff9999;fill-opacity:1;" d="M 159.9375 214.875 L 159.9375 284.625 L 439.792969 284.625 L 439.792969 214.875 Z M 159.9375 214.875 "/></g><g style="fill:#000000;fill-opacity:1;"><g transform="translate(189.645299, 257.626298)"><path style="stroke:none" d="M 6.40625 0.21875 C 4.71875 0.21875 3.378906 -0.132812 2.390625 -0.84375 C 1.398438 -1.550781 0.773438 -2.5625 0.515625 -3.875 L 2.875 -4.96875 L 3.109375 -4.921875 C 3.378906 -4.054688 3.757812 -3.421875 4.25 -3.015625 C 4.738281 -2.617188 5.421875 -2.421875 6.296875 -2.421875 C 7.140625 -2.421875 7.78125 -2.617188 8.21875 -3.015625 C 8.664062 -3.410156 8.890625 -3.984375 8.890625 -4.734375 C 8.890625 -5.472656 8.671875 -6.039062 8.234375 -6.4375 C 7.796875 -6.832031 7.148438 -7.03125 6.296875 -7.03125 L 3.9375 -7.03125 L 3.9375 -9.4375 L 6 -9.4375 C 6.695312 -9.4375 7.253906 -9.613281 7.671875 -9.96875 C 8.085938 -10.320312 8.296875 -10.820312 8.296875 -11.46875 C 8.296875 -12.113281 8.097656 -12.597656 7.703125 -12.921875 C 7.316406 -13.253906 6.78125 -13.421875 6.09375 -13.421875 C 5.382812 -13.421875 4.757812 -13.253906 4.21875 -12.921875 C 3.6875 -12.585938 3.253906 -12.144531 2.921875 -11.59375 L 2.671875 -11.546875 L 1.046875 -13.453125 C 1.597656 -14.191406 2.304688 -14.789062 3.171875 -15.25 C 4.035156 -15.707031 5.066406 -15.9375 6.265625 -15.9375 C 7.910156 -15.9375 9.164062 -15.59375 10.03125 -14.90625 C 10.894531 -14.21875 11.328125 -13.25 11.328125 -12 C 11.328125 -11.25 11.148438 -10.601562 10.796875 -10.0625 C 10.453125 -9.53125 9.953125 -9.070312 9.296875 -8.6875 L 9.296875 -8.46875 C 11.109375 -7.832031 12.015625 -6.539062 12.015625 -4.59375 C 12.015625 -3.625 11.804688 -2.773438 11.390625 -2.046875 C 10.972656 -1.328125 10.34375 -0.769531 9.5 -0.375 C 8.664062 0.0195312 7.632812 0.21875 6.40625 0.21875 Z M 6.40625 0.21875 "/></g></g><g style="fill:#000000;fill-opacity:1;"><g transform="translate(216.727329, 257.626298)"><path style="stroke:none" d=""/></g></g><g style="fill:#000000;fill-opacity:1;"><g transform="translate(221.91489, 257.626298)"><path style="stroke:none" d="M 7.625 0.21875 C 6.3125 0.21875 5.175781 -0.078125 4.21875 -0.671875 C 3.269531 -1.265625 2.535156 -2.164062 2.015625 -3.375 C 1.492188 -4.582031 1.234375 -6.078125 1.234375 -7.859375 C 1.234375 -9.640625 1.546875 -11.132812 2.171875 -12.34375 C 2.796875 -13.550781 3.660156 -14.453125 4.765625 -15.046875 C 5.867188 -15.640625 7.148438 -15.9375 8.609375 -15.9375 C 10.117188 -15.9375 11.398438 -15.65625 12.453125 -15.09375 C 13.515625 -14.53125 14.265625 -13.695312 14.703125 -12.59375 L 12.421875 -11.21875 L 12.15625 -11.234375 C 11.832031 -11.941406 11.378906 -12.453125 10.796875 -12.765625 C 10.210938 -13.085938 9.484375 -13.25 8.609375 -13.25 C 7.253906 -13.25 6.21875 -12.820312 5.5 -11.96875 C 4.789062 -11.113281 4.4375 -9.742188 4.4375 -7.859375 C 4.4375 -5.953125 4.769531 -4.566406 5.4375 -3.703125 C 6.113281 -2.847656 7.101562 -2.421875 8.40625 -2.421875 C 9.539062 -2.421875 10.375 -2.675781 10.90625 -3.1875 C 11.445312 -3.695312 11.71875 -4.457031 11.71875 -5.46875 L 11.71875 -6.140625 L 8 -6.140625 L 8 -8.671875 L 14.796875 -8.671875 L 14.796875 0 L 11.84375 0 L 11.84375 -2.109375 L 11.609375 -2.140625 C 11.285156 -1.390625 10.796875 -0.804688 10.140625 -0.390625 C 9.484375 0.015625 8.644531 0.21875 7.625 0.21875 Z M 7.625 0.21875 "/></g></g><g style="fill:#000000;fill-opacity:1;"><g transform="translate(238.293822, 257.626298)"><path style="stroke:none" d="M 11.703125 -5.25 L 4.09375 -5.25 C 4.175781 -4.21875 4.46875 -3.46875 4.96875 -3 C 5.46875 -2.53125 6.15625 -2.296875 7.03125 -2.296875 C 7.707031 -2.296875 8.253906 -2.421875 8.671875 -2.671875 C 9.097656 -2.929688 9.441406 -3.316406 9.703125 -3.828125 L 9.921875 -3.828125 L 11.90625 -2.5625 C 11.519531 -1.738281 10.9375 -1.066406 10.15625 -0.546875 C 9.375 -0.0351562 8.332031 0.21875 7.03125 0.21875 C 5.800781 0.21875 4.738281 -0.0078125 3.84375 -0.46875 C 2.957031 -0.9375 2.269531 -1.628906 1.78125 -2.546875 C 1.300781 -3.472656 1.0625 -4.597656 1.0625 -5.921875 C 1.0625 -7.265625 1.316406 -8.394531 1.828125 -9.3125 C 2.335938 -10.238281 3.023438 -10.929688 3.890625 -11.390625 C 4.753906 -11.847656 5.726562 -12.078125 6.8125 -12.078125 C 8.488281 -12.078125 9.769531 -11.628906 10.65625 -10.734375 C 11.550781 -9.847656 12 -8.546875 12 -6.828125 C 12 -6.203125 11.976562 -5.71875 11.9375 -5.375 Z M 9.15625 -7.171875 C 9.125 -8.078125 8.910156 -8.734375 8.515625 -9.140625 C 8.128906 -9.554688 7.5625 -9.765625 6.8125 -9.765625 C 5.3125 -9.765625 4.425781 -8.898438 4.15625 -7.171875 Z M 9.15625 -7.171875 "/></g></g><g style="fill:#000000;fill-opacity:1;"><g transform="translate(251.171422, 257.626298)"><path style="stroke:none" d="M 1.703125 0 L 1.703125 -11.84375 L 4.5625 -11.84375 L 4.5625 -10.109375 L 4.796875 -10.0625 C 5.523438 -11.40625 6.71875 -12.078125 8.375 -12.078125 C 9.75 -12.078125 10.753906 -11.703125 11.390625 -10.953125 C 12.035156 -10.210938 12.359375 -9.128906 12.359375 -7.703125 L 12.359375 0 L 9.375 0 L 9.375 -7.34375 C 9.375 -8.125 9.21875 -8.6875 8.90625 -9.03125 C 8.59375 -9.382812 8.085938 -9.5625 7.390625 -9.5625 C 6.535156 -9.5625 5.867188 -9.285156 5.390625 -8.734375 C 4.921875 -8.179688 4.6875 -7.316406 4.6875 -6.140625 L 4.6875 0 Z M 1.703125 0 "/></g></g><g style="fill:#000000;fill-opacity:1;"><g transform="translate(265.047864, 257.626298)"><path style="stroke:none" d="M 3.03125 0.09375 C 2.644531 0.09375 2.304688 0.0195312 2.015625 -0.125 C 1.734375 -0.28125 1.515625 -0.492188 1.359375 -0.765625 C 1.203125 -1.046875 1.125 -1.359375 1.125 -1.703125 C 1.125 -2.046875 1.203125 -2.351562 1.359375 -2.625 C 1.515625 -2.894531 1.734375 -3.109375 2.015625 -3.265625 C 2.304688 -3.421875 2.644531 -3.5 3.03125 -3.5 C 3.414062 -3.5 3.753906 -3.421875 4.046875 -3.265625 C 4.335938 -3.117188 4.554688 -2.90625 4.703125 -2.625 C 4.859375 -2.351562 4.9375 -2.046875 4.9375 -1.703125 C 4.9375 -1.179688 4.765625 -0.75 4.421875 -0.40625 C 4.078125 -0.0703125 3.613281 0.09375 3.03125 0.09375 Z M 3.03125 -8.375 C 2.644531 -8.375 2.304688 -8.445312 2.015625 -8.59375 C 1.734375 -8.75 1.515625 -8.960938 1.359375 -9.234375 C 1.203125 -9.515625 1.125 -9.828125 1.125 -10.171875 C 1.125 -10.515625 1.203125 -10.820312 1.359375 -11.09375 C 1.515625 -11.363281 1.734375 -11.578125 2.015625 -11.734375 C 2.304688 -11.890625 2.644531 -11.96875 3.03125 -11.96875 C 3.414062 -11.96875 3.753906 -11.890625 4.046875 -11.734375 C 4.335938 -11.585938 4.554688 -11.375 4.703125 -11.09375 C 4.859375 -10.820312 4.9375 -10.515625 4.9375 -10.171875 C 4.9375 -9.648438 4.765625 -9.21875 4.421875 -8.875 C 4.078125 -8.539062 3.613281 -8.375 3.03125 -8.375 Z M 3.03125 -8.375 "/></g></g><g style="fill:#000000;fill-opacity:1;"><g transform="translate(271.116128, 257.626298)"><path style="stroke:none" d=""/></g></g><g style="fill:#000000;fill-opacity:1;"><g transform="translate(276.305451, 257.626298)"><path style="stroke:none" d="M 5.140625 0 L 2.046875 0 L 2.046875 -15.703125 L 5.140625 -15.703125 Z M 5.140625 0 "/></g></g><g style="fill:#000000;fill-opacity:1;"><g transform="translate(283.501439, 257.626298)"><path style="stroke:none" d="M 8.171875 -2.828125 L 8.953125 -0.625 C 8.628906 -0.351562 8.222656 -0.144531 7.734375 0 C 7.242188 0.144531 6.691406 0.21875 6.078125 0.21875 C 4.796875 0.21875 3.820312 -0.128906 3.15625 -0.828125 C 2.488281 -1.523438 2.15625 -2.539062 2.15625 -3.875 L 2.15625 -9.5 L 0.359375 -9.5 L 0.359375 -11.859375 L 2.15625 -11.859375 L 2.15625 -14.171875 L 5.140625 -14.65625 L 5.140625 -11.859375 L 8.5 -11.859375 L 8.5 -9.5 L 5.140625 -9.5 L 5.140625 -4.078125 C 5.140625 -3.492188 5.257812 -3.066406 5.5 -2.796875 C 5.738281 -2.523438 6.09375 -2.390625 6.5625 -2.390625 C 7.09375 -2.390625 7.554688 -2.535156 7.953125 -2.828125 Z M 8.171875 -2.828125 "/></g></g><g style="fill:#000000;fill-opacity:1;"><g transform="translate(292.705864, 257.626298)"><path style="stroke:none" d="M 0.515625 -10.203125 C 1.171875 -10.566406 1.722656 -10.984375 2.171875 -11.453125 C 2.617188 -11.921875 2.875 -12.398438 2.9375 -12.890625 C 2.382812 -12.910156 1.953125 -13.078125 1.640625 -13.390625 C 1.328125 -13.710938 1.171875 -14.125 1.171875 -14.625 C 1.171875 -14.957031 1.242188 -15.253906 1.390625 -15.515625 C 1.546875 -15.785156 1.757812 -15.992188 2.03125 -16.140625 C 2.3125 -16.296875 2.640625 -16.375 3.015625 -16.375 C 3.585938 -16.375 4.046875 -16.171875 4.390625 -15.765625 C 4.742188 -15.367188 4.921875 -14.816406 4.921875 -14.109375 C 4.921875 -12.910156 4.601562 -11.882812 3.96875 -11.03125 C 3.332031 -10.175781 2.472656 -9.441406 1.390625 -8.828125 Z M 0.515625 -10.203125 "/></g></g><g style="fill:#000000;fill-opacity:1;"><g transform="translate(298.67746, 257.626298)"><path style="stroke:none" d="M 5.546875 0.21875 C 4.734375 0.21875 3.988281 0.125 3.3125 -0.0625 C 2.644531 -0.25 2.070312 -0.507812 1.59375 -0.84375 C 1.113281 -1.175781 0.757812 -1.554688 0.53125 -1.984375 L 2.1875 -3.765625 L 2.421875 -3.765625 C 2.816406 -3.234375 3.28125 -2.835938 3.8125 -2.578125 C 4.351562 -2.316406 4.9375 -2.1875 5.5625 -2.1875 C 6.144531 -2.1875 6.582031 -2.285156 6.875 -2.484375 C 7.164062 -2.691406 7.3125 -2.992188 7.3125 -3.390625 C 7.3125 -3.679688 7.207031 -3.929688 7 -4.140625 C 6.789062 -4.347656 6.445312 -4.507812 5.96875 -4.625 L 4.40625 -5 C 3.226562 -5.28125 2.367188 -5.707031 1.828125 -6.28125 C 1.285156 -6.851562 1.015625 -7.582031 1.015625 -8.46875 C 1.015625 -9.207031 1.203125 -9.847656 1.578125 -10.390625 C 1.960938 -10.941406 2.492188 -11.359375 3.171875 -11.640625 C 3.859375 -11.929688 4.65625 -12.078125 5.5625 -12.078125 C 6.632812 -12.078125 7.519531 -11.921875 8.21875 -11.609375 C 8.914062 -11.304688 9.460938 -10.894531 9.859375 -10.375 L 8.265625 -8.65625 L 8.0625 -8.65625 C 7.726562 -9.03125 7.351562 -9.300781 6.9375 -9.46875 C 6.53125 -9.644531 6.070312 -9.734375 5.5625 -9.734375 C 4.382812 -9.734375 3.796875 -9.367188 3.796875 -8.640625 C 3.796875 -8.328125 3.90625 -8.070312 4.125 -7.875 C 4.34375 -7.6875 4.726562 -7.53125 5.28125 -7.40625 L 6.75 -7.09375 C 7.945312 -6.832031 8.820312 -6.414062 9.375 -5.84375 C 9.9375 -5.28125 10.21875 -4.519531 10.21875 -3.5625 C 10.21875 -2.800781 10.03125 -2.132812 9.65625 -1.5625 C 9.28125 -0.988281 8.742188 -0.546875 8.046875 -0.234375 C 7.347656 0.0664062 6.515625 0.21875 5.546875 0.21875 Z M 5.546875 0.21875 "/></g></g><g style="fill:#000000;fill-opacity:1;"><g transform="translate(309.60033, 257.626298)"><path style="stroke:none" d=""/></g></g><g style="fill:#000000;fill-opacity:1;"><g transform="translate(314.78789, 257.626298)"><path style="stroke:none" d="M 1.703125 4.796875 L 1.703125 -11.84375 L 4.6875 -11.84375 L 4.6875 -10.296875 L 4.90625 -10.265625 C 5.257812 -10.859375 5.726562 -11.304688 6.3125 -11.609375 C 6.90625 -11.921875 7.59375 -12.078125 8.375 -12.078125 C 9.332031 -12.078125 10.164062 -11.847656 10.875 -11.390625 C 11.59375 -10.941406 12.148438 -10.253906 12.546875 -9.328125 C 12.941406 -8.410156 13.140625 -7.273438 13.140625 -5.921875 C 13.140625 -4.566406 12.925781 -3.429688 12.5 -2.515625 C 12.082031 -1.597656 11.5 -0.910156 10.75 -0.453125 C 10.007812 -0.00390625 9.15625 0.21875 8.1875 0.21875 C 7.445312 0.21875 6.804688 0.0976562 6.265625 -0.140625 C 5.734375 -0.390625 5.28125 -0.773438 4.90625 -1.296875 L 4.6875 -1.25 L 4.6875 4.796875 Z M 7.359375 -2.296875 C 8.242188 -2.296875 8.914062 -2.585938 9.375 -3.171875 C 9.832031 -3.753906 10.0625 -4.671875 10.0625 -5.921875 C 10.0625 -7.171875 9.832031 -8.085938 9.375 -8.671875 C 8.914062 -9.253906 8.242188 -9.546875 7.359375 -9.546875 C 6.523438 -9.546875 5.863281 -9.242188 5.375 -8.640625 C 4.894531 -8.046875 4.65625 -7.140625 4.65625 -5.921875 C 4.65625 -4.710938 4.894531 -3.804688 5.375 -3.203125 C 5.863281 -2.597656 6.523438 -2.296875 7.359375 -2.296875 Z M 7.359375 -2.296875 "/></g></g><g style="fill:#000000;fill-opacity:1;"><g transform="translate(328.975806, 257.626298)"><path style="stroke:none" d="M 1.703125 0 L 1.703125 -11.84375 L 4.59375 -11.84375 L 4.59375 -10.09375 L 4.828125 -10.046875 C 5.109375 -10.703125 5.484375 -11.179688 5.953125 -11.484375 C 6.421875 -11.796875 6.988281 -11.953125 7.65625 -11.953125 C 8.320312 -11.953125 8.832031 -11.835938 9.1875 -11.609375 L 8.6875 -9.046875 L 8.453125 -9 C 8.265625 -9.082031 8.078125 -9.140625 7.890625 -9.171875 C 7.710938 -9.210938 7.492188 -9.234375 7.234375 -9.234375 C 6.410156 -9.234375 5.78125 -8.941406 5.34375 -8.359375 C 4.90625 -7.773438 4.6875 -6.835938 4.6875 -5.546875 L 4.6875 0 Z M 1.703125 0 "/></g></g><g style="fill:#000000;fill-opacity:1;"><g transform="translate(338.266153, 257.626298)"><path style="stroke:none" d="M 4.625 0.21875 C 3.863281 0.21875 3.203125 0.0820312 2.640625 -0.1875 C 2.085938 -0.46875 1.660156 -0.878906 1.359375 -1.421875 C 1.054688 -1.960938 0.90625 -2.613281 0.90625 -3.375 C 0.90625 -4.070312 1.054688 -4.660156 1.359375 -5.140625 C 1.660156 -5.617188 2.125 -6.007812 2.75 -6.3125 C 3.382812 -6.613281 4.207031 -6.847656 5.21875 -7.015625 C 5.925781 -7.128906 6.460938 -7.253906 6.828125 -7.390625 C 7.203125 -7.523438 7.453125 -7.675781 7.578125 -7.84375 C 7.710938 -8.019531 7.78125 -8.242188 7.78125 -8.515625 C 7.78125 -8.890625 7.644531 -9.175781 7.375 -9.375 C 7.113281 -9.570312 6.675781 -9.671875 6.0625 -9.671875 C 5.40625 -9.671875 4.773438 -9.523438 4.171875 -9.234375 C 3.578125 -8.941406 3.0625 -8.554688 2.625 -8.078125 L 2.421875 -8.078125 L 1.171875 -9.953125 C 1.773438 -10.617188 2.507812 -11.140625 3.375 -11.515625 C 4.238281 -11.890625 5.179688 -12.078125 6.203125 -12.078125 C 7.773438 -12.078125 8.910156 -11.742188 9.609375 -11.078125 C 10.316406 -10.410156 10.671875 -9.460938 10.671875 -8.234375 L 10.671875 -3.09375 C 10.671875 -2.5625 10.898438 -2.296875 11.359375 -2.296875 C 11.546875 -2.296875 11.722656 -2.328125 11.890625 -2.390625 L 12.046875 -2.359375 L 12.25 -0.28125 C 12.09375 -0.175781 11.863281 -0.0859375 11.5625 -0.015625 C 11.269531 0.0546875 10.953125 0.09375 10.609375 0.09375 C 9.898438 0.09375 9.34375 -0.0390625 8.9375 -0.3125 C 8.539062 -0.59375 8.257812 -1.019531 8.09375 -1.59375 L 7.859375 -1.625 C 7.285156 -0.394531 6.207031 0.21875 4.625 0.21875 Z M 5.5625 -2 C 6.25 -2 6.796875 -2.226562 7.203125 -2.6875 C 7.617188 -3.15625 7.828125 -3.800781 7.828125 -4.625 L 7.828125 -5.828125 L 7.625 -5.859375 C 7.445312 -5.722656 7.210938 -5.601562 6.921875 -5.5 C 6.628906 -5.40625 6.210938 -5.3125 5.671875 -5.21875 C 5.023438 -5.113281 4.5625 -4.929688 4.28125 -4.671875 C 4 -4.410156 3.859375 -4.039062 3.859375 -3.5625 C 3.859375 -3.050781 4.007812 -2.660156 4.3125 -2.390625 C 4.613281 -2.128906 5.03125 -2 5.5625 -2 Z M 5.5625 -2 "/></g></g><g style="fill:#000000;fill-opacity:1;"><g transform="translate(350.757104, 257.626298)"><path style="stroke:none" d="M 6.90625 0.21875 C 5.757812 0.21875 4.742188 -0.015625 3.859375 -0.484375 C 2.984375 -0.960938 2.296875 -1.660156 1.796875 -2.578125 C 1.304688 -3.503906 1.0625 -4.617188 1.0625 -5.921875 C 1.0625 -7.222656 1.304688 -8.332031 1.796875 -9.25 C 2.296875 -10.175781 2.984375 -10.878906 3.859375 -11.359375 C 4.734375 -11.835938 5.734375 -12.078125 6.859375 -12.078125 C 9.359375 -12.078125 10.957031 -11.171875 11.65625 -9.359375 L 9.609375 -7.890625 L 9.390625 -7.890625 C 9.148438 -8.453125 8.832031 -8.867188 8.4375 -9.140625 C 8.050781 -9.410156 7.523438 -9.546875 6.859375 -9.546875 C 5.992188 -9.546875 5.320312 -9.25 4.84375 -8.65625 C 4.363281 -8.0625 4.125 -7.148438 4.125 -5.921875 C 4.125 -4.703125 4.367188 -3.789062 4.859375 -3.1875 C 5.347656 -2.59375 6.03125 -2.296875 6.90625 -2.296875 C 7.550781 -2.296875 8.097656 -2.46875 8.546875 -2.8125 C 8.992188 -3.164062 9.3125 -3.664062 9.5 -4.3125 L 9.734375 -4.34375 L 11.84375 -3.1875 C 11.539062 -2.175781 10.984375 -1.351562 10.171875 -0.71875 C 9.359375 -0.09375 8.269531 0.21875 6.90625 0.21875 Z M 6.90625 0.21875 "/></g></g><g style="fill:#000000;fill-opacity:1;"><g transform="translate(362.968808, 257.626298)"><path style="stroke:none" d="M 8.171875 -2.828125 L 8.953125 -0.625 C 8.628906 -0.351562 8.222656 -0.144531 7.734375 0 C 7.242188 0.144531 6.691406 0.21875 6.078125 0.21875 C 4.796875 0.21875 3.820312 -0.128906 3.15625 -0.828125 C 2.488281 -1.523438 2.15625 -2.539062 2.15625 -3.875 L 2.15625 -9.5 L 0.359375 -9.5 L 0.359375 -11.859375 L 2.15625 -11.859375 L 2.15625 -14.171875 L 5.140625 -14.65625 L 5.140625 -11.859375 L 8.5 -11.859375 L 8.5 -9.5 L 5.140625 -9.5 L 5.140625 -4.078125 C 5.140625 -3.492188 5.257812 -3.066406 5.5 -2.796875 C 5.738281 -2.523438 6.09375 -2.390625 6.5625 -2.390625 C 7.09375 -2.390625 7.554688 -2.535156 7.953125 -2.828125 Z M 8.171875 -2.828125 "/></g></g><g style="fill:#000000;fill-opacity:1;"><g transform="translate(372.173233, 257.626298)"><path style="stroke:none" d="M 3.1875 -13.265625 C 2.65625 -13.265625 2.21875 -13.425781 1.875 -13.75 C 1.539062 -14.082031 1.375 -14.503906 1.375 -15.015625 C 1.375 -15.523438 1.539062 -15.941406 1.875 -16.265625 C 2.21875 -16.597656 2.65625 -16.765625 3.1875 -16.765625 C 3.550781 -16.765625 3.867188 -16.6875 4.140625 -16.53125 C 4.421875 -16.382812 4.640625 -16.175781 4.796875 -15.90625 C 4.953125 -15.644531 5.03125 -15.347656 5.03125 -15.015625 C 5.03125 -14.679688 4.953125 -14.378906 4.796875 -14.109375 C 4.640625 -13.847656 4.421875 -13.640625 4.140625 -13.484375 C 3.867188 -13.335938 3.550781 -13.265625 3.1875 -13.265625 Z M 1.703125 0 L 1.703125 -11.84375 L 4.6875 -11.84375 L 4.6875 0 Z M 1.703125 0 "/></g></g><g style="fill:#000000;fill-opacity:1;"><g transform="translate(378.55296, 257.626298)"><path style="stroke:none" d="M 6.90625 0.21875 C 5.757812 0.21875 4.742188 -0.015625 3.859375 -0.484375 C 2.984375 -0.960938 2.296875 -1.660156 1.796875 -2.578125 C 1.304688 -3.503906 1.0625 -4.617188 1.0625 -5.921875 C 1.0625 -7.222656 1.304688 -8.332031 1.796875 -9.25 C 2.296875 -10.175781 2.984375 -10.878906 3.859375 -11.359375 C 4.734375 -11.835938 5.734375 -12.078125 6.859375 -12.078125 C 9.359375 -12.078125 10.957031 -11.171875 11.65625 -9.359375 L 9.609375 -7.890625 L 9.390625 -7.890625 C 9.148438 -8.453125 8.832031 -8.867188 8.4375 -9.140625 C 8.050781 -9.410156 7.523438 -9.546875 6.859375 -9.546875 C 5.992188 -9.546875 5.320312 -9.25 4.84375 -8.65625 C 4.363281 -8.0625 4.125 -7.148438 4.125 -5.921875 C 4.125 -4.703125 4.367188 -3.789062 4.859375 -3.1875 C 5.347656 -2.59375 6.03125 -2.296875 6.90625 -2.296875 C 7.550781 -2.296875 8.097656 -2.46875 8.546875 -2.8125 C 8.992188 -3.164062 9.3125 -3.664062 9.5 -4.3125 L 9.734375 -4.34375 L 11.84375 -3.1875 C 11.539062 -2.175781 10.984375 -1.351562 10.171875 -0.71875 C 9.359375 -0.09375 8.269531 0.21875 6.90625 0.21875 Z M 6.90625 0.21875 "/></g></g><g style="fill:#000000;fill-opacity:1;"><g transform="translate(390.764663, 257.626298)"><path style="stroke:none" d="M 4.625 0.21875 C 3.863281 0.21875 3.203125 0.0820312 2.640625 -0.1875 C 2.085938 -0.46875 1.660156 -0.878906 1.359375 -1.421875 C 1.054688 -1.960938 0.90625 -2.613281 0.90625 -3.375 C 0.90625 -4.070312 1.054688 -4.660156 1.359375 -5.140625 C 1.660156 -5.617188 2.125 -6.007812 2.75 -6.3125 C 3.382812 -6.613281 4.207031 -6.847656 5.21875 -7.015625 C 5.925781 -7.128906 6.460938 -7.253906 6.828125 -7.390625 C 7.203125 -7.523438 7.453125 -7.675781 7.578125 -7.84375 C 7.710938 -8.019531 7.78125 -8.242188 7.78125 -8.515625 C 7.78125 -8.890625 7.644531 -9.175781 7.375 -9.375 C 7.113281 -9.570312 6.675781 -9.671875 6.0625 -9.671875 C 5.40625 -9.671875 4.773438 -9.523438 4.171875 -9.234375 C 3.578125 -8.941406 3.0625 -8.554688 2.625 -8.078125 L 2.421875 -8.078125 L 1.171875 -9.953125 C 1.773438 -10.617188 2.507812 -11.140625 3.375 -11.515625 C 4.238281 -11.890625 5.179688 -12.078125 6.203125 -12.078125 C 7.773438 -12.078125 8.910156 -11.742188 9.609375 -11.078125 C 10.316406 -10.410156 10.671875 -9.460938 10.671875 -8.234375 L 10.671875 -3.09375 C 10.671875 -2.5625 10.898438 -2.296875 11.359375 -2.296875 C 11.546875 -2.296875 11.722656 -2.328125 11.890625 -2.390625 L 12.046875 -2.359375 L 12.25 -0.28125 C 12.09375 -0.175781 11.863281 -0.0859375 11.5625 -0.015625 C 11.269531 0.0546875 10.953125 0.09375 10.609375 0.09375 C 9.898438 0.09375 9.34375 -0.0390625 8.9375 -0.3125 C 8.539062 -0.59375 8.257812 -1.019531 8.09375 -1.59375 L 7.859375 -1.625 C 7.285156 -0.394531 6.207031 0.21875 4.625 0.21875 Z M 5.5625 -2 C 6.25 -2 6.796875 -2.226562 7.203125 -2.6875 C 7.617188 -3.15625 7.828125 -3.800781 7.828125 -4.625 L 7.828125 -5.828125 L 7.625 -5.859375 C 7.445312 -5.722656 7.210938 -5.601562 6.921875 -5.5 C 6.628906 -5.40625 6.210938 -5.3125 5.671875 -5.21875 C 5.023438 -5.113281 4.5625 -4.929688 4.28125 -4.671875 C 4 -4.410156 3.859375 -4.039062 3.859375 -3.5625 C 3.859375 -3.050781 4.007812 -2.660156 4.3125 -2.390625 C 4.613281 -2.128906 5.03125 -2 5.5625 -2 Z M 5.5625 -2 "/></g></g><g style="fill:#000000;fill-opacity:1;"><g transform="translate(403.255614, 257.626298)"><path style="stroke:none" d="M 4.921875 0.21875 C 3.847656 0.21875 3.03125 -0.0664062 2.46875 -0.640625 C 1.914062 -1.210938 1.640625 -2.085938 1.640625 -3.265625 L 1.640625 -16.609375 L 4.609375 -16.609375 L 4.609375 -3.390625 C 4.609375 -2.660156 4.910156 -2.296875 5.515625 -2.296875 C 5.679688 -2.296875 5.863281 -2.328125 6.0625 -2.390625 L 6.203125 -2.34375 L 6.484375 -0.046875 C 6.316406 0.0351562 6.097656 0.0976562 5.828125 0.140625 C 5.554688 0.191406 5.253906 0.21875 4.921875 0.21875 Z M 4.921875 0.21875 "/></g></g><g style="fill:#000000;fill-opacity:1;"><g transform="translate(202.641392, 247.876298)"><path style="stroke:none" d="M 1.03125 0 L 1.03125 -7.109375 L 2.75 -7.109375 L 2.75 -6.046875 L 2.890625 -6.015625 C 3.066406 -6.410156 3.289062 -6.703125 3.5625 -6.890625 C 3.84375 -7.078125 4.179688 -7.171875 4.578125 -7.171875 C 4.984375 -7.171875 5.289062 -7.097656 5.5 -6.953125 L 5.203125 -5.421875 L 5.0625 -5.390625 C 4.945312 -5.441406 4.835938 -5.476562 4.734375 -5.5 C 4.628906 -5.519531 4.5 -5.53125 4.34375 -5.53125 C 3.84375 -5.53125 3.460938 -5.351562 3.203125 -5 C 2.941406 -4.65625 2.8125 -4.097656 2.8125 -3.328125 L 2.8125 0 Z M 1.03125 0 "/></g></g><g style="fill:#000000;fill-opacity:1;"><g transform="translate(208.209663, 247.876298)"><path style="stroke:none" d="M 3.515625 0.140625 C 2.953125 0.140625 2.453125 0.00390625 2.015625 -0.265625 C 1.585938 -0.546875 1.25 -0.960938 1 -1.515625 C 0.757812 -2.066406 0.640625 -2.742188 0.640625 -3.546875 C 0.640625 -4.359375 0.765625 -5.039062 1.015625 -5.59375 C 1.265625 -6.144531 1.609375 -6.554688 2.046875 -6.828125 C 2.492188 -7.097656 3.007812 -7.234375 3.59375 -7.234375 C 4.039062 -7.234375 4.425781 -7.15625 4.75 -7 C 5.070312 -6.851562 5.34375 -6.617188 5.5625 -6.296875 L 5.703125 -6.328125 L 5.703125 -9.953125 L 7.484375 -9.953125 L 7.484375 0 L 5.703125 0 L 5.703125 -0.921875 L 5.5625 -0.953125 C 5.375 -0.609375 5.109375 -0.335938 4.765625 -0.140625 C 4.421875 0.046875 4.003906 0.140625 3.515625 0.140625 Z M 4.09375 -1.375 C 4.59375 -1.375 4.988281 -1.550781 5.28125 -1.90625 C 5.570312 -2.269531 5.71875 -2.816406 5.71875 -3.546875 C 5.71875 -4.273438 5.570312 -4.816406 5.28125 -5.171875 C 4.988281 -5.535156 4.59375 -5.71875 4.09375 -5.71875 C 3.5625 -5.71875 3.15625 -5.539062 2.875 -5.1875 C 2.601562 -4.84375 2.46875 -4.296875 2.46875 -3.546875 C 2.46875 -2.796875 2.601562 -2.242188 2.875 -1.890625 C 3.15625 -1.546875 3.5625 -1.375 4.09375 -1.375 Z M 4.09375 -1.375 "/></g></g><path style=" stroke:none;fill-rule:evenodd;fill:#89dbdf;fill-opacity:1;" d="M 159.75 232.367188 L 171.371094 232.367188 C 170.796875 231.265625 169.34375 229.054688 170.59375 225.859375 C 171.339844 226.125 172.144531 226.269531 172.988281 226.269531 C 175.300781 226.269531 177.339844 225.179688 178.566406 223.515625 C 182.566406 223.601562 185.792969 220.386719 185.488281 216.632812 C 187.476562 215.703125 188.40625 213.476562 188.253906 211.472656 C 190.511719 209.460938 190.539062 205.609375 188.34375 203.546875 C 190.332031 201.507812 190.460938 196.253906 188.753906 193.886719 C 188.589844 193.664062 188.414062 193.464844 188.21875 193.296875 C 188.210938 193.148438 188.199219 193 188.179688 192.851562 C 189.992188 190.929688 189.617188 187.925781 187.363281 186.453125 C 187.390625 184.851562 186.96875 183.074219 186.054688 181.363281 C 184.414062 178.296875 181.652344 176.292969 179.0625 176.015625 C 178.789062 172.949219 175.78125 171.671875 173.289062 172.261719 C 172.808594 170.429688 171.054688 169.070312 168.960938 169.070312 C 168.34375 169.070312 167.753906 169.1875 167.222656 169.402344 C 166.558594 168.082031 165.136719 167.167969 163.484375 167.167969 C 161.785156 167.167969 159.921875 168.210938 159.75 169.882812 L 159.75 232.367188 "/><path style=" stroke:none;fill-rule:evenodd;fill:#fec104;fill-opacity:1;" d="M 156.8125 168.164062 C 141.15625 168.164062 128.464844 180.363281 128.464844 195.410156 C 128.464844 203.960938 132.511719 211.648438 138.972656 216.582031 C 143.019531 219.675781 145.863281 223.835938 146.46875 230.054688 L 156.8125 230.054688 L 156.8125 168.164062 "/><path style=" stroke:none;fill-rule:evenodd;fill:#fee593;fill-opacity:1;" d="M 156.8125 188.882812 C 156.386719 189.054688 156.042969 189.40625 155.914062 189.867188 L 154.730469 194.109375 C 154.511719 194.894531 155.003906 195.714844 155.824219 195.925781 C 156.164062 196.011719 156.507812 195.980469 156.8125 195.859375 Z M 153.78125 188.820312 C 152.960938 188.609375 152.109375 189.078125 151.890625 189.867188 L 150.710938 194.109375 C 150.488281 194.894531 150.980469 195.714844 151.800781 195.925781 C 152.621094 196.136719 153.46875 195.664062 153.691406 194.875 L 154.871094 190.636719 C 155.089844 189.847656 154.601562 189.03125 153.78125 188.820312 Z M 149.683594 230.054688 L 144.6875 194.652344 C 144.660156 194.441406 144.644531 194.253906 144.644531 194.085938 C 144.644531 193.113281 145 192.234375 145.613281 191.554688 C 146.222656 190.878906 147.082031 190.414062 148.085938 190.285156 C 148.292969 190.257812 148.484375 190.242188 148.664062 190.242188 C 149.425781 190.242188 150.046875 190.839844 150.046875 191.570312 C 150.046875 192.304688 149.425781 192.902344 148.664062 192.902344 C 148.570312 192.902344 148.503906 192.90625 148.453125 192.910156 C 148.140625 192.949219 147.875 193.089844 147.695312 193.289062 C 147.515625 193.488281 147.410156 193.765625 147.410156 194.085938 C 147.410156 194.171875 147.414062 194.242188 147.421875 194.296875 L 152.464844 230.054688 L 156.8125 230.054688 L 149.683594 230.054688 "/><path style=" stroke:none;fill-rule:evenodd;fill:#6594e7;fill-opacity:1;" d="M 156.8125 234.039062 L 146.382812 234.039062 C 145.457031 234.039062 144.703125 234.953125 144.703125 236.074219 C 144.703125 237.191406 145.457031 238.109375 146.382812 238.109375 L 156.8125 238.109375 L 156.8125 234.039062 "/><path style=" stroke:none;fill-rule:evenodd;fill:#94c2f5;fill-opacity:1;" d="M 144.980469 237.1875 C 145.28125 237.742188 145.796875 238.109375 146.382812 238.109375 L 156.8125 238.109375 L 156.8125 236.265625 L 146.382812 236.265625 C 145.796875 236.265625 145.28125 236.632812 144.980469 237.1875 "/><path style=" stroke:none;fill-rule:evenodd;fill:#6594e7;fill-opacity:1;" d="M 156.8125 238.109375 L 147.339844 238.109375 C 146.417969 238.109375 145.660156 239.023438 145.660156 240.140625 C 145.660156 241.261719 146.417969 242.175781 147.339844 242.175781 L 156.8125 242.175781 L 156.8125 238.109375 "/><path style=" stroke:none;fill-rule:evenodd;fill:#94c2f5;fill-opacity:1;" d="M 145.9375 241.253906 C 146.238281 241.808594 146.753906 242.175781 147.339844 242.175781 L 156.8125 242.175781 L 156.8125 240.332031 L 147.339844 240.332031 C 146.753906 240.332031 146.238281 240.699219 145.9375 241.253906 "/><path style=" stroke:none;fill-rule:evenodd;fill:#6594e7;fill-opacity:1;" d="M 156.8125 229.972656 L 145.808594 229.972656 C 144.675781 229.972656 143.746094 230.886719 143.746094 232.003906 C 143.746094 233.125 144.675781 234.039062 145.808594 234.039062 L 156.8125 234.039062 L 156.8125 229.972656 "/><path style=" stroke:none;fill-rule:evenodd;fill:#94c2f5;fill-opacity:1;" d="M 144.023438 233.117188 C 144.324219 233.671875 144.839844 234.039062 145.421875 234.039062 L 156.8125 234.039062 L 156.8125 232.195312 L 145.421875 232.195312 C 144.839844 232.195312 144.324219 232.5625 144.023438 233.117188 "/><g clip-rule="nonzero" clip-path="url(#5eadb168b4)"><path style=" stroke:none;fill-rule:evenodd;fill:#6594e7;fill-opacity:1;" d="M 147.425781 242.175781 C 148.082031 244.167969 149.691406 245.585938 151.558594 245.585938 L 156.8125 245.585938 L 156.8125 242.175781 L 147.425781 242.175781 "/></g><path style=" stroke:none;fill-rule:evenodd;fill:#b0bec5;fill-opacity:1;" d="M 159.75 233.890625 L 170.179688 233.890625 C 171.105469 233.890625 171.859375 234.816406 171.859375 235.953125 C 171.859375 237.085938 171.105469 238.011719 170.179688 238.011719 L 159.75 238.011719 L 159.75 233.890625 "/><path style=" stroke:none;fill-rule:evenodd;fill:#9aa6ae;fill-opacity:1;" d="M 171.582031 237.078125 C 171.28125 237.640625 170.765625 238.011719 170.179688 238.011719 L 159.75 238.011719 L 159.75 236.144531 L 170.179688 236.144531 C 170.765625 236.144531 171.28125 236.515625 171.582031 237.078125 "/><path style=" stroke:none;fill-rule:evenodd;fill:#b0bec5;fill-opacity:1;" d="M 159.75 238.011719 L 169.222656 238.011719 C 170.144531 238.011719 170.902344 238.9375 170.902344 240.070312 C 170.902344 241.207031 170.144531 242.132812 169.222656 242.132812 L 159.75 242.132812 L 159.75 238.011719 "/><path style=" stroke:none;fill-rule:evenodd;fill:#9aa6ae;fill-opacity:1;" d="M 170.625 241.199219 C 170.324219 241.761719 169.808594 242.132812 169.222656 242.132812 L 159.75 242.132812 L 159.75 240.265625 L 169.222656 240.265625 C 169.808594 240.265625 170.324219 240.636719 170.625 241.199219 "/><path style=" stroke:none;fill-rule:evenodd;fill:#b0bec5;fill-opacity:1;" d="M 159.75 229.769531 L 170.753906 229.769531 C 171.886719 229.769531 172.816406 230.699219 172.816406 231.832031 C 172.816406 232.964844 171.886719 233.890625 170.753906 233.890625 L 159.75 233.890625 L 159.75 229.769531 "/><path style=" stroke:none;fill-rule:evenodd;fill:#9aa6ae;fill-opacity:1;" d="M 172.511719 232.90625 C 172.148438 233.496094 171.496094 233.890625 170.753906 233.890625 L 159.75 233.890625 L 159.75 232.023438 L 171.140625 232.023438 C 171.703125 232.023438 172.207031 232.375 172.511719 232.90625 "/><g clip-rule="nonzero" clip-path="url(#3d02fdd022)"><path style=" stroke:none;fill-rule:evenodd;fill:#b0bec5;fill-opacity:1;" d="M 169.136719 242.132812 C 168.480469 244.148438 166.871094 245.585938 165.003906 245.585938 L 159.75 245.585938 L 159.75 242.132812 L 169.136719 242.132812 "/></g><path style=" stroke:none;fill-rule:evenodd;fill:#467cdd;fill-opacity:1;" d="M 174.308594 196.8125 C 174.136719 196.914062 173.914062 196.863281 173.808594 196.699219 C 173.71875 196.566406 173.742188 196.398438 173.847656 196.285156 C 174.703125 195.210938 175.933594 194.5625 177.234375 194.386719 C 178.542969 194.207031 179.925781 194.507812 181.070312 195.324219 L 181.074219 195.328125 C 182.214844 196.144531 182.902344 197.328125 183.089844 198.574219 C 183.273438 199.824219 182.960938 201.144531 182.105469 202.234375 C 181.984375 202.386719 181.757812 202.417969 181.597656 202.304688 C 181.4375 202.191406 181.40625 201.972656 181.527344 201.820312 C 182.261719 200.882812 182.53125 199.75 182.371094 198.671875 C 182.210938 197.605469 181.628906 196.59375 180.660156 195.894531 C 180.644531 195.882812 180.628906 195.871094 180.613281 195.859375 C 179.636719 195.167969 178.457031 194.917969 177.335938 195.070312 C 176.21875 195.222656 175.160156 195.777344 174.421875 196.703125 C 174.394531 196.746094 174.355469 196.78125 174.308594 196.8125 "/><path style=" stroke:none;fill-rule:evenodd;fill:#467cdd;fill-opacity:1;" d="M 179.050781 217.414062 Z M 174.257812 216.707031 C 174.160156 216.539062 174.21875 216.328125 174.390625 216.234375 C 174.566406 216.136719 174.789062 216.195312 174.886719 216.359375 C 175.308594 217.054688 175.984375 217.519531 176.738281 217.710938 C 177.492188 217.902344 178.320312 217.816406 179.050781 217.414062 C 179.777344 217.011719 180.265625 216.367188 180.464844 215.648438 C 180.664062 214.929688 180.578125 214.140625 180.15625 213.445312 C 180.148438 213.4375 180.144531 213.429688 180.140625 213.421875 C 180.054688 213.246094 180.132812 213.042969 180.3125 212.960938 C 180.488281 212.878906 180.703125 212.949219 180.789062 213.113281 C 181.304688 213.96875 181.410156 214.941406 181.164062 215.824219 C 180.917969 216.710938 180.320312 217.503906 179.429688 218.003906 C 179.417969 218.011719 179.40625 218.015625 179.394531 218.023438 C 178.5 218.511719 177.480469 218.613281 176.554688 218.378906 C 175.621094 218.140625 174.78125 217.566406 174.257812 216.707031 "/><path style=" stroke:none;fill-rule:evenodd;fill:#467cdd;fill-opacity:1;" d="M 164.863281 218.523438 C 164.820312 218.335938 164.945312 218.152344 165.140625 218.109375 C 165.335938 218.070312 165.527344 218.1875 165.570312 218.375 C 165.832031 219.511719 166.550781 220.441406 167.503906 221.023438 C 168.453125 221.605469 169.640625 221.84375 170.832031 221.59375 C 172.023438 221.34375 173 220.65625 173.609375 219.75 C 174.21875 218.839844 174.464844 217.710938 174.207031 216.574219 C 174.164062 216.386719 174.285156 216.203125 174.480469 216.160156 C 174.675781 216.121094 174.871094 216.238281 174.914062 216.425781 C 175.214844 217.75 174.929688 219.066406 174.21875 220.121094 C 173.507812 221.179688 172.375 221.980469 170.988281 222.269531 C 169.601562 222.558594 168.21875 222.28125 167.113281 221.605469 C 166.003906 220.925781 165.167969 219.847656 164.863281 218.523438 "/><path style=" stroke:none;fill-rule:evenodd;fill:#467cdd;fill-opacity:1;" d="M 181.152344 207.816406 C 180.953125 207.792969 180.8125 207.625 180.832031 207.433594 C 180.855469 207.246094 181.035156 207.109375 181.234375 207.128906 C 182.183594 207.230469 183 207.691406 183.550781 208.351562 C 184.101562 209.011719 184.390625 209.871094 184.28125 210.777344 C 184.175781 211.683594 183.691406 212.460938 183 212.988281 C 182.308594 213.515625 181.40625 213.789062 180.457031 213.6875 C 180.257812 213.664062 180.117188 213.496094 180.136719 213.304688 C 180.160156 213.117188 180.339844 212.980469 180.539062 213 C 181.289062 213.082031 182.003906 212.863281 182.550781 212.449219 C 183.097656 212.03125 183.476562 211.417969 183.5625 210.703125 C 183.648438 209.984375 183.417969 209.304688 182.984375 208.78125 C 182.546875 208.261719 181.902344 207.898438 181.152344 207.816406 "/><path style=" stroke:none;fill-rule:evenodd;fill:#467cdd;fill-opacity:1;" d="M 170.519531 196.492188 C 170.683594 196.382812 170.910156 196.421875 171.023438 196.582031 C 171.136719 196.738281 171.09375 196.953125 170.929688 197.058594 C 170.539062 197.3125 170.292969 197.695312 170.210938 198.105469 C 170.132812 198.515625 170.214844 198.953125 170.480469 199.324219 C 170.59375 199.484375 170.550781 199.699219 170.386719 199.804688 C 170.222656 199.914062 169.996094 199.871094 169.882812 199.714844 C 169.503906 199.1875 169.386719 198.5625 169.5 197.976562 C 169.617188 197.394531 169.964844 196.851562 170.519531 196.492188 "/><path style=" stroke:none;fill-rule:evenodd;fill:#467cdd;fill-opacity:1;" d="M 164.203125 202.558594 C 164.09375 202.394531 164.148438 202.183594 164.316406 202.082031 C 164.4375 202.011719 164.582031 202.015625 164.695312 202.078125 C 165.042969 202.242188 165.425781 202.261719 165.765625 202.160156 C 166.113281 202.054688 166.421875 201.820312 166.601562 201.488281 L 166.605469 201.484375 C 166.6875 201.328125 166.738281 201.167969 166.757812 201.007812 C 166.777344 200.835938 166.761719 200.667969 166.714844 200.503906 C 166.660156 200.320312 166.777344 200.128906 166.96875 200.078125 C 167.160156 200.027344 167.359375 200.136719 167.414062 200.320312 C 167.484375 200.566406 167.503906 200.820312 167.476562 201.078125 C 167.449219 201.320312 167.375 201.558594 167.257812 201.785156 C 167.25 201.800781 167.242188 201.8125 167.234375 201.828125 C 166.960938 202.316406 166.503906 202.660156 165.984375 202.816406 C 165.464844 202.972656 164.886719 202.945312 164.363281 202.691406 C 164.300781 202.664062 164.242188 202.621094 164.203125 202.558594 "/><path style=" stroke:none;fill-rule:evenodd;fill:#467cdd;fill-opacity:1;" d="M 178.613281 206.804688 C 178.527344 206.980469 178.3125 207.050781 178.132812 206.96875 C 177.953125 206.886719 177.875 206.683594 177.960938 206.511719 C 178.425781 205.5625 178.523438 204.453125 178.296875 203.421875 C 178.074219 202.398438 177.535156 201.457031 176.738281 200.847656 C 176.582031 200.730469 176.554688 200.511719 176.679688 200.363281 C 176.804688 200.214844 177.03125 200.191406 177.1875 200.308594 C 178.125 201.023438 178.75 202.105469 179.007812 203.28125 C 179.261719 204.449219 179.152344 205.71875 178.613281 206.804688 "/><path style=" stroke:none;fill-rule:evenodd;fill:#467cdd;fill-opacity:1;" d="M 175.050781 208.070312 C 174.859375 208.015625 174.75 207.820312 174.8125 207.640625 C 174.871094 207.457031 175.074219 207.355469 175.261719 207.414062 C 175.761719 207.558594 176.320312 207.53125 176.816406 207.359375 C 177.308594 207.191406 177.734375 206.890625 177.980469 206.496094 C 178.082031 206.332031 178.304688 206.277344 178.476562 206.375 C 178.648438 206.472656 178.703125 206.683594 178.601562 206.847656 C 178.269531 207.386719 177.703125 207.792969 177.0625 208.011719 C 176.421875 208.226562 175.703125 208.265625 175.050781 208.070312 "/><path style=" stroke:none;fill-rule:evenodd;fill:#467cdd;fill-opacity:1;" d="M 178.984375 209.621094 C 179.125 209.753906 179.125 209.972656 178.984375 210.105469 C 178.839844 210.242188 178.613281 210.242188 178.472656 210.105469 C 177.988281 209.644531 177.691406 209.019531 177.597656 208.378906 C 177.5 207.730469 177.613281 207.066406 177.957031 206.535156 C 178.0625 206.371094 178.289062 206.324219 178.457031 206.421875 C 178.625 206.523438 178.679688 206.738281 178.574219 206.898438 C 178.320312 207.289062 178.238281 207.789062 178.3125 208.28125 C 178.382812 208.78125 178.613281 209.265625 178.984375 209.621094 "/><path style=" stroke:none;fill-rule:evenodd;fill:#467cdd;fill-opacity:1;" d="M 172.96875 213.386719 C 172.871094 213.21875 172.933594 213.007812 173.105469 212.914062 C 173.28125 212.824219 173.5 212.882812 173.597656 213.046875 C 173.742188 213.296875 173.835938 213.570312 173.867188 213.859375 C 173.898438 214.132812 173.871094 214.421875 173.777344 214.703125 C 173.597656 215.261719 173.195312 215.695312 172.695312 215.945312 C 172.195312 216.195312 171.59375 216.261719 171.007812 216.089844 C 170.820312 216.03125 170.710938 215.839844 170.769531 215.65625 C 170.832031 215.476562 171.03125 215.375 171.222656 215.429688 C 171.617188 215.546875 172.019531 215.5 172.359375 215.332031 C 172.695312 215.164062 172.964844 214.871094 173.085938 214.5 C 173.148438 214.308594 173.167969 214.117188 173.148438 213.929688 C 173.128906 213.738281 173.066406 213.550781 172.96875 213.386719 "/><path style=" stroke:none;fill-rule:evenodd;fill:#467cdd;fill-opacity:1;" d="M 173.140625 213.46875 C 172.960938 213.386719 172.878906 213.183594 172.964844 213.011719 C 173.046875 212.835938 173.261719 212.761719 173.441406 212.839844 L 173.464844 212.851562 C 173.820312 213.003906 174.207031 213.003906 174.550781 212.875 C 174.898438 212.75 175.199219 212.492188 175.375 212.136719 L 175.382812 212.125 L 175.386719 212.117188 L 175.382812 212.117188 C 175.558594 211.75 175.566406 211.351562 175.4375 211.003906 C 175.3125 210.65625 175.050781 210.363281 174.6875 210.199219 C 174.507812 210.117188 174.429688 209.914062 174.511719 209.742188 C 174.597656 209.566406 174.8125 209.492188 174.992188 209.574219 C 175.539062 209.820312 175.929688 210.257812 176.121094 210.773438 C 176.308594 211.28125 176.296875 211.867188 176.042969 212.402344 L 176.042969 212.398438 L 176.042969 212.402344 L 176.039062 212.414062 L 176.03125 212.429688 C 175.773438 212.953125 175.328125 213.328125 174.816406 213.519531 C 174.296875 213.710938 173.707031 213.710938 173.167969 213.480469 L 173.167969 213.476562 L 173.164062 213.476562 L 173.140625 213.46875 "/><path style=" stroke:none;fill-rule:evenodd;fill:#467cdd;fill-opacity:1;" d="M 167.851562 198.257812 Z M 172.410156 196.84375 C 172.574219 196.949219 172.621094 197.160156 172.515625 197.320312 C 172.40625 197.480469 172.183594 197.527344 172.015625 197.421875 C 171.320312 196.988281 170.503906 196.867188 169.75 197.019531 C 168.996094 197.167969 168.304688 197.59375 167.851562 198.257812 L 167.84375 198.269531 L 167.835938 198.285156 C 167.394531 198.941406 167.273438 199.707031 167.429688 200.417969 C 167.585938 201.136719 168.035156 201.796875 168.726562 202.230469 L 168.738281 202.238281 L 168.742188 202.234375 L 168.742188 202.238281 C 168.90625 202.347656 168.945312 202.5625 168.828125 202.71875 C 168.710938 202.875 168.484375 202.910156 168.320312 202.800781 L 168.324219 202.800781 C 167.464844 202.261719 166.917969 201.445312 166.722656 200.558594 C 166.527344 199.679688 166.679688 198.730469 167.226562 197.914062 C 167.234375 197.898438 167.242188 197.882812 167.253906 197.871094 C 167.816406 197.054688 168.675781 196.53125 169.605469 196.34375 C 170.535156 196.15625 171.546875 196.308594 172.410156 196.84375 "/><path style=" stroke:none;fill-rule:evenodd;fill:#467cdd;fill-opacity:1;" d="M 171.664062 202.988281 C 171.46875 202.9375 171.359375 202.742188 171.417969 202.5625 C 171.472656 202.378906 171.671875 202.273438 171.863281 202.328125 C 172.507812 202.507812 173.164062 202.421875 173.710938 202.136719 C 174.253906 201.855469 174.683594 201.371094 174.871094 200.757812 C 174.925781 200.578125 175.128906 200.472656 175.320312 200.523438 C 175.511719 200.578125 175.621094 200.769531 175.566406 200.953125 C 175.320312 201.746094 174.761719 202.375 174.054688 202.742188 C 173.347656 203.109375 172.496094 203.222656 171.664062 202.988281 "/><path style=" stroke:none;fill-rule:evenodd;fill:#467cdd;fill-opacity:1;" d="M 169.8125 206.140625 C 169.640625 206.046875 169.574219 205.839844 169.671875 205.671875 C 169.765625 205.503906 169.984375 205.445312 170.160156 205.535156 L 170.179688 205.546875 C 170.523438 205.722656 170.914062 205.746094 171.265625 205.644531 C 171.621094 205.539062 171.9375 205.304688 172.140625 204.960938 L 172.148438 204.949219 L 172.152344 204.941406 C 172.351562 204.585938 172.386719 204.1875 172.285156 203.832031 C 172.183594 203.480469 171.945312 203.167969 171.597656 202.984375 C 171.421875 202.890625 171.359375 202.679688 171.457031 202.511719 C 171.550781 202.347656 171.773438 202.289062 171.945312 202.378906 C 172.472656 202.660156 172.832031 203.125 172.980469 203.648438 C 173.132812 204.171875 173.078125 204.753906 172.789062 205.269531 L 172.785156 205.269531 L 172.78125 205.28125 L 172.769531 205.296875 C 172.476562 205.800781 172.003906 206.148438 171.480469 206.304688 C 170.949219 206.460938 170.359375 206.421875 169.839844 206.152344 L 169.835938 206.152344 L 169.8125 206.140625 "/><path style=" stroke:none;fill-rule:evenodd;fill:#467cdd;fill-opacity:1;" d="M 180.898438 182.726562 C 180.757812 182.792969 180.582031 182.761719 180.480469 182.636719 C 180.363281 182.496094 180.386719 182.289062 180.535156 182.179688 C 180.566406 182.15625 180.597656 182.140625 180.632812 182.128906 C 181.519531 181.765625 182.480469 181.777344 183.3125 182.09375 C 184.148438 182.410156 184.855469 183.023438 185.246094 183.867188 C 185.253906 183.878906 185.257812 183.894531 185.261719 183.90625 C 185.640625 184.753906 185.628906 185.667969 185.296875 186.464844 C 184.96875 187.261719 184.320312 187.9375 183.4375 188.308594 C 183.296875 188.378906 183.117188 188.34375 183.015625 188.222656 C 182.898438 188.078125 182.921875 187.875 183.070312 187.761719 C 183.09375 187.746094 183.117188 187.730469 183.148438 187.71875 C 183.867188 187.421875 184.394531 186.871094 184.664062 186.226562 C 184.929688 185.582031 184.941406 184.835938 184.628906 184.148438 L 184.625 184.148438 C 184.3125 183.457031 183.738281 182.957031 183.0625 182.699219 C 182.390625 182.445312 181.617188 182.4375 180.898438 182.726562 "/><path style=" stroke:none;fill-rule:evenodd;fill:#467cdd;fill-opacity:1;" d="M 183.460938 188.351562 C 183.285156 188.421875 183.085938 188.347656 183.011719 188.179688 C 182.933594 188.015625 183.015625 187.824219 183.1875 187.753906 C 183.703125 187.539062 184.257812 187.546875 184.742188 187.726562 C 185.226562 187.910156 185.636719 188.269531 185.863281 188.761719 C 186.085938 189.253906 186.078125 189.785156 185.886719 190.246094 C 185.695312 190.707031 185.320312 191.097656 184.804688 191.3125 C 184.632812 191.382812 184.429688 191.308594 184.355469 191.140625 C 184.28125 190.976562 184.359375 190.785156 184.53125 190.714844 C 184.875 190.570312 185.125 190.3125 185.25 190.007812 C 185.378906 189.699219 185.382812 189.347656 185.234375 189.019531 C 185.085938 188.695312 184.8125 188.457031 184.492188 188.335938 C 184.171875 188.214844 183.800781 188.210938 183.460938 188.351562 "/><path style=" stroke:none;fill-rule:evenodd;fill:#467cdd;fill-opacity:1;" d="M 184.800781 208.046875 C 184.609375 208.042969 184.453125 208.183594 184.453125 208.363281 C 184.449219 208.546875 184.597656 208.695312 184.789062 208.695312 C 185.429688 208.707031 186.003906 208.332031 186.414062 207.71875 C 186.789062 207.152344 187.03125 206.371094 187.042969 205.511719 C 187.058594 204.652344 186.84375 203.867188 186.484375 203.289062 C 186.09375 202.664062 185.53125 202.273438 184.890625 202.265625 C 184.703125 202.261719 184.546875 202.40625 184.542969 202.585938 C 184.539062 202.765625 184.691406 202.914062 184.878906 202.917969 C 185.265625 202.921875 185.628906 203.191406 185.894531 203.625 C 186.195312 204.101562 186.375 204.765625 186.363281 205.5 C 186.347656 206.238281 186.148438 206.898438 185.835938 207.371094 C 185.554688 207.792969 185.1875 208.050781 184.800781 208.046875 "/><path style=" stroke:none;fill-rule:evenodd;fill:#467cdd;fill-opacity:1;" d="M 184.984375 196.484375 C 184.792969 196.480469 184.640625 196.625 184.636719 196.804688 C 184.632812 196.984375 184.78125 197.132812 184.972656 197.136719 C 185.359375 197.140625 185.71875 197.414062 185.988281 197.84375 C 186.285156 198.320312 186.464844 198.984375 186.453125 199.722656 C 186.441406 200.460938 186.242188 201.117188 185.929688 201.589844 C 185.644531 202.011719 185.277344 202.269531 184.890625 202.265625 C 184.703125 202.261719 184.546875 202.40625 184.542969 202.585938 C 184.539062 202.765625 184.691406 202.914062 184.878906 202.917969 C 185.523438 202.925781 186.097656 202.550781 186.503906 201.9375 C 186.882812 201.371094 187.121094 200.59375 187.136719 199.734375 C 187.148438 198.875 186.933594 198.085938 186.574219 197.507812 C 186.1875 196.886719 185.625 196.496094 184.984375 196.484375 "/><path style=" stroke:none;fill-rule:evenodd;fill:#467cdd;fill-opacity:1;" d="M 176.125 184.136719 C 175.988281 184.273438 175.757812 184.273438 175.613281 184.144531 C 175.472656 184.011719 175.46875 183.792969 175.605469 183.65625 C 176.449219 182.828125 176.859375 181.753906 176.84375 180.683594 C 176.828125 179.621094 176.394531 178.566406 175.539062 177.765625 C 175.523438 177.753906 175.511719 177.738281 175.5 177.726562 C 174.636719 176.933594 173.519531 176.550781 172.40625 176.5625 C 171.292969 176.578125 170.183594 176.996094 169.34375 177.808594 C 169.222656 177.949219 169.003906 177.976562 168.847656 177.863281 C 168.6875 177.75 168.65625 177.53125 168.777344 177.378906 C 168.789062 177.367188 168.796875 177.359375 168.808594 177.347656 C 169.789062 176.382812 171.089844 175.890625 172.394531 175.871094 C 173.699219 175.855469 175.007812 176.3125 176.019531 177.246094 L 176.023438 177.25 C 177.035156 178.1875 177.550781 179.425781 177.570312 180.671875 C 177.589844 181.917969 177.109375 183.171875 176.125 184.136719 "/><path style=" stroke:none;fill-rule:evenodd;fill:#467cdd;fill-opacity:1;" d="M 176.34375 193.347656 C 176.144531 193.359375 175.972656 193.210938 175.960938 193.023438 C 175.949219 192.832031 176.101562 192.667969 176.304688 192.65625 C 177.511719 192.589844 178.578125 192.066406 179.324219 191.269531 C 180.070312 190.472656 180.5 189.402344 180.429688 188.25 C 180.363281 187.097656 179.8125 186.082031 178.976562 185.367188 C 178.140625 184.65625 177.019531 184.246094 175.8125 184.3125 C 175.613281 184.324219 175.441406 184.179688 175.429688 183.988281 C 175.417969 183.796875 175.570312 183.632812 175.769531 183.621094 C 177.179688 183.546875 178.484375 184.023438 179.460938 184.851562 C 180.433594 185.683594 181.074219 186.867188 181.152344 188.210938 C 181.234375 189.554688 180.734375 190.800781 179.863281 191.730469 C 178.992188 192.660156 177.75 193.269531 176.34375 193.347656 "/><path style=" stroke:none;fill-rule:evenodd;fill:#467cdd;fill-opacity:1;" d="M 165.136719 181.660156 C 165.285156 181.789062 165.296875 182.003906 165.164062 182.148438 C 165.027344 182.289062 164.800781 182.300781 164.652344 182.175781 C 163.941406 181.566406 163.554688 180.738281 163.507812 179.894531 C 163.460938 179.054688 163.753906 178.191406 164.390625 177.515625 C 165.03125 176.835938 165.894531 176.46875 166.777344 176.425781 C 167.660156 176.378906 168.5625 176.65625 169.273438 177.265625 C 169.421875 177.394531 169.433594 177.609375 169.300781 177.753906 C 169.167969 177.894531 168.941406 177.90625 168.789062 177.78125 C 168.230469 177.296875 167.515625 177.078125 166.816406 177.113281 C 166.117188 177.152344 165.433594 177.441406 164.929688 177.976562 C 164.425781 178.511719 164.195312 179.191406 164.234375 179.859375 C 164.269531 180.527344 164.574219 181.179688 165.136719 181.660156 "/><path style=" stroke:none;fill-rule:evenodd;fill:#467cdd;fill-opacity:1;" d="M 166.769531 175.394531 C 166.824219 175.578125 166.710938 175.769531 166.519531 175.820312 C 166.328125 175.871094 166.128906 175.765625 166.074219 175.582031 C 165.925781 175.085938 166.0625 174.574219 166.402344 174.144531 C 166.71875 173.742188 167.214844 173.410156 167.820312 173.25 C 168.425781 173.085938 169.035156 173.117188 169.523438 173.304688 C 170.046875 173.503906 170.445312 173.875 170.589844 174.367188 C 170.644531 174.550781 170.53125 174.742188 170.339844 174.792969 C 170.148438 174.84375 169.949219 174.738281 169.894531 174.554688 C 169.8125 174.28125 169.574219 174.066406 169.257812 173.945312 C 168.90625 173.8125 168.46875 173.792969 168.019531 173.914062 C 167.570312 174.035156 167.203125 174.273438 166.980469 174.558594 C 166.773438 174.820312 166.6875 175.121094 166.769531 175.394531 "/><path style=" stroke:none;fill-rule:evenodd;fill:#467cdd;fill-opacity:1;" d="M 164.644531 174.09375 C 164.515625 174.238281 164.289062 174.257812 164.136719 174.132812 C 163.980469 174.011719 163.960938 173.792969 164.089844 173.648438 C 164.4375 173.253906 164.957031 173.074219 165.519531 173.097656 C 166.046875 173.121094 166.617188 173.328125 167.097656 173.71875 C 167.25 173.839844 167.269531 174.058594 167.140625 174.203125 C 167.011719 174.347656 166.785156 174.367188 166.632812 174.246094 C 166.273438 173.957031 165.863281 173.804688 165.488281 173.789062 C 165.148438 173.773438 164.839844 173.875 164.644531 174.09375 "/><path style=" stroke:none;fill-rule:evenodd;fill:#467cdd;fill-opacity:1;" d="M 168.617188 191.871094 C 168.78125 191.761719 169.007812 191.796875 169.121094 191.953125 C 169.238281 192.109375 169.199219 192.324219 169.035156 192.433594 C 168.832031 192.570312 168.625 192.679688 168.410156 192.765625 C 167.632812 193.082031 166.796875 193.074219 166.007812 192.785156 C 165.242188 192.503906 164.523438 191.953125 163.953125 191.179688 C 163.703125 190.84375 163.484375 190.464844 163.300781 190.050781 C 162.730469 188.769531 162.59375 187.355469 162.835938 186.105469 C 163.082031 184.832031 163.71875 183.714844 164.695312 183.0625 C 164.855469 182.953125 165.082031 182.988281 165.199219 183.144531 C 165.3125 183.300781 165.273438 183.515625 165.109375 183.625 C 164.300781 184.171875 163.761719 185.125 163.550781 186.230469 C 163.332031 187.355469 163.453125 188.628906 163.96875 189.78125 C 164.132812 190.152344 164.328125 190.488281 164.542969 190.78125 C 165.03125 191.445312 165.636719 191.910156 166.269531 192.144531 C 166.878906 192.367188 167.527344 192.375 168.128906 192.128906 C 168.296875 192.0625 168.460938 191.976562 168.617188 191.871094 "/><path style=" stroke:none;fill-rule:evenodd;fill:#467cdd;fill-opacity:1;" d="M 167.132812 193.003906 C 166.933594 192.992188 166.78125 192.832031 166.792969 192.640625 C 166.804688 192.449219 166.976562 192.304688 167.175781 192.3125 C 167.789062 192.347656 168.34375 192.6875 168.75 193.210938 C 169.136719 193.710938 169.386719 194.375 169.410156 195.097656 C 169.417969 195.289062 169.261719 195.445312 169.0625 195.453125 C 168.863281 195.460938 168.695312 195.3125 168.6875 195.121094 C 168.667969 194.542969 168.46875 194.011719 168.167969 193.621094 C 167.890625 193.257812 167.523438 193.023438 167.132812 193.003906 "/><path style=" stroke:none;fill-rule:evenodd;fill:#467cdd;fill-opacity:1;" d="M 169.59375 187.835938 C 169.75 187.953125 169.785156 188.167969 169.664062 188.320312 C 169.542969 188.472656 169.3125 188.503906 169.15625 188.386719 C 169.144531 188.382812 169.136719 188.375 169.128906 188.367188 C 168.332031 187.757812 167.867188 186.898438 167.761719 186.003906 C 167.648438 185.101562 167.898438 184.15625 168.535156 183.390625 L 168.535156 183.386719 C 168.542969 183.378906 168.550781 183.371094 168.558594 183.363281 C 169.195312 182.605469 170.09375 182.160156 171.035156 182.058594 C 171.984375 181.953125 172.972656 182.191406 173.78125 182.800781 C 173.9375 182.917969 173.964844 183.136719 173.839844 183.285156 C 173.71875 183.4375 173.488281 183.460938 173.332031 183.34375 C 172.679688 182.851562 171.882812 182.65625 171.121094 182.742188 C 170.363281 182.824219 169.636719 183.183594 169.121094 183.792969 L 169.113281 183.804688 L 169.109375 183.8125 C 168.59375 184.433594 168.386719 185.195312 168.476562 185.921875 C 168.566406 186.644531 168.941406 187.335938 169.578125 187.828125 L 169.59375 187.835938 "/><path style=" stroke:none;fill-rule:evenodd;fill:#467cdd;fill-opacity:1;" d="M 168.070312 187.074219 C 167.992188 186.898438 168.078125 186.695312 168.265625 186.621094 C 168.449219 186.546875 168.660156 186.628906 168.738281 186.804688 C 168.953125 187.285156 168.941406 187.800781 168.75 188.246094 C 168.5625 188.695312 168.191406 189.074219 167.691406 189.277344 C 167.503906 189.351562 167.292969 189.269531 167.214844 189.09375 C 167.136719 188.917969 167.222656 188.714844 167.40625 188.640625 C 167.726562 188.511719 167.960938 188.273438 168.078125 187.988281 C 168.199219 187.707031 168.207031 187.378906 168.070312 187.074219 "/><path style=" stroke:none;fill-rule:evenodd;fill:#467cdd;fill-opacity:1;" d="M 171.273438 190.28125 C 171.226562 190.097656 171.347656 189.910156 171.542969 189.867188 C 171.738281 189.824219 171.933594 189.941406 171.976562 190.125 C 172.148438 190.828125 172.59375 191.464844 173.175781 191.933594 C 173.753906 192.394531 174.460938 192.679688 175.164062 192.683594 C 175.363281 192.683594 175.523438 192.839844 175.523438 193.03125 C 175.523438 193.222656 175.359375 193.375 175.160156 193.375 C 174.285156 193.371094 173.414062 193.023438 172.710938 192.460938 C 172.015625 191.902344 171.480469 191.132812 171.273438 190.28125 "/><path style=" stroke:none;fill-rule:evenodd;fill:#467cdd;fill-opacity:1;" d="M 162.96875 200.371094 C 163.160156 200.371094 163.308594 200.515625 163.308594 200.695312 C 163.308594 200.878906 163.15625 201.023438 162.964844 201.019531 C 162.421875 201.019531 161.9375 200.695312 161.605469 200.171875 C 161.300781 199.695312 161.113281 199.046875 161.113281 198.332031 C 161.117188 197.621094 161.308594 196.972656 161.613281 196.5 C 161.953125 195.976562 162.4375 195.65625 162.984375 195.65625 C 163.171875 195.65625 163.324219 195.804688 163.324219 195.984375 C 163.324219 196.164062 163.167969 196.308594 162.980469 196.308594 C 162.6875 196.308594 162.410156 196.511719 162.195312 196.839844 C 161.953125 197.21875 161.796875 197.746094 161.796875 198.335938 C 161.796875 198.925781 161.945312 199.453125 162.1875 199.832031 C 162.398438 200.164062 162.675781 200.367188 162.96875 200.371094 "/><path style=" stroke:none;fill-rule:evenodd;fill:#467cdd;fill-opacity:1;" d="M 162.996094 190.945312 C 163.1875 190.945312 163.339844 191.089844 163.335938 191.273438 C 163.335938 191.453125 163.183594 191.597656 162.992188 191.597656 C 162.703125 191.597656 162.425781 191.800781 162.210938 192.128906 C 161.964844 192.507812 161.8125 193.035156 161.8125 193.625 C 161.808594 194.214844 161.957031 194.742188 162.199219 195.121094 C 162.414062 195.453125 162.691406 195.65625 162.984375 195.65625 C 163.171875 195.65625 163.324219 195.804688 163.324219 195.984375 C 163.324219 196.164062 163.167969 196.308594 162.980469 196.308594 C 162.433594 196.308594 161.953125 195.984375 161.617188 195.460938 C 161.316406 194.988281 161.128906 194.347656 161.128906 193.648438 C 161.125 193.628906 161.125 193.613281 161.128906 193.597656 C 161.132812 192.894531 161.324219 192.253906 161.628906 191.785156 C 161.964844 191.265625 162.449219 190.941406 162.996094 190.945312 "/><path style=" stroke:none;fill-rule:evenodd;fill:#467cdd;fill-opacity:1;" d="M 181.140625 193.0625 C 180.984375 193.164062 180.769531 193.125 180.664062 192.976562 C 180.558594 192.828125 180.601562 192.625 180.757812 192.523438 C 181.058594 192.328125 181.429688 192.300781 181.789062 192.414062 C 182.117188 192.515625 182.433594 192.742188 182.664062 193.066406 C 182.769531 193.214844 182.726562 193.417969 182.570312 193.515625 C 182.414062 193.617188 182.203125 193.578125 182.097656 193.429688 C 181.953125 193.230469 181.765625 193.09375 181.574219 193.03125 C 181.414062 192.980469 181.257812 192.988281 181.140625 193.0625 "/><path style=" stroke:none;fill-rule:evenodd;fill:#467cdd;fill-opacity:1;" d="M 184.933594 193.820312 C 185.035156 193.96875 185.246094 194.015625 185.40625 193.917969 C 185.5625 193.820312 185.609375 193.617188 185.507812 193.464844 C 185.355469 193.242188 185.152344 193.046875 184.914062 192.894531 L 184.917969 192.894531 C 184.6875 192.75 184.425781 192.644531 184.140625 192.59375 C 183.570312 192.492188 183.015625 192.621094 182.574219 192.910156 C 182.136719 193.195312 181.808594 193.644531 181.703125 194.1875 C 181.667969 194.363281 181.792969 194.535156 181.976562 194.566406 C 182.160156 194.601562 182.339844 194.484375 182.375 194.308594 C 182.445312 193.941406 182.664062 193.640625 182.960938 193.445312 C 183.257812 193.253906 183.632812 193.164062 184.011719 193.234375 C 184.203125 193.265625 184.382812 193.335938 184.535156 193.4375 L 184.535156 193.433594 L 184.539062 193.433594 C 184.695312 193.535156 184.832031 193.667969 184.933594 193.820312 "/><path style=" stroke:none;fill-rule:evenodd;fill:#467cdd;fill-opacity:1;" d="M 176.832031 187.144531 C 176.835938 186.964844 176.992188 186.824219 177.183594 186.828125 C 177.371094 186.832031 177.519531 186.984375 177.515625 187.164062 C 177.492188 187.871094 177.089844 188.5 176.449219 188.9375 C 175.839844 189.359375 175.007812 189.609375 174.105469 189.582031 C 173.917969 189.578125 173.769531 189.425781 173.773438 189.246094 C 173.78125 189.066406 173.9375 188.925781 174.125 188.929688 C 174.875 188.949219 175.554688 188.75 176.050781 188.410156 C 176.519531 188.089844 176.816406 187.640625 176.832031 187.144531 "/><path style=" stroke:none;fill-rule:evenodd;fill:#467cdd;fill-opacity:1;" d="M 163.882812 210.425781 C 164.03125 210.550781 164.042969 210.769531 163.910156 210.910156 C 163.777344 211.054688 163.546875 211.066406 163.398438 210.9375 C 162.6875 210.328125 162.304688 209.503906 162.257812 208.660156 C 162.207031 207.816406 162.5 206.957031 163.136719 206.277344 C 163.777344 205.601562 164.640625 205.234375 165.523438 205.1875 C 166.410156 205.144531 167.3125 205.417969 168.019531 206.027344 C 168.167969 206.15625 168.183594 206.375 168.046875 206.515625 C 167.914062 206.660156 167.6875 206.671875 167.539062 206.542969 C 166.976562 206.0625 166.261719 205.84375 165.566406 205.878906 C 164.867188 205.914062 164.179688 206.203125 163.675781 206.738281 C 163.171875 207.273438 162.941406 207.953125 162.980469 208.621094 C 163.015625 209.289062 163.320312 209.941406 163.882812 210.425781 "/><path style=" stroke:none;fill-rule:evenodd;fill:#467cdd;fill-opacity:1;" d="M 162.605469 204.875 C 162.757812 204.992188 162.800781 205.222656 162.699219 205.394531 C 162.59375 205.5625 162.386719 205.605469 162.230469 205.488281 C 161.816406 205.175781 161.585938 204.664062 161.550781 204.085938 C 161.515625 203.546875 161.65625 202.941406 161.980469 202.410156 C 162.082031 202.238281 162.289062 202.195312 162.445312 202.3125 C 162.601562 202.429688 162.640625 202.660156 162.539062 202.832031 C 162.300781 203.226562 162.195312 203.660156 162.21875 204.046875 C 162.242188 204.398438 162.371094 204.703125 162.605469 204.875 "/><path style=" stroke:none;fill-rule:evenodd;fill:#467cdd;fill-opacity:1;" d="M 165.414062 224.183594 C 165.605469 224.160156 165.792969 224.296875 165.828125 224.488281 C 165.863281 224.683594 165.734375 224.855469 165.542969 224.882812 C 165.300781 224.910156 165.066406 224.914062 164.839844 224.894531 C 164.003906 224.820312 163.261719 224.429688 162.679688 223.8125 C 162.117188 223.207031 161.710938 222.386719 161.535156 221.429688 C 161.457031 221.019531 161.421875 220.578125 161.4375 220.125 C 161.480469 218.71875 161.96875 217.386719 162.730469 216.378906 C 163.5 215.347656 164.554688 214.640625 165.710938 214.5 C 165.902344 214.476562 166.089844 214.613281 166.125 214.804688 C 166.160156 215 166.03125 215.171875 165.839844 215.195312 C 164.875 215.3125 163.980469 215.921875 163.3125 216.816406 C 162.632812 217.726562 162.191406 218.921875 162.152344 220.1875 C 162.136719 220.59375 162.167969 220.984375 162.234375 221.34375 C 162.386719 222.164062 162.722656 222.855469 163.191406 223.355469 C 163.640625 223.835938 164.21875 224.136719 164.863281 224.195312 C 165.042969 224.210938 165.226562 224.207031 165.414062 224.183594 "/><path style=" stroke:none;fill-rule:evenodd;fill:#467cdd;fill-opacity:1;" d="M 168.285156 214.882812 C 168.445312 215 168.476562 215.214844 168.355469 215.367188 C 168.234375 215.519531 168.007812 215.550781 167.847656 215.433594 C 167.839844 215.429688 167.832031 215.421875 167.824219 215.414062 C 167.027344 214.804688 166.5625 213.945312 166.453125 213.050781 C 166.34375 212.148438 166.59375 211.203125 167.230469 210.433594 C 167.238281 210.425781 167.246094 210.417969 167.253906 210.410156 C 167.890625 209.652344 168.789062 209.207031 169.730469 209.105469 C 170.679688 209 171.667969 209.238281 172.476562 209.847656 C 172.632812 209.964844 172.660156 210.183594 172.535156 210.332031 C 172.414062 210.484375 172.183594 210.507812 172.027344 210.390625 C 171.375 209.898438 170.578125 209.703125 169.8125 209.789062 C 169.054688 209.871094 168.332031 210.230469 167.816406 210.839844 L 167.808594 210.851562 L 167.804688 210.859375 C 167.285156 211.480469 167.082031 212.242188 167.171875 212.96875 C 167.261719 213.691406 167.632812 214.382812 168.273438 214.875 L 168.285156 214.882812 "/><path style=" stroke:none;fill-rule:evenodd;fill:#467cdd;fill-opacity:1;" d="M 166.816406 215.835938 C 166.738281 215.660156 166.828125 215.457031 167.011719 215.382812 C 167.195312 215.308594 167.40625 215.394531 167.484375 215.570312 C 167.699219 216.046875 167.6875 216.5625 167.5 217.011719 C 167.308594 217.460938 166.941406 217.839844 166.4375 218.042969 C 166.25 218.117188 166.039062 218.035156 165.960938 217.859375 C 165.882812 217.683594 165.972656 217.480469 166.15625 217.40625 C 166.472656 217.277344 166.707031 217.039062 166.824219 216.753906 C 166.945312 216.46875 166.953125 216.140625 166.816406 215.835938 "/><path style=" stroke:none;fill-rule:evenodd;fill:#467cdd;fill-opacity:1;" d="M 164.003906 212.726562 C 164.1875 212.699219 164.355469 212.839844 164.371094 213.042969 C 164.390625 213.246094 164.253906 213.433594 164.066406 213.460938 C 163.558594 213.535156 163.078125 213.378906 162.714844 213.066406 C 162.351562 212.753906 162.101562 212.28125 162.050781 211.726562 C 162.035156 211.527344 162.171875 211.339844 162.355469 211.3125 C 162.542969 211.285156 162.707031 211.429688 162.726562 211.628906 C 162.757812 211.980469 162.914062 212.277344 163.144531 212.476562 C 163.375 212.675781 163.679688 212.773438 164.003906 212.726562 "/><g clip-rule="nonzero" clip-path="url(#393cb1ca93)"><path style=" stroke:none;fill-rule:evenodd;fill:#fec104;fill-opacity:1;" d="M 129.257812 158.976562 L 128.949219 166.808594 L 112.726562 147.335938 L 127.210938 160.023438 L 126.257812 151.300781 L 140.878906 169.863281 L 129.257812 158.976562 "/></g><g clip-rule="nonzero" clip-path="url(#e5b072c1a9)"><path style=" stroke:none;fill-rule:evenodd;fill:#fec104;fill-opacity:1;" d="M 140.359375 158.394531 L 138.199219 162.660156 L 134.140625 147.753906 L 138.957031 158.457031 L 140.640625 153.378906 L 144.046875 167.375 L 140.359375 158.394531 "/></g><path style=" stroke:none;fill-rule:evenodd;fill:#fec104;fill-opacity:1;" d="M 131.777344 171.15625 L 132.625 174.175781 L 124.042969 168.765625 L 131.125 171.808594 L 129.6875 168.605469 L 137.546875 173.867188 L 131.777344 171.15625 "/><g clip-rule="nonzero" clip-path="url(#0d149f2a4b)"><path style=" stroke:none;fill-rule:evenodd;fill:#fec104;fill-opacity:1;" d="M 189.175781 158.976562 L 189.484375 166.808594 L 205.707031 147.335938 L 191.222656 160.023438 L 192.175781 151.300781 L 177.554688 169.863281 L 189.175781 158.976562 "/></g><g clip-rule="nonzero" clip-path="url(#5e51c390ad)"><path style=" stroke:none;fill-rule:evenodd;fill:#fec104;fill-opacity:1;" d="M 178.074219 158.394531 L 180.234375 162.660156 L 184.292969 147.753906 L 179.476562 158.457031 L 177.792969 153.378906 L 174.390625 167.375 L 178.074219 158.394531 "/></g><path style=" stroke:none;fill-rule:evenodd;fill:#fec104;fill-opacity:1;" d="M 186.65625 171.15625 L 185.804688 174.175781 L 194.386719 168.765625 L 187.308594 171.808594 L 188.746094 168.605469 L 180.886719 173.867188 L 186.65625 171.15625 "/></g></svg>