<svg xmlns="http://www.w3.org/2000/svg" xmlns:xlink="http://www.w3.org/1999/xlink" width="800" zoomAndPan="magnify" viewBox="0 0 600 599.999999" height="800" preserveAspectRatio="xMidYMid meet" version="1.2"><defs><clipPath id="074198af76"><path d="M 160.203125 215.589844 L 440.703125 215.589844 L 440.703125 285.339844 L 160.203125 285.339844 Z M 160.203125 215.589844 "/></clipPath><clipPath id="aa007773c0"><path d="M 117.402344 177 L 152 177 L 152 205 L 117.402344 205 Z M 117.402344 177 "/></clipPath><clipPath id="926591ef70"><path d="M 160 212 L 187 212 L 187 246.964844 L 160 246.964844 Z M 160 212 "/></clipPath></defs><g id="0d641e387b"><g clip-rule="nonzero" clip-path="url(#074198af76)"><path style=" stroke:none;fill-rule:nonzero;fill:#ff9999;fill-opacity:1;" d="M 160.203125 215.589844 L 160.203125 285.339844 L 440.058594 285.339844 L 440.058594 215.589844 Z M 160.203125 215.589844 "/></g><g style="fill:#000000;fill-opacity:1;"><g transform="translate(176.8682, 258.34126)"><path style="stroke:none" d="M 10.671875 0 L 7.6875 0 L 7.6875 -3.421875 L 0.53125 -3.421875 L 0.53125 -5.921875 L 6.6875 -15.703125 L 10.671875 -15.703125 L 10.671875 -5.921875 L 13.078125 -5.921875 L 13.078125 -3.421875 L 10.671875 -3.421875 Z M 3.71875 -6.140625 L 3.8125 -5.921875 L 7.6875 -5.921875 L 7.6875 -12 L 7.4375 -12.046875 Z M 3.71875 -6.140625 "/></g></g><g style="fill:#000000;fill-opacity:1;"><g transform="translate(204.395543, 258.34126)"><path style="stroke:none" d=""/></g></g><g style="fill:#000000;fill-opacity:1;"><g transform="translate(209.583103, 258.34126)"><path style="stroke:none" d="M 7.625 0.21875 C 6.3125 0.21875 5.175781 -0.078125 4.21875 -0.671875 C 3.269531 -1.265625 2.535156 -2.164062 2.015625 -3.375 C 1.492188 -4.582031 1.234375 -6.078125 1.234375 -7.859375 C 1.234375 -9.640625 1.546875 -11.132812 2.171875 -12.34375 C 2.796875 -13.550781 3.660156 -14.453125 4.765625 -15.046875 C 5.867188 -15.640625 7.148438 -15.9375 8.609375 -15.9375 C 10.117188 -15.9375 11.398438 -15.65625 12.453125 -15.09375 C 13.515625 -14.53125 14.265625 -13.695312 14.703125 -12.59375 L 12.421875 -11.21875 L 12.15625 -11.234375 C 11.832031 -11.941406 11.378906 -12.453125 10.796875 -12.765625 C 10.210938 -13.085938 9.484375 -13.25 8.609375 -13.25 C 7.253906 -13.25 6.21875 -12.820312 5.5 -11.96875 C 4.789062 -11.113281 4.4375 -9.742188 4.4375 -7.859375 C 4.4375 -5.953125 4.769531 -4.566406 5.4375 -3.703125 C 6.113281 -2.847656 7.101562 -2.421875 8.40625 -2.421875 C 9.539062 -2.421875 10.375 -2.675781 10.90625 -3.1875 C 11.445312 -3.695312 11.71875 -4.457031 11.71875 -5.46875 L 11.71875 -6.140625 L 8 -6.140625 L 8 -8.671875 L 14.796875 -8.671875 L 14.796875 0 L 11.84375 0 L 11.84375 -2.109375 L 11.609375 -2.140625 C 11.285156 -1.390625 10.796875 -0.804688 10.140625 -0.390625 C 9.484375 0.015625 8.644531 0.21875 7.625 0.21875 Z M 7.625 0.21875 "/></g></g><g style="fill:#000000;fill-opacity:1;"><g transform="translate(225.962035, 258.34126)"><path style="stroke:none" d="M 11.703125 -5.25 L 4.09375 -5.25 C 4.175781 -4.21875 4.46875 -3.46875 4.96875 -3 C 5.46875 -2.53125 6.15625 -2.296875 7.03125 -2.296875 C 7.707031 -2.296875 8.253906 -2.421875 8.671875 -2.671875 C 9.097656 -2.929688 9.441406 -3.316406 9.703125 -3.828125 L 9.921875 -3.828125 L 11.90625 -2.5625 C 11.519531 -1.738281 10.9375 -1.066406 10.15625 -0.546875 C 9.375 -0.0351562 8.332031 0.21875 7.03125 0.21875 C 5.800781 0.21875 4.738281 -0.0078125 3.84375 -0.46875 C 2.957031 -0.9375 2.269531 -1.628906 1.78125 -2.546875 C 1.300781 -3.472656 1.0625 -4.597656 1.0625 -5.921875 C 1.0625 -7.265625 1.316406 -8.394531 1.828125 -9.3125 C 2.335938 -10.238281 3.023438 -10.929688 3.890625 -11.390625 C 4.753906 -11.847656 5.726562 -12.078125 6.8125 -12.078125 C 8.488281 -12.078125 9.769531 -11.628906 10.65625 -10.734375 C 11.550781 -9.847656 12 -8.546875 12 -6.828125 C 12 -6.203125 11.976562 -5.71875 11.9375 -5.375 Z M 9.15625 -7.171875 C 9.125 -8.078125 8.910156 -8.734375 8.515625 -9.140625 C 8.128906 -9.554688 7.5625 -9.765625 6.8125 -9.765625 C 5.3125 -9.765625 4.425781 -8.898438 4.15625 -7.171875 Z M 9.15625 -7.171875 "/></g></g><g style="fill:#000000;fill-opacity:1;"><g transform="translate(238.839636, 258.34126)"><path style="stroke:none" d="M 1.703125 0 L 1.703125 -11.84375 L 4.5625 -11.84375 L 4.5625 -10.109375 L 4.796875 -10.0625 C 5.523438 -11.40625 6.71875 -12.078125 8.375 -12.078125 C 9.75 -12.078125 10.753906 -11.703125 11.390625 -10.953125 C 12.035156 -10.210938 12.359375 -9.128906 12.359375 -7.703125 L 12.359375 0 L 9.375 0 L 9.375 -7.34375 C 9.375 -8.125 9.21875 -8.6875 8.90625 -9.03125 C 8.59375 -9.382812 8.085938 -9.5625 7.390625 -9.5625 C 6.535156 -9.5625 5.867188 -9.285156 5.390625 -8.734375 C 4.921875 -8.179688 4.6875 -7.316406 4.6875 -6.140625 L 4.6875 0 Z M 1.703125 0 "/></g></g><g style="fill:#000000;fill-opacity:1;"><g transform="translate(252.716078, 258.34126)"><path style="stroke:none" d="M 3.03125 0.09375 C 2.644531 0.09375 2.304688 0.0195312 2.015625 -0.125 C 1.734375 -0.28125 1.515625 -0.492188 1.359375 -0.765625 C 1.203125 -1.046875 1.125 -1.359375 1.125 -1.703125 C 1.125 -2.046875 1.203125 -2.351562 1.359375 -2.625 C 1.515625 -2.894531 1.734375 -3.109375 2.015625 -3.265625 C 2.304688 -3.421875 2.644531 -3.5 3.03125 -3.5 C 3.414062 -3.5 3.753906 -3.421875 4.046875 -3.265625 C 4.335938 -3.117188 4.554688 -2.90625 4.703125 -2.625 C 4.859375 -2.351562 4.9375 -2.046875 4.9375 -1.703125 C 4.9375 -1.179688 4.765625 -0.75 4.421875 -0.40625 C 4.078125 -0.0703125 3.613281 0.09375 3.03125 0.09375 Z M 3.03125 -8.375 C 2.644531 -8.375 2.304688 -8.445312 2.015625 -8.59375 C 1.734375 -8.75 1.515625 -8.960938 1.359375 -9.234375 C 1.203125 -9.515625 1.125 -9.828125 1.125 -10.171875 C 1.125 -10.515625 1.203125 -10.820312 1.359375 -11.09375 C 1.515625 -11.363281 1.734375 -11.578125 2.015625 -11.734375 C 2.304688 -11.890625 2.644531 -11.96875 3.03125 -11.96875 C 3.414062 -11.96875 3.753906 -11.890625 4.046875 -11.734375 C 4.335938 -11.585938 4.554688 -11.375 4.703125 -11.09375 C 4.859375 -10.820312 4.9375 -10.515625 4.9375 -10.171875 C 4.9375 -9.648438 4.765625 -9.21875 4.421875 -8.875 C 4.078125 -8.539062 3.613281 -8.375 3.03125 -8.375 Z M 3.03125 -8.375 "/></g></g><g style="fill:#000000;fill-opacity:1;"><g transform="translate(258.784342, 258.34126)"><path style="stroke:none" d=""/></g></g><g style="fill:#000000;fill-opacity:1;"><g transform="translate(263.973665, 258.34126)"><path style="stroke:none" d="M 5.140625 0 L 2.046875 0 L 2.046875 -15.703125 L 5.140625 -15.703125 Z M 5.140625 0 "/></g></g><g style="fill:#000000;fill-opacity:1;"><g transform="translate(271.169653, 258.34126)"><path style="stroke:none" d="M 8.171875 -2.828125 L 8.953125 -0.625 C 8.628906 -0.351562 8.222656 -0.144531 7.734375 0 C 7.242188 0.144531 6.691406 0.21875 6.078125 0.21875 C 4.796875 0.21875 3.820312 -0.128906 3.15625 -0.828125 C 2.488281 -1.523438 2.15625 -2.539062 2.15625 -3.875 L 2.15625 -9.5 L 0.359375 -9.5 L 0.359375 -11.859375 L 2.15625 -11.859375 L 2.15625 -14.171875 L 5.140625 -14.65625 L 5.140625 -11.859375 L 8.5 -11.859375 L 8.5 -9.5 L 5.140625 -9.5 L 5.140625 -4.078125 C 5.140625 -3.492188 5.257812 -3.066406 5.5 -2.796875 C 5.738281 -2.523438 6.09375 -2.390625 6.5625 -2.390625 C 7.09375 -2.390625 7.554688 -2.535156 7.953125 -2.828125 Z M 8.171875 -2.828125 "/></g></g><g style="fill:#000000;fill-opacity:1;"><g transform="translate(280.374078, 258.34126)"><path style="stroke:none" d="M 0.515625 -10.203125 C 1.171875 -10.566406 1.722656 -10.984375 2.171875 -11.453125 C 2.617188 -11.921875 2.875 -12.398438 2.9375 -12.890625 C 2.382812 -12.910156 1.953125 -13.078125 1.640625 -13.390625 C 1.328125 -13.710938 1.171875 -14.125 1.171875 -14.625 C 1.171875 -14.957031 1.242188 -15.253906 1.390625 -15.515625 C 1.546875 -15.785156 1.757812 -15.992188 2.03125 -16.140625 C 2.3125 -16.296875 2.640625 -16.375 3.015625 -16.375 C 3.585938 -16.375 4.046875 -16.171875 4.390625 -15.765625 C 4.742188 -15.367188 4.921875 -14.816406 4.921875 -14.109375 C 4.921875 -12.910156 4.601562 -11.882812 3.96875 -11.03125 C 3.332031 -10.175781 2.472656 -9.441406 1.390625 -8.828125 Z M 0.515625 -10.203125 "/></g></g><g style="fill:#000000;fill-opacity:1;"><g transform="translate(286.345673, 258.34126)"><path style="stroke:none" d="M 5.546875 0.21875 C 4.734375 0.21875 3.988281 0.125 3.3125 -0.0625 C 2.644531 -0.25 2.070312 -0.507812 1.59375 -0.84375 C 1.113281 -1.175781 0.757812 -1.554688 0.53125 -1.984375 L 2.1875 -3.765625 L 2.421875 -3.765625 C 2.816406 -3.234375 3.28125 -2.835938 3.8125 -2.578125 C 4.351562 -2.316406 4.9375 -2.1875 5.5625 -2.1875 C 6.144531 -2.1875 6.582031 -2.285156 6.875 -2.484375 C 7.164062 -2.691406 7.3125 -2.992188 7.3125 -3.390625 C 7.3125 -3.679688 7.207031 -3.929688 7 -4.140625 C 6.789062 -4.347656 6.445312 -4.507812 5.96875 -4.625 L 4.40625 -5 C 3.226562 -5.28125 2.367188 -5.707031 1.828125 -6.28125 C 1.285156 -6.851562 1.015625 -7.582031 1.015625 -8.46875 C 1.015625 -9.207031 1.203125 -9.847656 1.578125 -10.390625 C 1.960938 -10.941406 2.492188 -11.359375 3.171875 -11.640625 C 3.859375 -11.929688 4.65625 -12.078125 5.5625 -12.078125 C 6.632812 -12.078125 7.519531 -11.921875 8.21875 -11.609375 C 8.914062 -11.304688 9.460938 -10.894531 9.859375 -10.375 L 8.265625 -8.65625 L 8.0625 -8.65625 C 7.726562 -9.03125 7.351562 -9.300781 6.9375 -9.46875 C 6.53125 -9.644531 6.070312 -9.734375 5.5625 -9.734375 C 4.382812 -9.734375 3.796875 -9.367188 3.796875 -8.640625 C 3.796875 -8.328125 3.90625 -8.070312 4.125 -7.875 C 4.34375 -7.6875 4.726562 -7.53125 5.28125 -7.40625 L 6.75 -7.09375 C 7.945312 -6.832031 8.820312 -6.414062 9.375 -5.84375 C 9.9375 -5.28125 10.21875 -4.519531 10.21875 -3.5625 C 10.21875 -2.800781 10.03125 -2.132812 9.65625 -1.5625 C 9.28125 -0.988281 8.742188 -0.546875 8.046875 -0.234375 C 7.347656 0.0664062 6.515625 0.21875 5.546875 0.21875 Z M 5.546875 0.21875 "/></g></g><g style="fill:#000000;fill-opacity:1;"><g transform="translate(297.268544, 258.34126)"><path style="stroke:none" d=""/></g></g><g style="fill:#000000;fill-opacity:1;"><g transform="translate(302.456104, 258.34126)"><path style="stroke:none" d="M 5.859375 0.21875 C 4.921875 0.21875 4.085938 -0.00390625 3.359375 -0.453125 C 2.640625 -0.910156 2.078125 -1.597656 1.671875 -2.515625 C 1.265625 -3.441406 1.0625 -4.578125 1.0625 -5.921875 C 1.0625 -7.273438 1.269531 -8.410156 1.6875 -9.328125 C 2.113281 -10.242188 2.695312 -10.929688 3.4375 -11.390625 C 4.175781 -11.847656 5.03125 -12.078125 6 -12.078125 C 6.738281 -12.078125 7.378906 -11.945312 7.921875 -11.6875 C 8.460938 -11.4375 8.921875 -11.039062 9.296875 -10.5 L 9.515625 -10.5625 L 9.515625 -16.609375 L 12.5 -16.609375 L 12.5 0 L 9.515625 0 L 9.515625 -1.53125 L 9.296875 -1.578125 C 8.960938 -1.015625 8.507812 -0.570312 7.9375 -0.25 C 7.363281 0.0625 6.671875 0.21875 5.859375 0.21875 Z M 6.828125 -2.296875 C 7.660156 -2.296875 8.320312 -2.59375 8.8125 -3.1875 C 9.300781 -3.789062 9.546875 -4.703125 9.546875 -5.921875 C 9.546875 -7.140625 9.300781 -8.046875 8.8125 -8.640625 C 8.320312 -9.242188 7.660156 -9.546875 6.828125 -9.546875 C 5.953125 -9.546875 5.28125 -9.253906 4.8125 -8.671875 C 4.351562 -8.085938 4.125 -7.171875 4.125 -5.921875 C 4.125 -4.671875 4.351562 -3.753906 4.8125 -3.171875 C 5.28125 -2.585938 5.953125 -2.296875 6.828125 -2.296875 Z M 6.828125 -2.296875 "/></g></g><g style="fill:#000000;fill-opacity:1;"><g transform="translate(316.654754, 258.34126)"><path style="stroke:none" d="M 11.703125 -5.25 L 4.09375 -5.25 C 4.175781 -4.21875 4.46875 -3.46875 4.96875 -3 C 5.46875 -2.53125 6.15625 -2.296875 7.03125 -2.296875 C 7.707031 -2.296875 8.253906 -2.421875 8.671875 -2.671875 C 9.097656 -2.929688 9.441406 -3.316406 9.703125 -3.828125 L 9.921875 -3.828125 L 11.90625 -2.5625 C 11.519531 -1.738281 10.9375 -1.066406 10.15625 -0.546875 C 9.375 -0.0351562 8.332031 0.21875 7.03125 0.21875 C 5.800781 0.21875 4.738281 -0.0078125 3.84375 -0.46875 C 2.957031 -0.9375 2.269531 -1.628906 1.78125 -2.546875 C 1.300781 -3.472656 1.0625 -4.597656 1.0625 -5.921875 C 1.0625 -7.265625 1.316406 -8.394531 1.828125 -9.3125 C 2.335938 -10.238281 3.023438 -10.929688 3.890625 -11.390625 C 4.753906 -11.847656 5.726562 -12.078125 6.8125 -12.078125 C 8.488281 -12.078125 9.769531 -11.628906 10.65625 -10.734375 C 11.550781 -9.847656 12 -8.546875 12 -6.828125 C 12 -6.203125 11.976562 -5.71875 11.9375 -5.375 Z M 9.15625 -7.171875 C 9.125 -8.078125 8.910156 -8.734375 8.515625 -9.140625 C 8.128906 -9.554688 7.5625 -9.765625 6.8125 -9.765625 C 5.3125 -9.765625 4.425781 -8.898438 4.15625 -7.171875 Z M 9.15625 -7.171875 "/></g></g><g style="fill:#000000;fill-opacity:1;"><g transform="translate(329.532355, 258.34126)"><path style="stroke:none" d="M 1.703125 4.796875 L 1.703125 -11.84375 L 4.6875 -11.84375 L 4.6875 -10.296875 L 4.90625 -10.265625 C 5.257812 -10.859375 5.726562 -11.304688 6.3125 -11.609375 C 6.90625 -11.921875 7.59375 -12.078125 8.375 -12.078125 C 9.332031 -12.078125 10.164062 -11.847656 10.875 -11.390625 C 11.59375 -10.941406 12.148438 -10.253906 12.546875 -9.328125 C 12.941406 -8.410156 13.140625 -7.273438 13.140625 -5.921875 C 13.140625 -4.566406 12.925781 -3.429688 12.5 -2.515625 C 12.082031 -1.597656 11.5 -0.910156 10.75 -0.453125 C 10.007812 -0.00390625 9.15625 0.21875 8.1875 0.21875 C 7.445312 0.21875 6.804688 0.0976562 6.265625 -0.140625 C 5.734375 -0.390625 5.28125 -0.773438 4.90625 -1.296875 L 4.6875 -1.25 L 4.6875 4.796875 Z M 7.359375 -2.296875 C 8.242188 -2.296875 8.914062 -2.585938 9.375 -3.171875 C 9.832031 -3.753906 10.0625 -4.671875 10.0625 -5.921875 C 10.0625 -7.171875 9.832031 -8.085938 9.375 -8.671875 C 8.914062 -9.253906 8.242188 -9.546875 7.359375 -9.546875 C 6.523438 -9.546875 5.863281 -9.242188 5.375 -8.640625 C 4.894531 -8.046875 4.65625 -7.140625 4.65625 -5.921875 C 4.65625 -4.710938 4.894531 -3.804688 5.375 -3.203125 C 5.863281 -2.597656 6.523438 -2.296875 7.359375 -2.296875 Z M 7.359375 -2.296875 "/></g></g><g style="fill:#000000;fill-opacity:1;"><g transform="translate(343.72027, 258.34126)"><path style="stroke:none" d="M 4.921875 0.21875 C 3.847656 0.21875 3.03125 -0.0664062 2.46875 -0.640625 C 1.914062 -1.210938 1.640625 -2.085938 1.640625 -3.265625 L 1.640625 -16.609375 L 4.609375 -16.609375 L 4.609375 -3.390625 C 4.609375 -2.660156 4.910156 -2.296875 5.515625 -2.296875 C 5.679688 -2.296875 5.863281 -2.328125 6.0625 -2.390625 L 6.203125 -2.34375 L 6.484375 -0.046875 C 6.316406 0.0351562 6.097656 0.0976562 5.828125 0.140625 C 5.554688 0.191406 5.253906 0.21875 4.921875 0.21875 Z M 4.921875 0.21875 "/></g></g><g style="fill:#000000;fill-opacity:1;"><g transform="translate(350.529607, 258.34126)"><path style="stroke:none" d="M 6.890625 0.21875 C 5.722656 0.21875 4.703125 -0.015625 3.828125 -0.484375 C 2.953125 -0.960938 2.269531 -1.660156 1.78125 -2.578125 C 1.300781 -3.503906 1.0625 -4.617188 1.0625 -5.921875 C 1.0625 -7.222656 1.300781 -8.332031 1.78125 -9.25 C 2.269531 -10.175781 2.953125 -10.878906 3.828125 -11.359375 C 4.703125 -11.835938 5.722656 -12.078125 6.890625 -12.078125 C 8.046875 -12.078125 9.0625 -11.835938 9.9375 -11.359375 C 10.820312 -10.878906 11.503906 -10.175781 11.984375 -9.25 C 12.472656 -8.332031 12.71875 -7.222656 12.71875 -5.921875 C 12.71875 -4.617188 12.472656 -3.503906 11.984375 -2.578125 C 11.503906 -1.660156 10.820312 -0.960938 9.9375 -0.484375 C 9.0625 -0.015625 8.046875 0.21875 6.890625 0.21875 Z M 6.890625 -2.296875 C 8.722656 -2.296875 9.640625 -3.503906 9.640625 -5.921875 C 9.640625 -7.171875 9.40625 -8.085938 8.9375 -8.671875 C 8.46875 -9.253906 7.785156 -9.546875 6.890625 -9.546875 C 5.046875 -9.546875 4.125 -8.335938 4.125 -5.921875 C 4.125 -3.503906 5.046875 -2.296875 6.890625 -2.296875 Z M 6.890625 -2.296875 "/></g></g><g style="fill:#000000;fill-opacity:1;"><g transform="translate(364.298646, 258.34126)"><path style="stroke:none" d="M 2.625 5.03125 C 2.113281 5.03125 1.648438 4.988281 1.234375 4.90625 C 0.828125 4.832031 0.492188 4.726562 0.234375 4.59375 L 0.703125 2.1875 L 0.90625 2.125 C 1.082031 2.21875 1.300781 2.289062 1.5625 2.34375 C 1.832031 2.40625 2.109375 2.4375 2.390625 2.4375 C 2.867188 2.4375 3.265625 2.375 3.578125 2.25 C 3.898438 2.125 4.171875 1.914062 4.390625 1.625 C 4.617188 1.332031 4.816406 0.929688 4.984375 0.421875 L 0.265625 -11.84375 L 3.375 -11.84375 L 6.3125 -3.609375 L 6.578125 -3.609375 L 9.4375 -11.84375 L 12.46875 -11.84375 L 7.71875 0.734375 C 7.332031 1.753906 6.910156 2.570312 6.453125 3.1875 C 6.003906 3.8125 5.46875 4.273438 4.84375 4.578125 C 4.226562 4.878906 3.488281 5.03125 2.625 5.03125 Z M 2.625 5.03125 "/></g></g><g style="fill:#000000;fill-opacity:1;"><g transform="translate(377.015137, 258.34126)"><path style="stroke:none" d="M 4.625 0.21875 C 3.863281 0.21875 3.203125 0.0820312 2.640625 -0.1875 C 2.085938 -0.46875 1.660156 -0.878906 1.359375 -1.421875 C 1.054688 -1.960938 0.90625 -2.613281 0.90625 -3.375 C 0.90625 -4.070312 1.054688 -4.660156 1.359375 -5.140625 C 1.660156 -5.617188 2.125 -6.007812 2.75 -6.3125 C 3.382812 -6.613281 4.207031 -6.847656 5.21875 -7.015625 C 5.925781 -7.128906 6.460938 -7.253906 6.828125 -7.390625 C 7.203125 -7.523438 7.453125 -7.675781 7.578125 -7.84375 C 7.710938 -8.019531 7.78125 -8.242188 7.78125 -8.515625 C 7.78125 -8.890625 7.644531 -9.175781 7.375 -9.375 C 7.113281 -9.570312 6.675781 -9.671875 6.0625 -9.671875 C 5.40625 -9.671875 4.773438 -9.523438 4.171875 -9.234375 C 3.578125 -8.941406 3.0625 -8.554688 2.625 -8.078125 L 2.421875 -8.078125 L 1.171875 -9.953125 C 1.773438 -10.617188 2.507812 -11.140625 3.375 -11.515625 C 4.238281 -11.890625 5.179688 -12.078125 6.203125 -12.078125 C 7.773438 -12.078125 8.910156 -11.742188 9.609375 -11.078125 C 10.316406 -10.410156 10.671875 -9.460938 10.671875 -8.234375 L 10.671875 -3.09375 C 10.671875 -2.5625 10.898438 -2.296875 11.359375 -2.296875 C 11.546875 -2.296875 11.722656 -2.328125 11.890625 -2.390625 L 12.046875 -2.359375 L 12.25 -0.28125 C 12.09375 -0.175781 11.863281 -0.0859375 11.5625 -0.015625 C 11.269531 0.0546875 10.953125 0.09375 10.609375 0.09375 C 9.898438 0.09375 9.34375 -0.0390625 8.9375 -0.3125 C 8.539062 -0.59375 8.257812 -1.019531 8.09375 -1.59375 L 7.859375 -1.625 C 7.285156 -0.394531 6.207031 0.21875 4.625 0.21875 Z M 5.5625 -2 C 6.25 -2 6.796875 -2.226562 7.203125 -2.6875 C 7.617188 -3.15625 7.828125 -3.800781 7.828125 -4.625 L 7.828125 -5.828125 L 7.625 -5.859375 C 7.445312 -5.722656 7.210938 -5.601562 6.921875 -5.5 C 6.628906 -5.40625 6.210938 -5.3125 5.671875 -5.21875 C 5.023438 -5.113281 4.5625 -4.929688 4.28125 -4.671875 C 4 -4.410156 3.859375 -4.039062 3.859375 -3.5625 C 3.859375 -3.050781 4.007812 -2.660156 4.3125 -2.390625 C 4.613281 -2.128906 5.03125 -2 5.5625 -2 Z M 5.5625 -2 "/></g></g><g style="fill:#000000;fill-opacity:1;"><g transform="translate(389.506088, 258.34126)"><path style="stroke:none" d="M 8.28125 0.21875 C 6.769531 0.21875 5.644531 -0.34375 4.90625 -1.46875 L 4.6875 -1.421875 L 4.6875 0 L 1.703125 0 L 1.703125 -16.609375 L 4.6875 -16.609375 L 4.6875 -10.453125 L 4.90625 -10.40625 C 5.3125 -10.976562 5.789062 -11.398438 6.34375 -11.671875 C 6.90625 -11.941406 7.570312 -12.078125 8.34375 -12.078125 C 9.300781 -12.078125 10.140625 -11.847656 10.859375 -11.390625 C 11.578125 -10.941406 12.132812 -10.253906 12.53125 -9.328125 C 12.9375 -8.410156 13.140625 -7.273438 13.140625 -5.921875 C 13.140625 -4.578125 12.929688 -3.441406 12.515625 -2.515625 C 12.097656 -1.597656 11.523438 -0.910156 10.796875 -0.453125 C 10.066406 -0.00390625 9.226562 0.21875 8.28125 0.21875 Z M 7.375 -2.296875 C 8.25 -2.296875 8.914062 -2.585938 9.375 -3.171875 C 9.832031 -3.753906 10.0625 -4.671875 10.0625 -5.921875 C 10.0625 -7.171875 9.832031 -8.085938 9.375 -8.671875 C 8.914062 -9.253906 8.25 -9.546875 7.375 -9.546875 C 6.539062 -9.546875 5.878906 -9.242188 5.390625 -8.640625 C 4.898438 -8.046875 4.65625 -7.140625 4.65625 -5.921875 C 4.65625 -4.703125 4.898438 -3.789062 5.390625 -3.1875 C 5.878906 -2.59375 6.539062 -2.296875 7.375 -2.296875 Z M 7.375 -2.296875 "/></g></g><g style="fill:#000000;fill-opacity:1;"><g transform="translate(403.694003, 258.34126)"><path style="stroke:none" d="M 4.921875 0.21875 C 3.847656 0.21875 3.03125 -0.0664062 2.46875 -0.640625 C 1.914062 -1.210938 1.640625 -2.085938 1.640625 -3.265625 L 1.640625 -16.609375 L 4.609375 -16.609375 L 4.609375 -3.390625 C 4.609375 -2.660156 4.910156 -2.296875 5.515625 -2.296875 C 5.679688 -2.296875 5.863281 -2.328125 6.0625 -2.390625 L 6.203125 -2.34375 L 6.484375 -0.046875 C 6.316406 0.0351562 6.097656 0.0976562 5.828125 0.140625 C 5.554688 0.191406 5.253906 0.21875 4.921875 0.21875 Z M 4.921875 0.21875 "/></g></g><g style="fill:#000000;fill-opacity:1;"><g transform="translate(410.503341, 258.34126)"><path style="stroke:none" d="M 11.703125 -5.25 L 4.09375 -5.25 C 4.175781 -4.21875 4.46875 -3.46875 4.96875 -3 C 5.46875 -2.53125 6.15625 -2.296875 7.03125 -2.296875 C 7.707031 -2.296875 8.253906 -2.421875 8.671875 -2.671875 C 9.097656 -2.929688 9.441406 -3.316406 9.703125 -3.828125 L 9.921875 -3.828125 L 11.90625 -2.5625 C 11.519531 -1.738281 10.9375 -1.066406 10.15625 -0.546875 C 9.375 -0.0351562 8.332031 0.21875 7.03125 0.21875 C 5.800781 0.21875 4.738281 -0.0078125 3.84375 -0.46875 C 2.957031 -0.9375 2.269531 -1.628906 1.78125 -2.546875 C 1.300781 -3.472656 1.0625 -4.597656 1.0625 -5.921875 C 1.0625 -7.265625 1.316406 -8.394531 1.828125 -9.3125 C 2.335938 -10.238281 3.023438 -10.929688 3.890625 -11.390625 C 4.753906 -11.847656 5.726562 -12.078125 6.8125 -12.078125 C 8.488281 -12.078125 9.769531 -11.628906 10.65625 -10.734375 C 11.550781 -9.847656 12 -8.546875 12 -6.828125 C 12 -6.203125 11.976562 -5.71875 11.9375 -5.375 Z M 9.15625 -7.171875 C 9.125 -8.078125 8.910156 -8.734375 8.515625 -9.140625 C 8.128906 -9.554688 7.5625 -9.765625 6.8125 -9.765625 C 5.3125 -9.765625 4.425781 -8.898438 4.15625 -7.171875 Z M 9.15625 -7.171875 "/></g></g><g style="fill:#000000;fill-opacity:1;"><g transform="translate(190.555699, 248.591261)"><path style="stroke:none" d="M 4.90625 -1.6875 L 5.359375 -0.375 C 5.171875 -0.21875 4.929688 -0.09375 4.640625 0 C 4.347656 0.09375 4.015625 0.140625 3.640625 0.140625 C 2.867188 0.140625 2.285156 -0.0664062 1.890625 -0.484375 C 1.492188 -0.910156 1.296875 -1.519531 1.296875 -2.3125 L 1.296875 -5.6875 L 0.21875 -5.6875 L 0.21875 -7.109375 L 1.296875 -7.109375 L 1.296875 -8.5 L 3.078125 -8.78125 L 3.078125 -7.109375 L 5.09375 -7.109375 L 5.09375 -5.6875 L 3.078125 -5.6875 L 3.078125 -2.453125 C 3.078125 -2.097656 3.148438 -1.835938 3.296875 -1.671875 C 3.441406 -1.515625 3.65625 -1.4375 3.9375 -1.4375 C 4.25 -1.4375 4.523438 -1.519531 4.765625 -1.6875 Z M 4.90625 -1.6875 "/></g></g><g style="fill:#000000;fill-opacity:1;"><g transform="translate(196.072472, 248.591261)"><path style="stroke:none" d="M 1.03125 0 L 1.03125 -9.953125 L 2.8125 -9.953125 L 2.8125 -6.171875 L 2.9375 -6.15625 C 3.175781 -6.5 3.46875 -6.765625 3.8125 -6.953125 C 4.15625 -7.140625 4.570312 -7.234375 5.0625 -7.234375 C 6.625 -7.234375 7.40625 -6.347656 7.40625 -4.578125 L 7.40625 0 L 5.625 0 L 5.625 -4.34375 C 5.625 -4.832031 5.523438 -5.1875 5.328125 -5.40625 C 5.140625 -5.625 4.84375 -5.734375 4.4375 -5.734375 C 3.9375 -5.734375 3.539062 -5.566406 3.25 -5.234375 C 2.957031 -4.898438 2.8125 -4.378906 2.8125 -3.671875 L 2.8125 0 Z M 1.03125 0 "/></g></g><g clip-rule="nonzero" clip-path="url(#aa007773c0)"><path style=" stroke:none;fill-rule:evenodd;fill:#fe646f;fill-opacity:1;" d="M 132.046875 203.917969 L 119.324219 204.160156 C 118.640625 204.171875 118.046875 203.824219 117.726562 203.214844 C 117.410156 202.609375 117.457031 201.921875 117.855469 201.363281 L 134.15625 178.652344 C 134.585938 178.054688 135.289062 177.792969 136.003906 177.960938 L 151.894531 181.761719 Z M 132.046875 203.917969 "/><path style=" stroke:none;fill-rule:evenodd;fill:#fd4755;fill-opacity:1;" d="M 136.03125 184.460938 L 121.925781 204.113281 L 119.324219 204.160156 C 118.640625 204.175781 118.046875 203.824219 117.726562 203.214844 C 117.410156 202.609375 117.457031 201.921875 117.855469 201.363281 L 134.15625 178.652344 C 134.585938 178.054688 135.289062 177.792969 136.003906 177.960938 L 151.894531 181.761719 L 147.9375 186.175781 L 147.191406 185.996094 L 137.875 183.769531 C 137.164062 183.601562 136.457031 183.863281 136.03125 184.460938 Z M 136.03125 184.460938 "/></g><g clip-rule="nonzero" clip-path="url(#926591ef70)"><path style=" stroke:none;fill-rule:evenodd;fill:#fe646f;fill-opacity:1;" d="M 160.449219 232.324219 L 160.207031 245.042969 C 160.195312 245.730469 160.546875 246.324219 161.152344 246.640625 C 161.757812 246.960938 162.445312 246.910156 163.003906 246.511719 L 185.71875 230.210938 C 186.3125 229.785156 186.578125 229.078125 186.40625 228.367188 L 182.609375 212.472656 Z M 160.449219 232.324219 "/><path style=" stroke:none;fill-rule:evenodd;fill:#fd4755;fill-opacity:1;" d="M 179.910156 228.335938 L 160.257812 242.441406 L 160.207031 245.042969 C 160.195312 245.730469 160.546875 246.324219 161.152344 246.640625 C 161.757812 246.960938 162.445312 246.910156 163.003906 246.511719 L 185.71875 230.210938 C 186.3125 229.785156 186.578125 229.078125 186.40625 228.367188 L 182.609375 212.472656 L 178.191406 216.429688 L 178.371094 217.179688 L 180.597656 226.492188 C 180.769531 227.203125 180.503906 227.910156 179.910156 228.335938 Z M 179.910156 228.335938 "/></g><path style=" stroke:none;fill-rule:evenodd;fill:#837683;fill-opacity:1;" d="M 137.8125 208.84375 L 155.523438 226.554688 L 147.359375 234.71875 C 146.671875 235.40625 145.550781 235.40625 144.863281 234.71875 L 129.652344 219.503906 C 128.964844 218.816406 128.964844 217.695312 129.652344 217.007812 Z M 137.8125 208.84375 "/><path style=" stroke:none;fill-rule:evenodd;fill:#685e68;fill-opacity:1;" d="M 146.667969 217.699219 L 155.523438 226.554688 L 147.359375 234.71875 C 146.671875 235.40625 145.550781 235.40625 144.863281 234.71875 L 137.257812 227.109375 Z M 146.667969 217.699219 "/><path style=" stroke:none;fill-rule:evenodd;fill:#eceff1;fill-opacity:1;" d="M 132.046875 203.917969 C 135.757812 198.375 140.195312 192.949219 145.308594 187.832031 C 163.585938 169.558594 185.796875 159.960938 203.339844 161.027344 C 204.410156 178.570312 194.808594 200.785156 176.535156 219.058594 C 171.417969 224.175781 165.992188 228.609375 160.449219 232.324219 Z M 132.046875 203.917969 "/><path style=" stroke:none;fill-rule:evenodd;fill:#d1d1d6;fill-opacity:1;" d="M 203.339844 161.027344 C 204.410156 178.570312 194.808594 200.785156 176.535156 219.058594 C 171.417969 224.175781 165.992188 228.609375 160.449219 232.324219 L 146.246094 218.121094 Z M 203.339844 161.027344 "/><path style=" stroke:none;fill-rule:evenodd;fill:#d1d1d6;fill-opacity:1;" d="M 137.390625 209.265625 L 160.449219 232.324219 C 162.882812 230.695312 165.292969 228.925781 167.664062 227.023438 L 167.65625 227.015625 L 137.347656 196.703125 C 135.441406 199.074219 133.675781 201.484375 132.046875 203.917969 Z M 137.390625 209.265625 "/><path style=" stroke:none;fill-rule:evenodd;fill:#b1b1b5;fill-opacity:1;" d="M 146.246094 218.121094 L 160.449219 232.324219 C 162.882812 230.695312 165.292969 228.925781 167.664062 227.023438 L 152.503906 211.863281 Z M 146.246094 218.121094 "/><path style=" stroke:none;fill-rule:nonzero;fill:#837683;fill-opacity:1;" d="M 187.5625 187.523438 C 187.5625 188.226562 187.496094 188.921875 187.359375 189.613281 C 187.222656 190.304688 187.019531 190.972656 186.75 191.625 C 186.480469 192.273438 186.148438 192.894531 185.757812 193.476562 C 185.367188 194.0625 184.921875 194.605469 184.425781 195.101562 C 183.925781 195.601562 183.386719 196.042969 182.800781 196.433594 C 182.214844 196.824219 181.597656 197.15625 180.949219 197.425781 C 180.296875 197.695312 179.628906 197.898438 178.9375 198.035156 C 178.246094 198.171875 177.550781 198.242188 176.847656 198.242188 C 176.140625 198.242188 175.445312 198.171875 174.753906 198.035156 C 174.066406 197.898438 173.394531 197.695312 172.746094 197.425781 C 172.09375 197.15625 171.476562 196.824219 170.890625 196.433594 C 170.304688 196.042969 169.765625 195.601562 169.265625 195.101562 C 168.769531 194.605469 168.324219 194.0625 167.933594 193.476562 C 167.542969 192.894531 167.210938 192.273438 166.945312 191.625 C 166.675781 190.972656 166.472656 190.304688 166.332031 189.613281 C 166.195312 188.921875 166.128906 188.226562 166.128906 187.523438 C 166.128906 186.820312 166.195312 186.121094 166.332031 185.433594 C 166.472656 184.742188 166.675781 184.070312 166.945312 183.421875 C 167.210938 182.769531 167.542969 182.152344 167.933594 181.566406 C 168.324219 180.984375 168.769531 180.441406 169.265625 179.945312 C 169.765625 179.445312 170.304688 179.003906 170.890625 178.609375 C 171.476562 178.21875 172.09375 177.890625 172.746094 177.621094 C 173.394531 177.351562 174.066406 177.148438 174.753906 177.011719 C 175.445312 176.875 176.140625 176.804688 176.847656 176.804688 C 177.550781 176.804688 178.246094 176.875 178.9375 177.011719 C 179.628906 177.148438 180.296875 177.351562 180.949219 177.621094 C 181.597656 177.890625 182.214844 178.21875 182.800781 178.609375 C 183.386719 179.003906 183.925781 179.445312 184.425781 179.945312 C 184.921875 180.441406 185.367188 180.984375 185.757812 181.566406 C 186.148438 182.152344 186.480469 182.769531 186.75 183.421875 C 187.019531 184.070312 187.222656 184.742188 187.359375 185.433594 C 187.496094 186.121094 187.5625 186.820312 187.5625 187.523438 Z M 187.5625 187.523438 "/><path style=" stroke:none;fill-rule:evenodd;fill:#685e68;fill-opacity:1;" d="M 184.425781 179.945312 C 188.609375 184.128906 188.609375 190.917969 184.425781 195.101562 C 180.238281 199.289062 173.453125 199.289062 169.265625 195.101562 Z M 184.425781 179.945312 "/><path style=" stroke:none;fill-rule:nonzero;fill:#8ac9fe;fill-opacity:1;" d="M 184.582031 187.523438 C 184.582031 188.03125 184.535156 188.535156 184.433594 189.03125 C 184.335938 189.53125 184.1875 190.015625 183.996094 190.484375 C 183.800781 190.953125 183.5625 191.398438 183.28125 191.820312 C 182.996094 192.242188 182.675781 192.632812 182.316406 192.992188 C 181.957031 193.351562 181.566406 193.675781 181.144531 193.957031 C 180.722656 194.238281 180.277344 194.476562 179.808594 194.671875 C 179.335938 194.867188 178.855469 195.011719 178.355469 195.113281 C 177.855469 195.210938 177.355469 195.261719 176.847656 195.261719 C 176.339844 195.261719 175.835938 195.210938 175.335938 195.113281 C 174.839844 195.011719 174.355469 194.867188 173.886719 194.671875 C 173.414062 194.476562 172.96875 194.238281 172.546875 193.957031 C 172.125 193.675781 171.734375 193.351562 171.375 192.992188 C 171.015625 192.632812 170.695312 192.242188 170.414062 191.820312 C 170.128906 191.398438 169.890625 190.953125 169.699219 190.484375 C 169.503906 190.015625 169.355469 189.53125 169.257812 189.03125 C 169.160156 188.535156 169.109375 188.03125 169.109375 187.523438 C 169.109375 187.015625 169.160156 186.511719 169.257812 186.011719 C 169.355469 185.515625 169.503906 185.03125 169.699219 184.5625 C 169.890625 184.09375 170.128906 183.648438 170.414062 183.222656 C 170.695312 182.800781 171.015625 182.410156 171.375 182.050781 C 171.734375 181.691406 172.125 181.371094 172.546875 181.089844 C 172.96875 180.808594 173.414062 180.570312 173.886719 180.375 C 174.355469 180.179688 174.839844 180.035156 175.335938 179.933594 C 175.835938 179.835938 176.339844 179.785156 176.847656 179.785156 C 177.355469 179.785156 177.855469 179.835938 178.355469 179.933594 C 178.855469 180.035156 179.335938 180.179688 179.808594 180.375 C 180.277344 180.570312 180.722656 180.808594 181.144531 181.089844 C 181.566406 181.371094 181.957031 181.691406 182.316406 182.050781 C 182.675781 182.410156 182.996094 182.800781 183.28125 183.222656 C 183.5625 183.648438 183.800781 184.09375 183.996094 184.5625 C 184.1875 185.03125 184.335938 185.515625 184.433594 186.011719 C 184.535156 186.511719 184.582031 187.015625 184.582031 187.523438 Z M 184.582031 187.523438 "/><path style=" stroke:none;fill-rule:evenodd;fill:#60b7ff;fill-opacity:1;" d="M 182.316406 182.050781 C 185.339844 185.074219 185.339844 189.972656 182.316406 192.992188 C 179.296875 196.015625 174.394531 196.015625 171.375 192.992188 Z M 182.316406 182.050781 "/><path style=" stroke:none;fill-rule:evenodd;fill:#a79ba7;fill-opacity:1;" d="M 125.753906 226.132812 C 126.304688 225.582031 127.195312 225.582031 127.746094 226.132812 C 128.292969 226.679688 128.292969 227.574219 127.746094 228.121094 L 122.46875 233.398438 C 121.917969 233.949219 121.027344 233.949219 120.476562 233.398438 C 119.925781 232.851562 119.925781 231.957031 120.476562 231.410156 Z M 136.246094 236.625 C 136.796875 236.074219 137.6875 236.074219 138.238281 236.625 C 138.785156 237.175781 138.785156 238.066406 138.238281 238.613281 L 132.960938 243.890625 C 132.410156 244.441406 131.519531 244.441406 130.96875 243.890625 C 130.417969 243.34375 130.417969 242.453125 130.96875 241.902344 Z M 130.996094 231.375 L 121.035156 241.335938 C 120.480469 241.886719 120.480469 242.78125 121.035156 243.335938 C 121.585938 243.886719 122.480469 243.886719 123.03125 243.335938 L 132.996094 233.371094 C 133.546875 232.820312 133.546875 231.925781 132.996094 231.375 C 132.441406 230.820312 131.546875 230.820312 130.996094 231.375 Z M 130.996094 231.375 "/></g></svg>